<?xml version="1.0"?><svg xmlns="http://www.w3.org/2000/svg" version="1.1" width="476.2205px" height="487.5591px" preserveAspectRatio="none" viewBox="0 0 476.2205 487.5591"><defs></defs><g transform="matrix(1 0 0 -1 0 487.5591)"><g transform=""><path d="M 19.9193 464.4995 L 76.6123 464.4995 L 76.6123 14.6412 L 19.9193 14.6412 ZZ" fill="none" stroke="#0e2748" stroke-opacity="1" stroke-miterlimit="2.6131259298" stroke-linecap="butt" stroke-linejoin="miter" stroke-width="0.5669px" stroke-dasharray="" stroke-dashoffset="0px"></path><path d="M 76.6123 464.4995 L 161.6516 464.4995 L 161.6516 14.6412 L 76.6123 14.6412 ZZ" fill="none" stroke="#0e2748" stroke-opacity="1" stroke-miterlimit="2.6131259298" stroke-linecap="butt" stroke-linejoin="miter" stroke-width="0.5669px" stroke-dasharray="" stroke-dashoffset="0px"></path><path d="M 161.6516 464.4995 L 331.7304 464.4995 L 331.7304 14.6412 L 161.6516 14.6412 ZZ" fill="none" stroke="#0e2748" stroke-opacity="1" stroke-miterlimit="2.6131259298" stroke-linecap="butt" stroke-linejoin="miter" stroke-width="0.5669px" stroke-dasharray="" stroke-dashoffset="0px"></path><path d="M 331.7304 464.4995 L 416.7697 464.4995 L 416.7697 14.6412 L 331.7304 14.6412 ZZ" fill="none" stroke="#0e2748" stroke-opacity="1" stroke-miterlimit="2.6131259298" stroke-linecap="butt" stroke-linejoin="miter" stroke-width="0.5669px" stroke-dasharray="" stroke-dashoffset="0px"></path><path d="M 416.7697 464.4995 L 473.4626 464.4995 L 473.4626 14.6412 L 416.7697 14.6412 ZZ" fill="none" stroke="#0e2748" stroke-opacity="1" stroke-miterlimit="2.6131259298" stroke-linecap="butt" stroke-linejoin="miter" stroke-width="0.5669px" stroke-dasharray="" stroke-dashoffset="0px"></path><path d="M 473.4626 471.5861 L 473.4626 485.8946" fill="none" stroke="#0e2748" stroke-opacity="1" stroke-miterlimit="2.6131259298" stroke-linecap="butt" stroke-linejoin="miter" stroke-width="0.216px" stroke-dasharray="" stroke-dashoffset="0px"></path><path d="M 19.9193 471.5861 L 19.9193 485.8946" fill="none" stroke="#0e2748" stroke-opacity="1" stroke-miterlimit="2.6131259298" stroke-linecap="butt" stroke-linejoin="miter" stroke-width="0.216px" stroke-dasharray="" stroke-dashoffset="0px"></path><path d="M 280.6362 478.8079 L 473.4626 478.8079" fill="none" stroke="#0e2748" stroke-opacity="1" stroke-miterlimit="22.9255856261" stroke-linecap="butt" stroke-linejoin="miter" stroke-width="0.216px" stroke-dasharray="" stroke-dashoffset="0px"></path><path d="M 462.8806 475.9724 L 473.4626 478.8079 L 462.8806 481.6434 Z" fill="#0e2748" fill-rule="evenodd" fill-opacity="1"></path></g><g transform=""><path d="M 19.9193 478.8079 L 215.3381 478.8079" fill="none" stroke="#0e2748" stroke-opacity="1" stroke-miterlimit="22.9255856261" stroke-linecap="butt" stroke-linejoin="miter" stroke-width="0.216px" stroke-dasharray="" stroke-dashoffset="0px"></path><path d="M 30.5014 475.9724 L 19.9193 478.8079 L 30.5014 481.6434 Z" fill="#0e2748" fill-rule="evenodd" fill-opacity="1"></path></g><g transform=""><path d="M 222.1665 474.4942 L 221.1106 474.4942 L 221.1106 481.2182 C 220.8566 480.9742 220.5224 480.7321 220.1105 480.49 C 219.6984 480.2482 219.3265 480.0662 218.9985 479.946 L 218.9985 480.9662 C 219.5884 481.242 220.1046 481.5782 220.5465 481.9742 C 220.9884 482.3683 221.3025 482.7501 221.4865 483.122 L 222.1665 483.122 Z Z M 230.3643 480.9861 L 229.3203 480.9022 C 229.2265 481.316 229.0924 481.6182 228.9183 481.8061 C 228.6323 482.108 228.2783 482.258 227.8585 482.258 C 227.5203 482.258 227.2204 482.1642 226.9624 481.9762 C 226.6305 481.7341 226.3703 481.3821 226.1764 480.918 C 225.9845 480.452 225.8844 479.7901 225.8765 478.9321 C 226.1305 479.3182 226.4423 479.6062 226.8105 479.7921 C 227.1784 479.9801 227.5622 480.0742 227.9665 480.0742 C 228.6703 480.0742 229.2704 479.8142 229.7665 479.2961 C 230.2603 478.7782 230.5083 478.11 230.5083 477.2883 C 230.5083 476.7483 230.3923 476.2483 230.1605 475.7842 C 229.9263 475.3202 229.6083 474.9661 229.2004 474.7201 C 228.7945 474.474 228.3324 474.3502 227.8162 474.3502 C 226.9383 474.3502 226.2203 474.6742 225.6644 475.3202 C 225.1103 475.9662 224.8325 477.032 224.8325 478.5163 C 224.8325 480.1762 225.1403 481.3841 225.7543 482.1381 C 226.2903 482.794 227.0123 483.122 227.9222 483.122 C 228.5983 483.122 229.1545 482.9321 229.5865 482.5542 C 230.0185 482.1761 230.2784 481.6542 230.3643 480.9861 Z M 226.0443 477.2781 C 226.0443 476.9141 226.1222 476.566 226.2764 476.2341 C 226.4304 475.9021 226.6464 475.6501 226.9205 475.4761 C 227.1963 475.302 227.4883 475.2142 227.7984 475.2142 C 228.2482 475.2142 228.6323 475.3942 228.9504 475.7542 C 229.2684 476.1142 229.4283 476.602 229.4283 477.2203 C 229.4283 477.8141 229.2704 478.2821 228.9563 478.6243 C 228.6422 478.9661 228.2423 479.1382 227.7564 479.1382 C 227.2805 479.1382 226.8743 478.9661 226.5423 478.6243 C 226.2104 478.2821 226.0443 477.8342 226.0443 477.2781 Z M 231.5543 478.7342 C 231.5543 479.7482 231.6583 480.5683 231.8664 481.1882 C 232.0761 481.8101 232.3862 482.288 232.7984 482.6222 C 233.2083 482.9562 233.7262 483.122 234.3504 483.122 C 234.8101 483.122 235.2144 483.0301 235.5642 482.8442 C 235.9123 482.6582 236.2003 482.3901 236.4242 482.04 C 236.6481 481.6922 236.8242 481.2661 236.9523 480.7641 C 237.0821 480.2621 237.1462 479.5841 237.1462 478.7342 C 237.1462 477.7262 237.0421 476.9101 236.8363 476.2902 C 236.6303 475.6683 236.3202 475.1901 235.9083 474.8542 C 235.4981 474.5183 234.9782 474.3502 234.3504 474.3502 C 233.5243 474.3502 232.8744 474.6441 232.4024 475.2343 C 231.8363 475.9543 231.5543 477.1202 231.5543 478.7342 Z M 232.6343 478.7303 C 232.6343 477.3161 232.7984 476.3761 233.1283 475.9121 C 233.4583 475.446 233.8662 475.2142 234.3504 475.2142 C 234.8342 475.2142 235.2421 475.448 235.5721 475.914 C 235.9023 476.382 236.0662 477.32 236.0662 478.7303 C 236.0662 480.1442 235.9023 481.0842 235.5721 481.5482 C 235.2441 482.0142 234.8323 482.2461 234.3382 482.2461 C 233.8543 482.2461 233.4662 482.04 233.1763 481.6301 C 232.8143 481.1083 232.6343 480.1402 232.6343 478.7303 Z M 238.8161 474.4942 L 238.8161 475.6941 L 240.0163 475.6941 L 240.0163 474.4942 Z Z M 241.5623 478.7342 C 241.5623 479.7482 241.6663 480.5683 241.8744 481.1882 C 242.0841 481.8101 242.3942 482.288 242.8064 482.6222 C 243.2163 482.9562 243.7342 483.122 244.3584 483.122 C 244.8181 483.122 245.2224 483.0301 245.5722 482.8442 C 245.9203 482.6582 246.2083 482.3901 246.4322 482.04 C 246.6561 481.6922 246.8322 481.2661 246.9603 480.7641 C 247.0901 480.2621 247.1542 479.5841 247.1542 478.7342 C 247.1542 477.7262 247.0501 476.9101 246.8443 476.2902 C 246.6383 475.6683 246.3282 475.1901 245.9163 474.8542 C 245.5061 474.5183 244.9862 474.3502 244.3584 474.3502 C 243.5323 474.3502 242.8824 474.6441 242.4104 475.2343 C 241.8443 475.9543 241.5623 477.1202 241.5623 478.7342 Z M 242.6423 478.7303 C 242.6423 477.3161 242.8064 476.3761 243.1363 475.9121 C 243.4663 475.446 243.8742 475.2142 244.3584 475.2142 C 244.8422 475.2142 245.2501 475.448 245.5801 475.914 C 245.9103 476.382 246.0742 477.32 246.0742 478.7303 C 246.0742 480.1442 245.9103 481.0842 245.5801 481.5482 C 245.2521 482.0142 244.8403 482.2461 244.3462 482.2461 C 243.8623 482.2461 243.4742 482.04 243.1843 481.6301 C 242.8223 481.1083 242.6423 480.1402 242.6423 478.7303 Z M 248.2362 478.7342 C 248.2362 479.7482 248.3402 480.5683 248.5483 481.1882 C 248.758 481.8101 249.0681 482.288 249.4803 482.6222 C 249.8902 482.9562 250.4081 483.122 251.0323 483.122 C 251.492 483.122 251.8963 483.0301 252.246 482.8442 C 252.5941 482.6582 252.8821 482.3901 253.1061 482.04 C 253.33 481.6922 253.506 481.2661 253.6342 480.7641 C 253.764 480.2621 253.8281 479.5841 253.8281 478.7342 C 253.8281 477.7262 253.724 476.9101 253.5182 476.2902 C 253.3122 475.6683 253.002 475.1901 252.5902 474.8542 C 252.18 474.5183 251.6601 474.3502 251.0323 474.3502 C 250.2062 474.3502 249.5563 474.6441 249.0843 475.2343 C 248.5182 475.9543 248.2362 477.1202 248.2362 478.7342 Z M 249.3162 478.7303 C 249.3162 477.3161 249.4803 476.3761 249.8102 475.9121 C 250.1402 475.446 250.5481 475.2142 251.0323 475.2142 C 251.5161 475.2142 251.924 475.448 252.254 475.914 C 252.5842 476.382 252.7481 477.32 252.7481 478.7303 C 252.7481 480.1442 252.5842 481.0842 252.254 481.5482 C 251.926 482.0142 251.5141 482.2461 251.0201 482.2461 C 250.5362 482.2461 250.1481 482.04 249.8581 481.6301 C 249.4962 481.1083 249.3162 480.1402 249.3162 478.7303 Z M 258.5322 474.4942 L 258.5322 480.7222 L 259.4801 480.7222 L 259.4801 479.842 C 259.6742 480.1462 259.9342 480.3922 260.2582 480.5762 C 260.5822 480.7621 260.9501 480.854 261.3643 480.854 C 261.824 480.854 262.2022 480.7582 262.4961 480.5683 C 262.7901 480.3761 262.9981 480.1102 263.118 479.766 C 263.6141 480.492 264.2562 480.854 265.0482 480.854 C 265.6681 480.854 266.146 480.6842 266.478 480.342 C 266.8122 480.0002 266.98 479.4741 266.98 478.764 L 266.98 474.4942 L 265.9241 474.4942 L 265.9241 478.4142 C 265.9241 478.834 265.8881 479.1382 265.82 479.3241 C 265.752 479.5101 265.6281 479.658 265.4461 479.772 C 265.2661 479.8862 265.0541 479.9421 264.812 479.9421 C 264.3721 479.9421 264.0081 479.7961 263.7181 479.5061 C 263.4282 479.2141 263.2842 478.7481 263.2842 478.1081 L 263.2842 474.4942 L 262.2283 474.4942 L 262.2283 478.5361 C 262.2283 479.0041 262.1421 479.3562 261.97 479.59 C 261.7982 479.8242 261.5162 479.9421 261.1261 479.9421 C 260.8302 479.9421 260.5561 479.8641 260.3041 479.7082 C 260.0521 479.552 259.8701 479.3241 259.7562 479.0222 C 259.6442 478.722 259.5881 478.2881 259.5881 477.7223 L 259.5881 474.4942 Z Z M 268.528 474.4942 L 268.528 480.7222 L 269.4759 480.7222 L 269.4759 479.842 C 269.67 480.1462 269.93 480.3922 270.254 480.5762 C 270.578 480.7621 270.9459 480.854 271.3601 480.854 C 271.8198 480.854 272.198 480.7582 272.4919 480.5683 C 272.7859 480.3761 272.994 480.1102 273.1139 479.766 C 273.6099 480.492 274.252 480.854 275.044 480.854 C 275.6639 480.854 276.1418 480.6842 276.4738 480.342 C 276.808 480.0002 276.9758 479.4741 276.9758 478.764 L 276.9758 474.4942 L 275.9199 474.4942 L 275.9199 478.4142 C 275.9199 478.834 275.8839 479.1382 275.8158 479.3241 C 275.7478 479.5101 275.6239 479.658 275.442 479.772 C 275.262 479.8862 275.0499 479.9421 274.8078 479.9421 C 274.3679 479.9421 274.0039 479.7961 273.714 479.5061 C 273.424 479.2141 273.28 478.7481 273.28 478.1081 L 273.28 474.4942 L 272.2241 474.4942 L 272.2241 478.5361 C 272.2241 479.0041 272.1379 479.3562 271.9658 479.59 C 271.794 479.8242 271.512 479.9421 271.122 479.9421 C 270.826 479.9421 270.5519 479.8641 270.2999 479.7082 C 270.0479 479.552 269.8659 479.3241 269.752 479.0222 C 269.64 478.722 269.5839 478.2881 269.5839 477.7223 L 269.5839 474.4942 Z" fill="#0e2748" fill-opacity="1"></path><path d="M 12.8327 464.4995 L 2.3377 464.4995" fill="none" stroke="#0e2748" stroke-opacity="1" stroke-miterlimit="2.6131259298" stroke-linecap="butt" stroke-linejoin="miter" stroke-width="0.216px" stroke-dasharray="" stroke-dashoffset="0px"></path><path d="M 12.8327 14.6412 L 2.3377 14.6412" fill="none" stroke="#0e2748" stroke-opacity="1" stroke-miterlimit="2.6131259298" stroke-linecap="butt" stroke-linejoin="miter" stroke-width="0.216px" stroke-dasharray="" stroke-dashoffset="0px"></path><path d="M 9.4243 273.5155 L 9.4243 464.4995" fill="none" stroke="#0e2748" stroke-opacity="1" stroke-miterlimit="22.9255856261" stroke-linecap="butt" stroke-linejoin="miter" stroke-width="0.216px" stroke-dasharray="" stroke-dashoffset="0px"></path><path d="M 12.2598 453.9175 L 9.4243 464.4995 L 6.5889 453.9175 Z" fill="#0e2748" fill-rule="evenodd" fill-opacity="1"></path></g><g transform=""><path d="M 9.4243 14.6412 L 9.4243 208.2175" fill="none" stroke="#0e2748" stroke-opacity="1" stroke-miterlimit="22.9255856261" stroke-linecap="butt" stroke-linejoin="miter" stroke-width="0.216px" stroke-dasharray="" stroke-dashoffset="0px"></path><path d="M 12.2598 25.2232 L 9.4243 14.6412 L 6.5889 25.2232 Z" fill="#0e2748" fill-rule="evenodd" fill-opacity="1"></path></g><g transform=""><path d="M 13.7381 215.0459 L 13.7381 213.99 L 7.014 213.99 C 7.2581 213.736 7.5002 213.4018 7.7423 212.9899 C 7.9841 212.5777 8.166 212.2058 8.2862 211.8779 L 7.266 211.8779 C 6.9902 212.4677 6.654 212.9839 6.258 213.4259 C 5.864 213.8678 5.4822 214.1819 5.1103 214.3658 L 5.1103 215.0459 Z Z M 11.482 217.7597 L 11.3981 218.8638 C 11.9361 218.9458 12.3401 219.1357 12.6122 219.4316 C 12.882 219.7278 13.0181 220.0898 13.0181 220.5156 C 13.0181 221.0298 12.8262 221.4598 12.4441 221.8096 C 12.06 222.1577 11.552 222.3317 10.9202 222.3317 C 10.3181 222.3317 9.8442 222.1656 9.4961 221.8317 C 9.1483 221.4978 8.9742 221.0556 8.9742 220.5057 C 8.9742 220.1638 9.0522 219.8577 9.2081 219.5858 C 9.3643 219.3157 9.5661 219.1037 9.8141 218.9477 L 9.6701 217.9517 L 5.2543 218.7797 L 5.2543 223.0398 L 6.2623 223.0398 L 6.2623 219.6218 L 8.5802 219.1637 C 8.2182 219.6777 8.0382 220.2177 8.0382 220.7818 C 8.0382 221.5298 8.2981 222.1617 8.818 222.6756 C 9.3382 223.1898 10.006 223.4477 10.8221 223.4477 C 11.6002 223.4477 12.272 223.2218 12.8381 222.7697 C 13.534 222.2198 13.8821 221.4677 13.8821 220.5156 C 13.8821 219.7358 13.6621 219.0997 13.2242 218.6056 C 12.7862 218.1118 12.206 217.8298 11.482 217.7597 Z M 9.0802 226.0596 C 8.9201 225.6216 8.6902 225.2976 8.3942 225.0856 C 8.096 224.8756 7.7403 224.7695 7.3261 224.7695 C 6.7003 224.7695 6.1761 224.9938 5.7501 225.4416 C 5.3243 225.8915 5.1103 226.4876 5.1103 227.2337 C 5.1103 227.9815 5.3283 228.5855 5.7643 229.0416 C 6.2002 229.4977 6.7303 229.7256 7.3562 229.7256 C 7.7542 229.7256 8.1023 229.6216 8.3962 229.4135 C 8.6922 229.2055 8.9201 228.8897 9.0802 228.4637 C 9.2523 228.9895 9.5281 229.3875 9.9122 229.6616 C 10.294 229.9357 10.7501 230.0734 11.2822 230.0734 C 12.0161 230.0734 12.632 229.8135 13.1321 229.2956 C 13.6321 228.7755 13.8821 228.0937 13.8821 227.2476 C 13.8821 226.4017 13.6321 225.7197 13.1301 225.1996 C 12.6281 224.6817 12.0022 224.4217 11.2521 224.4217 C 10.6943 224.4217 10.2263 224.5637 9.8501 224.8475 C 9.4723 225.1315 9.2163 225.5357 9.0802 226.0596 Z M 7.2882 225.8495 C 7.6961 225.8495 8.0283 225.9797 8.2862 226.2376 C 8.5442 226.4975 8.674 226.8377 8.674 227.2595 C 8.674 227.6697 8.5462 228.0016 8.2902 228.2596 C 8.0342 228.5175 7.7202 228.6456 7.3483 228.6456 C 6.9602 228.6456 6.6342 228.5135 6.3703 228.2477 C 6.1061 227.9835 5.9743 227.6495 5.9743 227.2476 C 5.9743 226.8417 6.1041 226.5077 6.3621 226.2436 C 6.62 225.9816 6.9282 225.8495 7.2882 225.8495 Z M 11.2601 225.5017 C 11.5622 225.5017 11.8522 225.5717 12.134 225.7115 C 12.414 225.8515 12.632 226.0636 12.7862 226.3476 C 12.9402 226.6296 13.0181 226.9335 13.0181 227.2555 C 13.0181 227.7635 12.8563 228.1796 12.5323 228.5056 C 12.2083 228.8316 11.7961 228.9937 11.2961 228.9937 C 10.7881 228.9937 10.368 228.8256 10.0361 228.4917 C 9.7041 228.1555 9.538 227.7317 9.538 227.2215 C 9.538 226.7215 9.7021 226.3116 10.0301 225.9876 C 10.3581 225.6636 10.7683 225.5017 11.2601 225.5017 Z M 13.7381 231.6954 L 12.5382 231.6954 L 12.5382 232.8956 L 13.7381 232.8956 Z Z M 6.2623 234.5017 L 5.2543 234.5017 L 5.2543 240.0576 L 6.0701 240.0576 C 6.6521 239.5117 7.4262 238.9677 8.3923 238.4317 C 9.358 237.8937 10.3521 237.4795 11.374 237.1856 C 12.092 236.9755 12.882 236.8397 13.7381 236.7816 L 13.7381 235.7016 C 13.062 235.7135 12.2443 235.8456 11.2861 236.0996 C 10.326 236.3536 9.4022 236.7156 8.5122 237.1895 C 7.6221 237.6635 6.872 238.1675 6.2623 238.7015 Z Z M 9.498 241.1155 C 8.4841 241.1155 7.664 241.2196 7.0441 241.4276 C 6.4222 241.6374 5.9443 241.9475 5.61 242.3597 C 5.2761 242.7695 5.1103 243.2874 5.1103 243.9116 C 5.1103 244.3714 5.2021 244.7756 5.3881 245.1254 C 5.574 245.4735 5.8422 245.7615 6.1923 245.9854 C 6.5401 246.2094 6.9661 246.3854 7.4682 246.5135 C 7.9702 246.6434 8.6482 246.7074 9.498 246.7074 C 10.506 246.7074 11.3221 246.6034 11.9421 246.3976 C 12.564 246.1915 13.0422 245.8814 13.3781 245.4695 C 13.714 245.0594 13.8821 244.5395 13.8821 243.9116 C 13.8821 243.0856 13.5882 242.4356 12.998 241.9637 C 12.278 241.3976 11.1121 241.1155 9.498 241.1155 Z M 9.502 242.1955 C 10.9162 242.1955 11.8562 242.3597 12.3202 242.6896 C 12.7862 243.0196 13.0181 243.4275 13.0181 243.9116 C 13.0181 244.3955 12.7843 244.8034 12.3182 245.1334 C 11.8502 245.4636 10.9123 245.6274 9.502 245.6274 C 8.0881 245.6274 7.1481 245.4636 6.6841 245.1334 C 6.2181 244.8054 5.9862 244.3935 5.9862 243.8994 C 5.9862 243.4156 6.1923 243.0275 6.6022 242.7375 C 7.124 242.3755 8.0921 242.1955 9.502 242.1955 Z M 13.7381 251.4115 L 7.5101 251.4115 L 7.5101 252.3594 L 8.3903 252.3594 C 8.0861 252.5536 7.8401 252.8135 7.6561 253.1375 C 7.4701 253.4615 7.3783 253.8295 7.3783 254.2436 C 7.3783 254.7034 7.4741 255.0815 7.664 255.3755 C 7.8562 255.6694 8.1221 255.8775 8.4662 255.9974 C 7.7403 256.4935 7.3783 257.1355 7.3783 257.9275 C 7.3783 258.5475 7.5481 259.0254 7.8902 259.3573 C 8.2321 259.6915 8.7582 259.8593 9.4683 259.8593 L 13.7381 259.8593 L 13.7381 258.8034 L 9.8181 258.8034 C 9.3983 258.8034 9.0941 258.7674 8.9082 258.6994 C 8.7222 258.6314 8.5742 258.5075 8.4603 258.3255 C 8.346 258.1455 8.2902 257.9335 8.2902 257.6914 C 8.2902 257.2515 8.4362 256.8875 8.7262 256.5975 C 9.0181 256.3075 9.4842 256.1635 10.1242 256.1635 L 13.7381 256.1635 L 13.7381 255.1076 L 9.6962 255.1076 C 9.2282 255.1076 8.8761 255.0214 8.6423 254.8494 C 8.4081 254.6776 8.2902 254.3956 8.2902 254.0055 C 8.2902 253.7096 8.3682 253.4355 8.5241 253.1835 C 8.6803 252.9315 8.9082 252.7495 9.21 252.6355 C 9.5102 252.5236 9.9442 252.4674 10.51 252.4674 L 13.7381 252.4674 Z Z M 13.7381 261.4073 L 7.5101 261.4073 L 7.5101 262.3552 L 8.3903 262.3552 C 8.0861 262.5494 7.8401 262.8094 7.6561 263.1334 C 7.4701 263.4574 7.3783 263.8253 7.3783 264.2394 C 7.3783 264.6992 7.4741 265.0774 7.664 265.3713 C 7.8562 265.6653 8.1221 265.8733 8.4662 265.9932 C 7.7403 266.4893 7.3783 267.1313 7.3783 267.9233 C 7.3783 268.5433 7.5481 269.0212 7.8902 269.3531 C 8.2321 269.6873 8.7582 269.8551 9.4683 269.8551 L 13.7381 269.8551 L 13.7381 268.7992 L 9.8181 268.7992 C 9.3983 268.7992 9.0941 268.7632 8.9082 268.6952 C 8.7222 268.6272 8.5742 268.5033 8.4603 268.3213 C 8.346 268.1413 8.2902 267.9293 8.2902 267.6872 C 8.2902 267.2473 8.4362 266.8833 8.7262 266.5933 C 9.0181 266.3033 9.4842 266.1593 10.1242 266.1593 L 13.7381 266.1593 L 13.7381 265.1034 L 9.6962 265.1034 C 9.2282 265.1034 8.8761 265.0173 8.6423 264.8452 C 8.4081 264.6734 8.2902 264.3914 8.2902 264.0013 C 8.2902 263.7054 8.3682 263.4313 8.5241 263.1793 C 8.6803 262.9273 8.9082 262.7453 9.21 262.6313 C 9.5102 262.5194 9.9442 262.4632 10.51 262.4632 L 13.7381 262.4632 Z" fill="#0e2748" fill-opacity="1"></path><path d="M 76.6123 8.6301 L 76.6123 1.5435" fill="none" stroke="#0e2748" stroke-opacity="1" stroke-miterlimit="2.6131259298" stroke-linecap="butt" stroke-linejoin="miter" stroke-width="0.216px" stroke-dasharray="" stroke-dashoffset="0px"></path><path d="M 19.9193 8.6301 L 19.9193 1.5435" fill="none" stroke="#0e2748" stroke-opacity="1" stroke-miterlimit="2.6131259298" stroke-linecap="butt" stroke-linejoin="miter" stroke-width="0.216px" stroke-dasharray="" stroke-dashoffset="0px"></path><path d="M 63.3328 8.6301 L 76.6123 8.6301" fill="none" stroke="#0e2748" stroke-opacity="1" stroke-miterlimit="22.9255856261" stroke-linecap="butt" stroke-linejoin="miter" stroke-width="0.216px" stroke-dasharray="" stroke-dashoffset="0px"></path><path d="M 73.8907 10.1662 L 76.6123 8.6644 L 73.8907 7.1646 Z" fill="#0e2748" fill-rule="evenodd" fill-opacity="1"></path></g><g transform=""><path d="M 19.9193 8.6301 L 33.546 8.6301" fill="none" stroke="#0e2748" stroke-opacity="1" stroke-miterlimit="22.9255856261" stroke-linecap="butt" stroke-linejoin="miter" stroke-width="0.216px" stroke-dasharray="" stroke-dashoffset="0px"></path><path d="M 22.6409 10.1662 L 19.9193 8.6644 L 22.6409 7.1646 Z" fill="#0e2748" fill-rule="evenodd" fill-opacity="1"></path></g><g transform=""><path d="M 38.2207 6.9772 L 38.2207 6.4732 L 35.3767 6.4732 C 35.3727 6.6002 35.3937 6.7221 35.4387 6.8403 C 35.5116 7.0333 35.6287 7.2241 35.7897 7.4112 C 35.9507 7.5983 36.1806 7.8143 36.4796 8.0592 C 36.9445 8.4421 37.2606 8.7452 37.4255 8.9691 C 37.5917 9.1933 37.6747 9.4054 37.6747 9.6052 C 37.6747 9.8141 37.5996 9.9901 37.4496 10.1341 C 37.2997 10.2773 37.1035 10.3493 36.8626 10.3493 C 36.6077 10.3493 36.4037 10.2733 36.2506 10.1214 C 36.0975 9.9703 36.0207 9.7603 36.0187 9.4912 L 35.4787 9.5454 C 35.5156 9.9493 35.6556 10.2572 35.8977 10.4692 C 36.1406 10.6812 36.4657 10.7872 36.8748 10.7872 C 37.2866 10.7872 37.6138 10.6733 37.8536 10.4443 C 38.0945 10.2152 38.2147 9.9312 38.2147 9.5933 C 38.2147 9.4212 38.1796 9.2523 38.1087 9.0862 C 38.0387 8.9192 37.9216 8.7443 37.7586 8.5603 C 37.5948 8.3772 37.3238 8.1241 36.9456 7.8043 C 36.6287 7.5382 36.4246 7.3582 36.3348 7.2632 C 36.2446 7.1683 36.1706 7.0733 36.1117 6.9772 Z Z M 38.7916 8.5932 C 38.7916 9.1003 38.8434 9.5102 38.9475 9.8203 C 39.0526 10.1313 39.2077 10.3703 39.4135 10.5372 C 39.6187 10.7042 39.8775 10.7872 40.1896 10.7872 C 40.4195 10.7872 40.6216 10.7413 40.7965 10.6483 C 40.9706 10.5554 41.1146 10.4213 41.2265 10.2464 C 41.3385 10.0723 41.4266 9.8592 41.4907 9.6083 C 41.5556 9.3572 41.5877 9.0181 41.5877 8.5932 C 41.5877 8.0892 41.5355 7.6813 41.4326 7.3712 C 41.3297 7.0603 41.1746 6.8213 40.9686 6.6532 C 40.7636 6.4851 40.5037 6.4012 40.1896 6.4012 C 39.7766 6.4012 39.4515 6.5483 39.2156 6.8431 C 38.9324 7.2031 38.7916 7.7862 38.7916 8.5932 Z M 39.3316 8.5912 C 39.3316 7.8843 39.4135 7.4143 39.5785 7.1821 C 39.7437 6.9491 39.9475 6.8332 40.1896 6.8332 C 40.4317 6.8332 40.6355 6.9503 40.8005 7.1833 C 40.9657 7.4171 41.0477 7.8863 41.0477 8.5912 C 41.0477 9.2982 40.9657 9.7682 40.8005 10.0003 C 40.6366 10.2334 40.4306 10.3493 40.1837 10.3493 C 39.9416 10.3493 39.7477 10.2464 39.6026 10.0412 C 39.4217 9.7804 39.3316 9.2962 39.3316 8.5912 Z M 42.4225 6.4732 L 42.4225 7.0733 L 43.0226 7.0733 L 43.0226 6.4732 Z Z M 43.7956 8.5932 C 43.7956 9.1003 43.8474 9.5102 43.9515 9.8203 C 44.0566 10.1313 44.2117 10.3703 44.4175 10.5372 C 44.6227 10.7042 44.8815 10.7872 45.1936 10.7872 C 45.4235 10.7872 45.6256 10.7413 45.8005 10.6483 C 45.9746 10.5554 46.1186 10.4213 46.2305 10.2464 C 46.3425 10.0723 46.4306 9.8592 46.4947 9.6083 C 46.5596 9.3572 46.5917 9.0181 46.5917 8.5932 C 46.5917 8.0892 46.5395 7.6813 46.4366 7.3712 C 46.3337 7.0603 46.1786 6.8213 45.9726 6.6532 C 45.7676 6.4851 45.5077 6.4012 45.1936 6.4012 C 44.7806 6.4012 44.4555 6.5483 44.2196 6.8431 C 43.9364 7.2031 43.7956 7.7862 43.7956 8.5932 Z M 44.3356 8.5912 C 44.3356 7.8843 44.4175 7.4143 44.5825 7.1821 C 44.7477 6.9491 44.9515 6.8332 45.1936 6.8332 C 45.4357 6.8332 45.6395 6.9503 45.8045 7.1833 C 45.9697 7.4171 46.0517 7.8863 46.0517 8.5912 C 46.0517 9.2982 45.9697 9.7682 45.8045 10.0003 C 45.6406 10.2334 45.4346 10.3493 45.1877 10.3493 C 44.9456 10.3493 44.7517 10.2464 44.6066 10.0412 C 44.4257 9.7804 44.3356 9.2962 44.3356 8.5912 Z M 47.1325 8.5932 C 47.1325 9.1003 47.1844 9.5102 47.2884 9.8203 C 47.3936 10.1313 47.5486 10.3703 47.7544 10.5372 C 47.9597 10.7042 48.2185 10.7872 48.5306 10.7872 C 48.7604 10.7872 48.9626 10.7413 49.1374 10.6483 C 49.3115 10.5554 49.4555 10.4213 49.5675 10.2464 C 49.6794 10.0723 49.7676 9.8592 49.8317 9.6083 C 49.8966 9.3572 49.9286 9.0181 49.9286 8.5932 C 49.9286 8.0892 49.8764 7.6813 49.7735 7.3712 C 49.6706 7.0603 49.5156 6.8213 49.3095 6.6532 C 49.1046 6.4851 48.8446 6.4012 48.5306 6.4012 C 48.1175 6.4012 47.7924 6.5483 47.5566 6.8431 C 47.2734 7.2031 47.1325 7.7862 47.1325 8.5932 Z M 47.6725 8.5912 C 47.6725 7.8843 47.7544 7.4143 47.9194 7.1821 C 48.0847 6.9491 48.2885 6.8332 48.5306 6.8332 C 48.7726 6.8332 48.9764 6.9503 49.1414 7.1833 C 49.3067 7.4171 49.3886 7.8863 49.3886 8.5912 C 49.3886 9.2982 49.3067 9.7682 49.1414 10.0003 C 48.9776 10.2334 48.7715 10.3493 48.5246 10.3493 C 48.2825 10.3493 48.0886 10.2464 47.9435 10.0412 C 47.7626 9.7804 47.6725 9.2962 47.6725 8.5912 Z M 52.2805 6.4732 L 52.2805 9.5873 L 52.7545 9.5873 L 52.7545 9.1471 C 52.8514 9.2993 52.9815 9.4224 53.1437 9.5142 C 53.3055 9.6072 53.4895 9.6534 53.6964 9.6534 C 53.9266 9.6534 54.1157 9.6052 54.2625 9.5102 C 54.4096 9.4141 54.5136 9.2812 54.5734 9.1091 C 54.8215 9.4723 55.1426 9.6534 55.5386 9.6534 C 55.8485 9.6534 56.0874 9.5683 56.2535 9.3971 C 56.4205 9.2262 56.5047 8.9631 56.5047 8.6083 L 56.5047 6.4732 L 55.9766 6.4732 L 55.9766 8.4334 C 55.9766 8.6431 55.9585 8.7953 55.9244 8.8883 C 55.8904 8.9813 55.8286 9.0553 55.7376 9.1123 C 55.6475 9.1692 55.5415 9.1973 55.4204 9.1973 C 55.2005 9.1973 55.0185 9.1242 54.8736 8.9793 C 54.7285 8.8333 54.6565 8.6003 54.6565 8.2803 L 54.6565 6.4732 L 54.1284 6.4732 L 54.1284 8.4943 C 54.1284 8.7282 54.0856 8.9042 53.9994 9.0213 C 53.9135 9.1383 53.7727 9.1973 53.5776 9.1973 C 53.4297 9.1973 53.2925 9.1582 53.1666 9.0802 C 53.0405 9.0023 52.9495 8.8883 52.8925 8.7372 C 52.8364 8.5873 52.8086 8.3701 52.8086 8.0872 L 52.8086 6.4732 Z Z M 57.2786 6.4732 L 57.2786 9.5873 L 57.7525 9.5873 L 57.7525 9.1471 C 57.8494 9.2993 57.9796 9.4224 58.1417 9.5142 C 58.3036 9.6072 58.4875 9.6534 58.6945 9.6534 C 58.9246 9.6534 59.1137 9.6052 59.2605 9.5102 C 59.4077 9.4141 59.5117 9.2812 59.5715 9.1091 C 59.8195 9.4723 60.1407 9.6534 60.5367 9.6534 C 60.8465 9.6534 61.0855 9.5683 61.2516 9.3971 C 61.4186 9.2262 61.5027 8.9631 61.5027 8.6083 L 61.5027 6.4732 L 60.9746 6.4732 L 60.9746 8.4334 C 60.9746 8.6431 60.9565 8.7953 60.9225 8.8883 C 60.8885 8.9813 60.8267 9.0553 60.7357 9.1123 C 60.6455 9.1692 60.5395 9.1973 60.4185 9.1973 C 60.1985 9.1973 60.0165 9.1242 59.8717 8.9793 C 59.7266 8.8333 59.6546 8.6003 59.6546 8.2803 L 59.6546 6.4732 L 59.1265 6.4732 L 59.1265 8.4943 C 59.1265 8.7282 59.0837 8.9042 58.9975 9.0213 C 58.9116 9.1383 58.7707 9.1973 58.5757 9.1973 C 58.4277 9.1973 58.2905 9.1582 58.1647 9.0802 C 58.0385 9.0023 57.9475 8.8883 57.8906 8.7372 C 57.8344 8.5873 57.8066 8.3701 57.8066 8.0872 L 57.8066 6.4732 Z" fill="#0e2748" fill-opacity="1"></path><path d="M 161.6516 8.6301 L 161.6516 1.5435" fill="none" stroke="#0e2748" stroke-opacity="1" stroke-miterlimit="2.6131259298" stroke-linecap="butt" stroke-linejoin="miter" stroke-width="0.216px" stroke-dasharray="" stroke-dashoffset="0px"></path><path d="M 76.6123 8.6301 L 76.6123 1.5435" fill="none" stroke="#0e2748" stroke-opacity="1" stroke-miterlimit="2.6131259298" stroke-linecap="butt" stroke-linejoin="miter" stroke-width="0.216px" stroke-dasharray="" stroke-dashoffset="0px"></path><path d="M 134.238 8.6301 L 161.6516 8.6301" fill="none" stroke="#0e2748" stroke-opacity="1" stroke-miterlimit="22.9255856261" stroke-linecap="butt" stroke-linejoin="miter" stroke-width="0.216px" stroke-dasharray="" stroke-dashoffset="0px"></path><path d="M 158.9301 10.1662 L 161.6516 8.6644 L 158.9301 7.1646 Z" fill="#0e2748" fill-rule="evenodd" fill-opacity="1"></path></g><g transform=""><path d="M 76.6123 8.6301 L 104.5298 8.6301" fill="none" stroke="#0e2748" stroke-opacity="1" stroke-miterlimit="22.9255856261" stroke-linecap="butt" stroke-linejoin="miter" stroke-width="0.216px" stroke-dasharray="" stroke-dashoffset="0px"></path><path d="M 79.3338 10.1662 L 76.6123 8.6644 L 79.3338 7.1646 Z" fill="#0e2748" fill-rule="evenodd" fill-opacity="1"></path></g><g transform=""><path d="M 106.3599 7.6133 L 106.888 7.6853 C 106.9489 7.3851 107.051 7.1691 107.1958 7.0373 C 107.3409 6.9052 107.519 6.8391 107.7299 6.8391 C 107.9799 6.8391 108.1908 6.9253 108.3609 7.0971 C 108.5309 7.2692 108.616 7.4823 108.616 7.7363 C 108.616 7.9781 108.5369 8.1782 108.3779 8.3361 C 108.22 8.4932 108.019 8.5723 107.7738 8.5723 C 107.674 8.5723 107.5499 8.5521 107.4008 8.5133 L 107.46 8.9753 C 107.4949 8.9714 107.5238 8.9691 107.5448 8.9691 C 107.771 8.9691 107.9728 9.0283 108.1539 9.1451 C 108.3339 9.2622 108.4238 9.4422 108.4238 9.6851 C 108.4238 9.8782 108.358 10.0383 108.2268 10.1653 C 108.0958 10.2923 107.9269 10.3552 107.7199 10.3552 C 107.5139 10.3552 107.3429 10.2903 107.206 10.1602 C 107.0688 10.0304 106.9809 9.8354 106.9418 9.5751 L 106.414 9.6712 C 106.4789 10.0253 106.6249 10.3003 106.854 10.4953 C 107.0819 10.6903 107.367 10.7872 107.7069 10.7872 C 107.941 10.7872 108.157 10.7374 108.354 10.6362 C 108.5519 10.5364 108.703 10.3992 108.807 10.2263 C 108.9119 10.0522 108.9638 9.8683 108.9638 9.6732 C 108.9638 9.4881 108.9139 9.3203 108.815 9.1684 C 108.7149 9.0162 108.5669 8.8951 108.3719 8.8053 C 108.6259 8.7471 108.8229 8.6253 108.9638 8.4402 C 109.1038 8.2562 109.1738 8.0243 109.1738 7.7471 C 109.1738 7.3723 109.0369 7.0532 108.7639 6.7921 C 108.4898 6.5313 108.144 6.4012 107.7259 6.4012 C 107.3489 6.4012 107.0359 6.5143 106.7868 6.7391 C 106.5368 6.9642 106.3947 7.2553 106.3599 7.6133 Z M 109.6968 8.5932 C 109.6968 9.1003 109.7487 9.5102 109.8527 9.8203 C 109.9579 10.1313 110.1129 10.3703 110.3187 10.5372 C 110.524 10.7042 110.7828 10.7872 111.0949 10.7872 C 111.3248 10.7872 111.5269 10.7413 111.7018 10.6483 C 111.8758 10.5554 112.0198 10.4213 112.1318 10.2464 C 112.2437 10.0723 112.3319 9.8592 112.396 9.6083 C 112.4609 9.3572 112.4929 9.0181 112.4929 8.5932 C 112.4929 8.0892 112.4408 7.6813 112.3379 7.3712 C 112.235 7.0603 112.0799 6.8213 111.8738 6.6532 C 111.6689 6.4851 111.4089 6.4012 111.0949 6.4012 C 110.6819 6.4012 110.3567 6.5483 110.1209 6.8431 C 109.8377 7.2031 109.6968 7.7862 109.6968 8.5932 Z M 110.2368 8.5912 C 110.2368 7.8843 110.3187 7.4143 110.4837 7.1821 C 110.649 6.9491 110.8528 6.8332 111.0949 6.8332 C 111.3369 6.8332 111.5408 6.9503 111.7057 7.1833 C 111.871 7.4171 111.9529 7.8863 111.9529 8.5912 C 111.9529 9.2982 111.871 9.7682 111.7057 10.0003 C 111.5419 10.2334 111.3358 10.3493 111.0889 10.3493 C 110.8468 10.3493 110.6529 10.2464 110.5078 10.0412 C 110.327 9.7804 110.2368 9.2962 110.2368 8.5912 Z M 113.3277 6.4732 L 113.3277 7.0733 L 113.9278 7.0733 L 113.9278 6.4732 Z Z M 114.7008 8.5932 C 114.7008 9.1003 114.7527 9.5102 114.8567 9.8203 C 114.9619 10.1313 115.1169 10.3703 115.3227 10.5372 C 115.528 10.7042 115.7868 10.7872 116.0989 10.7872 C 116.3288 10.7872 116.5309 10.7413 116.7058 10.6483 C 116.8798 10.5554 117.0238 10.4213 117.1358 10.2464 C 117.2477 10.0723 117.3359 9.8592 117.4 9.6083 C 117.4649 9.3572 117.4969 9.0181 117.4969 8.5932 C 117.4969 8.0892 117.4448 7.6813 117.3419 7.3712 C 117.239 7.0603 117.0839 6.8213 116.8778 6.6532 C 116.6729 6.4851 116.4129 6.4012 116.0989 6.4012 C 115.6859 6.4012 115.3607 6.5483 115.1249 6.8431 C 114.8417 7.2031 114.7008 7.7862 114.7008 8.5932 Z M 115.2408 8.5912 C 115.2408 7.8843 115.3227 7.4143 115.4877 7.1821 C 115.653 6.9491 115.8568 6.8332 116.0989 6.8332 C 116.3409 6.8332 116.5448 6.9503 116.7097 7.1833 C 116.875 7.4171 116.9569 7.8863 116.9569 8.5912 C 116.9569 9.2982 116.875 9.7682 116.7097 10.0003 C 116.5459 10.2334 116.3398 10.3493 116.0929 10.3493 C 115.8508 10.3493 115.6569 10.2464 115.5118 10.0412 C 115.331 9.7804 115.2408 9.2962 115.2408 8.5912 Z M 118.0378 8.5932 C 118.0378 9.1003 118.0896 9.5102 118.1937 9.8203 C 118.2988 10.1313 118.4539 10.3703 118.6597 10.5372 C 118.8649 10.7042 119.1237 10.7872 119.4358 10.7872 C 119.6657 10.7872 119.8678 10.7413 120.0427 10.6483 C 120.2168 10.5554 120.3608 10.4213 120.4727 10.2464 C 120.5847 10.0723 120.6729 9.8592 120.7369 9.6083 C 120.8018 9.3572 120.8339 9.0181 120.8339 8.5932 C 120.8339 8.0892 120.7817 7.6813 120.6788 7.3712 C 120.5759 7.0603 120.4209 6.8213 120.2148 6.6532 C 120.0098 6.4851 119.7499 6.4012 119.4358 6.4012 C 119.0228 6.4012 118.6977 6.5483 118.4618 6.8431 C 118.1786 7.2031 118.0378 7.7862 118.0378 8.5932 Z M 118.5778 8.5912 C 118.5778 7.8843 118.6597 7.4143 118.8247 7.1821 C 118.9899 6.9491 119.1937 6.8332 119.4358 6.8332 C 119.6779 6.8332 119.8817 6.9503 120.0467 7.1833 C 120.2119 7.4171 120.2939 7.8863 120.2939 8.5912 C 120.2939 9.2982 120.2119 9.7682 120.0467 10.0003 C 119.8828 10.2334 119.6768 10.3493 119.4299 10.3493 C 119.1878 10.3493 118.9939 10.2464 118.8488 10.0412 C 118.6679 9.7804 118.5778 9.2962 118.5778 8.5912 Z M 123.1858 6.4732 L 123.1858 9.5873 L 123.6597 9.5873 L 123.6597 9.1471 C 123.7567 9.2993 123.8868 9.4224 124.0489 9.5142 C 124.2108 9.6072 124.3947 9.6534 124.6017 9.6534 C 124.8318 9.6534 125.0209 9.6052 125.1677 9.5102 C 125.3149 9.4141 125.4189 9.2812 125.4787 9.1091 C 125.7267 9.4723 126.0479 9.6534 126.4439 9.6534 C 126.7537 9.6534 126.9927 9.5683 127.1588 9.3971 C 127.3258 9.2262 127.41 8.9631 127.41 8.6083 L 127.41 6.4732 L 126.8819 6.4732 L 126.8819 8.4334 C 126.8819 8.6431 126.8637 8.7953 126.8297 8.8883 C 126.7957 8.9813 126.7339 9.0553 126.6429 9.1123 C 126.5528 9.1692 126.4467 9.1973 126.3257 9.1973 C 126.1057 9.1973 125.9237 9.1242 125.7789 8.9793 C 125.6338 8.8333 125.5618 8.6003 125.5618 8.2803 L 125.5618 6.4732 L 125.0337 6.4732 L 125.0337 8.4943 C 125.0337 8.7282 124.9909 8.9042 124.9047 9.0213 C 124.8188 9.1383 124.6779 9.1973 124.4829 9.1973 C 124.3349 9.1973 124.1977 9.1582 124.0719 9.0802 C 123.9457 9.0023 123.8547 8.8883 123.7978 8.7372 C 123.7416 8.5873 123.7139 8.3701 123.7139 8.0872 L 123.7139 6.4732 Z Z M 128.1838 6.4732 L 128.1838 9.5873 L 128.6578 9.5873 L 128.6578 9.1471 C 128.7547 9.2993 128.8848 9.4224 129.047 9.5142 C 129.2088 9.6072 129.3928 9.6534 129.5997 9.6534 C 129.8299 9.6534 130.019 9.6052 130.1658 9.5102 C 130.3129 9.4141 130.4169 9.2812 130.4768 9.1091 C 130.7248 9.4723 131.046 9.6534 131.442 9.6534 C 131.7518 9.6534 131.9907 9.5683 132.1569 9.3971 C 132.3238 9.2262 132.408 8.9631 132.408 8.6083 L 132.408 6.4732 L 131.8799 6.4732 L 131.8799 8.4334 C 131.8799 8.6431 131.8618 8.7953 131.8277 8.8883 C 131.7937 8.9813 131.7319 9.0553 131.6409 9.1123 C 131.5508 9.1692 131.4448 9.1973 131.3237 9.1973 C 131.1038 9.1973 130.9218 9.1242 130.7769 8.9793 C 130.6318 8.8333 130.5598 8.6003 130.5598 8.2803 L 130.5598 6.4732 L 130.0317 6.4732 L 130.0317 8.4943 C 130.0317 8.7282 129.9889 8.9042 129.9027 9.0213 C 129.8169 9.1383 129.676 9.1973 129.4809 9.1973 C 129.333 9.1973 129.1958 9.1582 129.0699 9.0802 C 128.9438 9.0023 128.8528 8.8883 128.7958 8.7372 C 128.7397 8.5873 128.7119 8.3701 128.7119 8.0872 L 128.7119 6.4732 Z" fill="#0e2748" fill-opacity="1"></path><path d="M 161.6516 8.6301 L 161.6516 1.5435" fill="none" stroke="#0e2748" stroke-opacity="1" stroke-miterlimit="2.6131259298" stroke-linecap="butt" stroke-linejoin="miter" stroke-width="0.216px" stroke-dasharray="" stroke-dashoffset="0px"></path><path d="M 331.7304 8.6301 L 331.7304 1.5435" fill="none" stroke="#0e2748" stroke-opacity="1" stroke-miterlimit="2.6131259298" stroke-linecap="butt" stroke-linejoin="miter" stroke-width="0.216px" stroke-dasharray="" stroke-dashoffset="0px"></path><path d="M 232.0529 8.6301 L 161.6516 8.6301" fill="none" stroke="#0e2748" stroke-opacity="1" stroke-miterlimit="22.9255856261" stroke-linecap="butt" stroke-linejoin="miter" stroke-width="0.216px" stroke-dasharray="" stroke-dashoffset="0px"></path><path d="M 164.3732 7.094 L 161.6516 8.5958 L 164.3732 10.0956 Z" fill="#0e2748" fill-rule="evenodd" fill-opacity="1"></path></g><g transform=""><path d="M 331.7304 8.6301 L 261.7852 8.6301" fill="none" stroke="#0e2748" stroke-opacity="1" stroke-miterlimit="22.9255856261" stroke-linecap="butt" stroke-linejoin="miter" stroke-width="0.216px" stroke-dasharray="" stroke-dashoffset="0px"></path><path d="M 329.0088 7.094 L 331.7304 8.5958 L 329.0088 10.0956 Z" fill="#0e2748" fill-rule="evenodd" fill-opacity="1"></path></g><g transform=""><path d="M 236.649 9.7191 L 236.1271 9.6772 C 236.0801 9.8841 236.0132 10.0352 235.9261 10.1293 C 235.783 10.2801 235.6061 10.3552 235.3961 10.3552 C 235.2271 10.3552 235.0772 10.3082 234.9479 10.2144 C 234.7821 10.0933 234.652 9.9173 234.555 9.6851 C 234.4589 9.4521 234.409 9.1213 234.4051 8.6922 C 234.5321 8.8852 234.688 9.0292 234.8719 9.1222 C 235.0559 9.2163 235.2481 9.2633 235.4499 9.2633 C 235.802 9.2633 236.1022 9.1332 236.3502 8.8741 C 236.5971 8.6153 236.721 8.2811 236.721 7.8701 C 236.721 7.6003 236.6631 7.3502 236.5469 7.1181 C 236.4301 6.8862 236.2711 6.7093 236.067 6.5863 C 235.8641 6.4633 235.633 6.4012 235.3751 6.4012 C 234.936 6.4012 234.5771 6.5633 234.2991 6.8862 C 234.0221 7.2091 233.8829 7.7423 233.8829 8.4841 C 233.8829 9.3144 234.0371 9.9181 234.3441 10.2951 C 234.612 10.6234 234.9731 10.7872 235.4281 10.7872 C 235.766 10.7872 236.0441 10.6923 236.2601 10.5032 C 236.4761 10.3141 236.6062 10.0534 236.649 9.7191 Z M 234.489 7.8653 C 234.489 7.6833 234.5281 7.5093 234.6049 7.3431 C 234.682 7.1773 234.79 7.0512 234.9269 6.9642 C 235.065 6.8771 235.211 6.8332 235.366 6.8332 C 235.5911 6.8332 235.783 6.9233 235.942 7.1033 C 236.101 7.2833 236.181 7.5271 236.181 7.8361 C 236.181 8.1332 236.1022 8.3673 235.9451 8.5382 C 235.7881 8.7092 235.588 8.7953 235.345 8.7953 C 235.1069 8.7953 234.904 8.7092 234.7381 8.5382 C 234.572 8.3673 234.489 8.1431 234.489 7.8653 Z M 237.244 8.5932 C 237.244 9.1003 237.2958 9.5102 237.3999 9.8203 C 237.505 10.1313 237.6601 10.3703 237.8659 10.5372 C 238.0711 10.7042 238.3299 10.7872 238.642 10.7872 C 238.8719 10.7872 239.074 10.7413 239.2489 10.6483 C 239.423 10.5554 239.567 10.4213 239.6789 10.2464 C 239.7909 10.0723 239.8791 9.8592 239.9431 9.6083 C 240.008 9.3572 240.0401 9.0181 240.0401 8.5932 C 240.0401 8.0892 239.9879 7.6813 239.885 7.3712 C 239.7821 7.0603 239.6271 6.8213 239.421 6.6532 C 239.216 6.4851 238.9561 6.4012 238.642 6.4012 C 238.229 6.4012 237.9039 6.5483 237.668 6.8431 C 237.3849 7.2031 237.244 7.7862 237.244 8.5932 Z M 237.784 8.5912 C 237.784 7.8843 237.8659 7.4143 238.0309 7.1821 C 238.1961 6.9491 238.3999 6.8332 238.642 6.8332 C 238.8841 6.8332 239.0879 6.9503 239.2529 7.1833 C 239.4181 7.4171 239.5001 7.8863 239.5001 8.5912 C 239.5001 9.2982 239.4181 9.7682 239.2529 10.0003 C 239.089 10.2334 238.883 10.3493 238.6361 10.3493 C 238.394 10.3493 238.2001 10.2464 238.055 10.0412 C 237.8741 9.7804 237.784 9.2962 237.784 8.5912 Z M 240.8749 6.4732 L 240.8749 7.0733 L 241.475 7.0733 L 241.475 6.4732 Z Z M 242.248 8.5932 C 242.248 9.1003 242.2998 9.5102 242.4039 9.8203 C 242.509 10.1313 242.6641 10.3703 242.8699 10.5372 C 243.0751 10.7042 243.3339 10.7872 243.646 10.7872 C 243.8759 10.7872 244.078 10.7413 244.2529 10.6483 C 244.427 10.5554 244.571 10.4213 244.6829 10.2464 C 244.7949 10.0723 244.8831 9.8592 244.9471 9.6083 C 245.012 9.3572 245.0441 9.0181 245.0441 8.5932 C 245.0441 8.0892 244.9919 7.6813 244.889 7.3712 C 244.7861 7.0603 244.6311 6.8213 244.425 6.6532 C 244.22 6.4851 243.9601 6.4012 243.646 6.4012 C 243.233 6.4012 242.9079 6.5483 242.672 6.8431 C 242.3889 7.2031 242.248 7.7862 242.248 8.5932 Z M 242.788 8.5912 C 242.788 7.8843 242.8699 7.4143 243.0349 7.1821 C 243.2001 6.9491 243.4039 6.8332 243.646 6.8332 C 243.8881 6.8332 244.0919 6.9503 244.2569 7.1833 C 244.4221 7.4171 244.5041 7.8863 244.5041 8.5912 C 244.5041 9.2982 244.4221 9.7682 244.2569 10.0003 C 244.093 10.2334 243.887 10.3493 243.6401 10.3493 C 243.398 10.3493 243.2041 10.2464 243.059 10.0412 C 242.8781 9.7804 242.788 9.2962 242.788 8.5912 Z M 245.5849 8.5932 C 245.5849 9.1003 245.6368 9.5102 245.7408 9.8203 C 245.846 10.1313 246.001 10.3703 246.2068 10.5372 C 246.4121 10.7042 246.6709 10.7872 246.983 10.7872 C 247.2129 10.7872 247.415 10.7413 247.5899 10.6483 C 247.7639 10.5554 247.9079 10.4213 248.0199 10.2464 C 248.1318 10.0723 248.22 9.8592 248.2841 9.6083 C 248.349 9.3572 248.381 9.0181 248.381 8.5932 C 248.381 8.0892 248.3289 7.6813 248.226 7.3712 C 248.1231 7.0603 247.968 6.8213 247.7619 6.6532 C 247.557 6.4851 247.297 6.4012 246.983 6.4012 C 246.57 6.4012 246.2448 6.5483 246.009 6.8431 C 245.7258 7.2031 245.5849 7.7862 245.5849 8.5932 Z M 246.1249 8.5912 C 246.1249 7.8843 246.2068 7.4143 246.3718 7.1821 C 246.5371 6.9491 246.7409 6.8332 246.983 6.8332 C 247.225 6.8332 247.4289 6.9503 247.5938 7.1833 C 247.7591 7.4171 247.841 7.8863 247.841 8.5912 C 247.841 9.2982 247.7591 9.7682 247.5938 10.0003 C 247.43 10.2334 247.2239 10.3493 246.977 10.3493 C 246.7349 10.3493 246.541 10.2464 246.3959 10.0412 C 246.2151 9.7804 246.1249 9.2962 246.1249 8.5912 Z M 250.7329 6.4732 L 250.7329 9.5873 L 251.2069 9.5873 L 251.2069 9.1471 C 251.3038 9.2993 251.4339 9.4224 251.5961 9.5142 C 251.7579 9.6072 251.9419 9.6534 252.1488 9.6534 C 252.379 9.6534 252.5681 9.6052 252.7149 9.5102 C 252.862 9.4141 252.966 9.2812 253.0259 9.1091 C 253.2739 9.4723 253.5951 9.6534 253.9911 9.6534 C 254.3009 9.6534 254.5398 9.5683 254.706 9.3971 C 254.8729 9.2262 254.9571 8.9631 254.9571 8.6083 L 254.9571 6.4732 L 254.429 6.4732 L 254.429 8.4334 C 254.429 8.6431 254.4109 8.7953 254.3769 8.8883 C 254.3428 8.9813 254.281 9.0553 254.19 9.1123 C 254.0999 9.1692 253.9939 9.1973 253.8729 9.1973 C 253.6529 9.1973 253.4709 9.1242 253.326 8.9793 C 253.1809 8.8333 253.1089 8.6003 253.1089 8.2803 L 253.1089 6.4732 L 252.5808 6.4732 L 252.5808 8.4943 C 252.5808 8.7282 252.538 8.9042 252.4518 9.0213 C 252.366 9.1383 252.2251 9.1973 252.03 9.1973 C 251.8821 9.1973 251.7449 9.1582 251.619 9.0802 C 251.4929 9.0023 251.4019 8.8883 251.3449 8.7372 C 251.2888 8.5873 251.261 8.3701 251.261 8.0872 L 251.261 6.4732 Z Z M 255.731 6.4732 L 255.731 9.5873 L 256.2049 9.5873 L 256.2049 9.1471 C 256.3019 9.2993 256.432 9.4224 256.5941 9.5142 C 256.756 9.6072 256.9399 9.6534 257.1469 9.6534 C 257.377 9.6534 257.5661 9.6052 257.7129 9.5102 C 257.8601 9.4141 257.9641 9.2812 258.0239 9.1091 C 258.2719 9.4723 258.5931 9.6534 258.9891 9.6534 C 259.2989 9.6534 259.5379 9.5683 259.704 9.3971 C 259.871 9.2262 259.9551 8.9631 259.9551 8.6083 L 259.9551 6.4732 L 259.4271 6.4732 L 259.4271 8.4334 C 259.4271 8.6431 259.4089 8.7953 259.3749 8.8883 C 259.3409 8.9813 259.2791 9.0553 259.1881 9.1123 C 259.098 9.1692 258.9919 9.1973 258.8709 9.1973 C 258.6509 9.1973 258.4689 9.1242 258.3241 8.9793 C 258.179 8.8333 258.107 8.6003 258.107 8.2803 L 258.107 6.4732 L 257.5789 6.4732 L 257.5789 8.4943 C 257.5789 8.7282 257.5361 8.9042 257.4499 9.0213 C 257.364 9.1383 257.2231 9.1973 257.0281 9.1973 C 256.8801 9.1973 256.7429 9.1582 256.6171 9.0802 C 256.4909 9.0023 256.3999 8.8883 256.343 8.7372 C 256.2868 8.5873 256.2591 8.3701 256.2591 8.0872 L 256.2591 6.4732 Z" fill="#0e2748" fill-opacity="1"></path><path d="M 331.7304 8.6301 L 331.7304 1.5435" fill="none" stroke="#0e2748" stroke-opacity="1" stroke-miterlimit="2.6131259298" stroke-linecap="butt" stroke-linejoin="miter" stroke-width="0.216px" stroke-dasharray="" stroke-dashoffset="0px"></path><path d="M 416.7697 8.6301 L 416.7697 1.5435" fill="none" stroke="#0e2748" stroke-opacity="1" stroke-miterlimit="2.6131259298" stroke-linecap="butt" stroke-linejoin="miter" stroke-width="0.216px" stroke-dasharray="" stroke-dashoffset="0px"></path><path d="M 359.6479 8.6301 L 331.7304 8.6301" fill="none" stroke="#0e2748" stroke-opacity="1" stroke-miterlimit="22.9255856261" stroke-linecap="butt" stroke-linejoin="miter" stroke-width="0.216px" stroke-dasharray="" stroke-dashoffset="0px"></path><path d="M 334.4519 7.094 L 331.7304 8.5958 L 334.4519 10.0956 Z" fill="#0e2748" fill-rule="evenodd" fill-opacity="1"></path></g><g transform=""><path d="M 416.7697 8.6301 L 389.3562 8.6301" fill="none" stroke="#0e2748" stroke-opacity="1" stroke-miterlimit="22.9255856261" stroke-linecap="butt" stroke-linejoin="miter" stroke-width="0.216px" stroke-dasharray="" stroke-dashoffset="0px"></path><path d="M 414.0482 7.094 L 416.7697 8.5958 L 414.0482 10.0956 Z" fill="#0e2748" fill-rule="evenodd" fill-opacity="1"></path></g><g transform=""><path d="M 361.478 7.6133 L 362.0061 7.6853 C 362.067 7.3851 362.1691 7.1691 362.3139 7.0373 C 362.4591 6.9052 362.6371 6.8391 362.848 6.8391 C 363.098 6.8391 363.3089 6.9253 363.479 7.0971 C 363.649 7.2692 363.7341 7.4823 363.7341 7.7363 C 363.7341 7.9781 363.655 8.1782 363.496 8.3361 C 363.3381 8.4932 363.1371 8.5723 362.8919 8.5723 C 362.7921 8.5723 362.668 8.5521 362.5189 8.5133 L 362.5781 8.9753 C 362.613 8.9714 362.6419 8.9691 362.6629 8.9691 C 362.8891 8.9691 363.0909 9.0283 363.272 9.1451 C 363.452 9.2622 363.5419 9.4422 363.5419 9.6851 C 363.5419 9.8782 363.4761 10.0383 363.3449 10.1653 C 363.2139 10.2923 363.045 10.3552 362.838 10.3552 C 362.632 10.3552 362.461 10.2903 362.3241 10.1602 C 362.1869 10.0304 362.0991 9.8354 362.0599 9.5751 L 361.5321 9.6712 C 361.597 10.0253 361.743 10.3003 361.9721 10.4953 C 362.2 10.6903 362.4851 10.7872 362.825 10.7872 C 363.0591 10.7872 363.2751 10.7374 363.4722 10.6362 C 363.67 10.5364 363.8211 10.3992 363.9251 10.2263 C 364.03 10.0522 364.0819 9.8683 364.0819 9.6732 C 364.0819 9.4881 364.032 9.3203 363.9331 9.1684 C 363.833 9.0162 363.685 8.8951 363.49 8.8053 C 363.744 8.7471 363.941 8.6253 364.0819 8.4402 C 364.2219 8.2562 364.2919 8.0243 364.2919 7.7471 C 364.2919 7.3723 364.155 7.0532 363.882 6.7921 C 363.6079 6.5313 363.2621 6.4012 362.844 6.4012 C 362.467 6.4012 362.154 6.5143 361.9049 6.7391 C 361.6549 6.9642 361.5129 7.2553 361.478 7.6133 Z M 364.8149 8.5932 C 364.8149 9.1003 364.8668 9.5102 364.9708 9.8203 C 365.076 10.1313 365.2311 10.3703 365.4369 10.5372 C 365.6421 10.7042 365.9009 10.7872 366.213 10.7872 C 366.4429 10.7872 366.645 10.7413 366.8199 10.6483 C 366.9939 10.5554 367.1379 10.4213 367.2499 10.2464 C 367.3619 10.0723 367.45 9.8592 367.5141 9.6083 C 367.579 9.3572 367.611 9.0181 367.611 8.5932 C 367.611 8.0892 367.5589 7.6813 367.456 7.3712 C 367.3531 7.0603 367.198 6.8213 366.9919 6.6532 C 366.787 6.4851 366.5271 6.4012 366.213 6.4012 C 365.8 6.4012 365.4748 6.5483 365.239 6.8431 C 364.9558 7.2031 364.8149 7.7862 364.8149 8.5932 Z M 365.3549 8.5912 C 365.3549 7.8843 365.4369 7.4143 365.6018 7.1821 C 365.7671 6.9491 365.9709 6.8332 366.213 6.8332 C 366.4551 6.8332 366.6589 6.9503 366.8238 7.1833 C 366.9891 7.4171 367.071 7.8863 367.071 8.5912 C 367.071 9.2982 366.9891 9.7682 366.8238 10.0003 C 366.66 10.2334 366.4539 10.3493 366.207 10.3493 C 365.9649 10.3493 365.7711 10.2464 365.6259 10.0412 C 365.4451 9.7804 365.3549 9.2962 365.3549 8.5912 Z M 368.4458 6.4732 L 368.4458 7.0733 L 369.0459 7.0733 L 369.0459 6.4732 Z Z M 369.8189 8.5932 C 369.8189 9.1003 369.8708 9.5102 369.9748 9.8203 C 370.08 10.1313 370.2351 10.3703 370.4409 10.5372 C 370.6461 10.7042 370.9049 10.7872 371.217 10.7872 C 371.4469 10.7872 371.649 10.7413 371.8239 10.6483 C 371.9979 10.5554 372.1419 10.4213 372.2539 10.2464 C 372.3659 10.0723 372.454 9.8592 372.5181 9.6083 C 372.583 9.3572 372.615 9.0181 372.615 8.5932 C 372.615 8.0892 372.5629 7.6813 372.46 7.3712 C 372.3571 7.0603 372.202 6.8213 371.9959 6.6532 C 371.791 6.4851 371.5311 6.4012 371.217 6.4012 C 370.804 6.4012 370.4788 6.5483 370.243 6.8431 C 369.9598 7.2031 369.8189 7.7862 369.8189 8.5932 Z M 370.3589 8.5912 C 370.3589 7.8843 370.4409 7.4143 370.6058 7.1821 C 370.7711 6.9491 370.9749 6.8332 371.217 6.8332 C 371.4591 6.8332 371.6629 6.9503 371.8278 7.1833 C 371.9931 7.4171 372.075 7.8863 372.075 8.5912 C 372.075 9.2982 371.9931 9.7682 371.8278 10.0003 C 371.664 10.2334 371.4579 10.3493 371.211 10.3493 C 370.9689 10.3493 370.7751 10.2464 370.6299 10.0412 C 370.4491 9.7804 370.3589 9.2962 370.3589 8.5912 Z M 373.1559 8.5932 C 373.1559 9.1003 373.2077 9.5102 373.3118 9.8203 C 373.4169 10.1313 373.572 10.3703 373.7778 10.5372 C 373.983 10.7042 374.2418 10.7872 374.5539 10.7872 C 374.7838 10.7872 374.9859 10.7413 375.1608 10.6483 C 375.3349 10.5554 375.4789 10.4213 375.5908 10.2464 C 375.7028 10.0723 375.791 9.8592 375.855 9.6083 C 375.9199 9.3572 375.952 9.0181 375.952 8.5932 C 375.952 8.0892 375.8998 7.6813 375.7969 7.3712 C 375.694 7.0603 375.539 6.8213 375.3329 6.6532 C 375.1279 6.4851 374.868 6.4012 374.5539 6.4012 C 374.1409 6.4012 373.8158 6.5483 373.5799 6.8431 C 373.2968 7.2031 373.1559 7.7862 373.1559 8.5932 Z M 373.6959 8.5912 C 373.6959 7.8843 373.7778 7.4143 373.9428 7.1821 C 374.108 6.9491 374.3118 6.8332 374.5539 6.8332 C 374.796 6.8332 374.9998 6.9503 375.1648 7.1833 C 375.33 7.4171 375.412 7.8863 375.412 8.5912 C 375.412 9.2982 375.33 9.7682 375.1648 10.0003 C 375.0009 10.2334 374.7949 10.3493 374.548 10.3493 C 374.3059 10.3493 374.112 10.2464 373.9669 10.0412 C 373.786 9.7804 373.6959 9.2962 373.6959 8.5912 Z M 378.3039 6.4732 L 378.3039 9.5873 L 378.7778 9.5873 L 378.7778 9.1471 C 378.8748 9.2993 379.0049 9.4224 379.167 9.5142 C 379.3289 9.6072 379.5129 9.6534 379.7198 9.6534 C 379.95 9.6534 380.139 9.6052 380.2859 9.5102 C 380.433 9.4141 380.537 9.2812 380.5968 9.1091 C 380.8449 9.4723 381.166 9.6534 381.562 9.6534 C 381.8718 9.6534 382.1108 9.5683 382.2769 9.3971 C 382.4439 9.2262 382.5281 8.9631 382.5281 8.6083 L 382.5281 6.4732 L 382 6.4732 L 382 8.4334 C 382 8.6431 381.9818 8.7953 381.9478 8.8883 C 381.9138 8.9813 381.852 9.0553 381.761 9.1123 C 381.6709 9.1692 381.5649 9.1973 381.4438 9.1973 C 381.2238 9.1973 381.0419 9.1242 380.897 8.9793 C 380.7519 8.8333 380.6799 8.6003 380.6799 8.2803 L 380.6799 6.4732 L 380.1518 6.4732 L 380.1518 8.4943 C 380.1518 8.7282 380.109 8.9042 380.0228 9.0213 C 379.9369 9.1383 379.796 9.1973 379.601 9.1973 C 379.453 9.1973 379.3158 9.1582 379.19 9.0802 C 379.0638 9.0023 378.9729 8.8883 378.9159 8.7372 C 378.8597 8.5873 378.832 8.3701 378.832 8.0872 L 378.832 6.4732 Z Z M 383.3019 6.4732 L 383.3019 9.5873 L 383.7759 9.5873 L 383.7759 9.1471 C 383.8728 9.2993 384.0029 9.4224 384.1651 9.5142 C 384.3269 9.6072 384.5109 9.6534 384.7178 9.6534 C 384.948 9.6534 385.1371 9.6052 385.2839 9.5102 C 385.431 9.4141 385.5351 9.2812 385.5949 9.1091 C 385.8429 9.4723 386.1641 9.6534 386.5601 9.6534 C 386.8699 9.6534 387.1089 9.5683 387.275 9.3971 C 387.4419 9.2262 387.5261 8.9631 387.5261 8.6083 L 387.5261 6.4732 L 386.998 6.4732 L 386.998 8.4334 C 386.998 8.6431 386.9799 8.7953 386.9459 8.8883 C 386.9118 8.9813 386.85 9.0553 386.7591 9.1123 C 386.6689 9.1692 386.5629 9.1973 386.4419 9.1973 C 386.2219 9.1973 386.0399 9.1242 385.8951 8.9793 C 385.7499 8.8333 385.6779 8.6003 385.6779 8.2803 L 385.6779 6.4732 L 385.1498 6.4732 L 385.1498 8.4943 C 385.1498 8.7282 385.107 8.9042 385.0209 9.0213 C 384.935 9.1383 384.7941 9.1973 384.5991 9.1973 C 384.4511 9.1973 384.3139 9.1582 384.188 9.0802 C 384.0619 9.0023 383.9709 8.8883 383.9139 8.7372 C 383.8578 8.5873 383.83 8.3701 383.83 8.0872 L 383.83 6.4732 Z" fill="#0e2748" fill-opacity="1"></path><path d="M 416.7697 8.6301 L 416.7697 1.5435" fill="none" stroke="#0e2748" stroke-opacity="1" stroke-miterlimit="2.6131259298" stroke-linecap="butt" stroke-linejoin="miter" stroke-width="0.216px" stroke-dasharray="" stroke-dashoffset="0px"></path><path d="M 473.4626 8.6301 L 473.4626 1.5435" fill="none" stroke="#0e2748" stroke-opacity="1" stroke-miterlimit="2.6131259298" stroke-linecap="butt" stroke-linejoin="miter" stroke-width="0.216px" stroke-dasharray="" stroke-dashoffset="0px"></path><path d="M 430.3964 8.6301 L 416.7697 8.6301" fill="none" stroke="#0e2748" stroke-opacity="1" stroke-miterlimit="22.9255856261" stroke-linecap="butt" stroke-linejoin="miter" stroke-width="0.216px" stroke-dasharray="" stroke-dashoffset="0px"></path><path d="M 419.4913 7.094 L 416.7697 8.5958 L 419.4913 10.0956 Z" fill="#0e2748" fill-rule="evenodd" fill-opacity="1"></path></g><g transform=""><path d="M 473.4626 8.6301 L 460.1832 8.6301" fill="none" stroke="#0e2748" stroke-opacity="1" stroke-miterlimit="22.9255856261" stroke-linecap="butt" stroke-linejoin="miter" stroke-width="0.216px" stroke-dasharray="" stroke-dashoffset="0px"></path><path d="M 470.7411 7.094 L 473.4626 8.5958 L 470.7411 10.0956 Z" fill="#0e2748" fill-rule="evenodd" fill-opacity="1"></path></g><g transform=""><path d="M 435.0711 6.9772 L 435.0711 6.4732 L 432.2271 6.4732 C 432.2231 6.6002 432.2441 6.7221 432.2891 6.8403 C 432.362 7.0333 432.4791 7.2241 432.6401 7.4112 C 432.8011 7.5983 433.031 7.8143 433.33 8.0592 C 433.7949 8.4421 434.111 8.7452 434.2759 8.9691 C 434.442 9.1933 434.5251 9.4054 434.5251 9.6052 C 434.5251 9.8141 434.45 9.9901 434.3 10.1341 C 434.1501 10.2773 433.9539 10.3493 433.713 10.3493 C 433.4581 10.3493 433.254 10.2733 433.101 10.1214 C 432.9479 9.9703 432.8711 9.7603 432.8691 9.4912 L 432.3291 9.5454 C 432.366 9.9493 432.506 10.2572 432.7481 10.4692 C 432.991 10.6812 433.3161 10.7872 433.7252 10.7872 C 434.137 10.7872 434.4642 10.6733 434.704 10.4443 C 434.9449 10.2152 435.0651 9.9312 435.0651 9.5933 C 435.0651 9.4212 435.03 9.2523 434.9591 9.0862 C 434.8891 8.9192 434.772 8.7443 434.609 8.5603 C 434.4452 8.3772 434.1742 8.1241 433.796 7.8043 C 433.4791 7.5382 433.275 7.3582 433.1852 7.2632 C 433.095 7.1683 433.021 7.0733 432.9621 6.9772 Z Z M 435.642 8.5932 C 435.642 9.1003 435.6938 9.5102 435.7979 9.8203 C 435.903 10.1313 436.0581 10.3703 436.2639 10.5372 C 436.4691 10.7042 436.7279 10.7872 437.04 10.7872 C 437.2699 10.7872 437.472 10.7413 437.6469 10.6483 C 437.8209 10.5554 437.9649 10.4213 438.0769 10.2464 C 438.1889 10.0723 438.277 9.8592 438.3411 9.6083 C 438.406 9.3572 438.438 9.0181 438.438 8.5932 C 438.438 8.0892 438.3859 7.6813 438.283 7.3712 C 438.1801 7.0603 438.025 6.8213 437.819 6.6532 C 437.614 6.4851 437.3541 6.4012 437.04 6.4012 C 436.627 6.4012 436.3019 6.5483 436.066 6.8431 C 435.7828 7.2031 435.642 7.7862 435.642 8.5932 Z M 436.182 8.5912 C 436.182 7.8843 436.2639 7.4143 436.4289 7.1821 C 436.5941 6.9491 436.7979 6.8332 437.04 6.8332 C 437.2821 6.8332 437.4859 6.9503 437.6509 7.1833 C 437.8161 7.4171 437.898 7.8863 437.898 8.5912 C 437.898 9.2982 437.8161 9.7682 437.6509 10.0003 C 437.487 10.2334 437.2809 10.3493 437.034 10.3493 C 436.792 10.3493 436.5981 10.2464 436.4529 10.0412 C 436.2721 9.7804 436.182 9.2962 436.182 8.5912 Z M 439.2729 6.4732 L 439.2729 7.0733 L 439.8729 7.0733 L 439.8729 6.4732 Z Z M 440.646 8.5932 C 440.646 9.1003 440.6978 9.5102 440.8019 9.8203 C 440.907 10.1313 441.0621 10.3703 441.2679 10.5372 C 441.4731 10.7042 441.7319 10.7872 442.044 10.7872 C 442.2739 10.7872 442.476 10.7413 442.6509 10.6483 C 442.8249 10.5554 442.9689 10.4213 443.0809 10.2464 C 443.1929 10.0723 443.281 9.8592 443.3451 9.6083 C 443.41 9.3572 443.442 9.0181 443.442 8.5932 C 443.442 8.0892 443.3899 7.6813 443.287 7.3712 C 443.1841 7.0603 443.029 6.8213 442.823 6.6532 C 442.618 6.4851 442.3581 6.4012 442.044 6.4012 C 441.631 6.4012 441.3059 6.5483 441.07 6.8431 C 440.7868 7.2031 440.646 7.7862 440.646 8.5932 Z M 441.186 8.5912 C 441.186 7.8843 441.2679 7.4143 441.4329 7.1821 C 441.5981 6.9491 441.8019 6.8332 442.044 6.8332 C 442.2861 6.8332 442.4899 6.9503 442.6549 7.1833 C 442.8201 7.4171 442.902 7.8863 442.902 8.5912 C 442.902 9.2982 442.8201 9.7682 442.6549 10.0003 C 442.491 10.2334 442.2849 10.3493 442.038 10.3493 C 441.796 10.3493 441.6021 10.2464 441.4569 10.0412 C 441.2761 9.7804 441.186 9.2962 441.186 8.5912 Z M 443.9829 8.5932 C 443.9829 9.1003 444.0348 9.5102 444.1388 9.8203 C 444.244 10.1313 444.399 10.3703 444.6048 10.5372 C 444.81 10.7042 445.0689 10.7872 445.3809 10.7872 C 445.6108 10.7872 445.8129 10.7413 445.9878 10.6483 C 446.1619 10.5554 446.3059 10.4213 446.4179 10.2464 C 446.5298 10.0723 446.618 9.8592 446.682 9.6083 C 446.747 9.3572 446.779 9.0181 446.779 8.5932 C 446.779 8.0892 446.7268 7.6813 446.6239 7.3712 C 446.521 7.0603 446.366 6.8213 446.1599 6.6532 C 445.955 6.4851 445.695 6.4012 445.3809 6.4012 C 444.9679 6.4012 444.6428 6.5483 444.407 6.8431 C 444.1238 7.2031 443.9829 7.7862 443.9829 8.5932 Z M 444.5229 8.5912 C 444.5229 7.8843 444.6048 7.4143 444.7698 7.1821 C 444.9351 6.9491 445.1389 6.8332 445.3809 6.8332 C 445.623 6.8332 445.8268 6.9503 445.9918 7.1833 C 446.1571 7.4171 446.239 7.8863 446.239 8.5912 C 446.239 9.2982 446.1571 9.7682 445.9918 10.0003 C 445.828 10.2334 445.6219 10.3493 445.375 10.3493 C 445.1329 10.3493 444.939 10.2464 444.7939 10.0412 C 444.613 9.7804 444.5229 9.2962 444.5229 8.5912 Z M 449.1309 6.4732 L 449.1309 9.5873 L 449.6049 9.5873 L 449.6049 9.1471 C 449.7018 9.2993 449.8319 9.4224 449.994 9.5142 C 450.1559 9.6072 450.3399 9.6534 450.5468 9.6534 C 450.777 9.6534 450.966 9.6052 451.1129 9.5102 C 451.26 9.4141 451.364 9.2812 451.4238 9.1091 C 451.6719 9.4723 451.993 9.6534 452.389 9.6534 C 452.6989 9.6534 452.9378 9.5683 453.1039 9.3971 C 453.2709 9.2262 453.3551 8.9631 453.3551 8.6083 L 453.3551 6.4732 L 452.827 6.4732 L 452.827 8.4334 C 452.827 8.6431 452.8089 8.7953 452.7748 8.8883 C 452.7408 8.9813 452.679 9.0553 452.588 9.1123 C 452.4979 9.1692 452.3919 9.1973 452.2708 9.1973 C 452.0509 9.1973 451.8689 9.1242 451.724 8.9793 C 451.5789 8.8333 451.5069 8.6003 451.5069 8.2803 L 451.5069 6.4732 L 450.9788 6.4732 L 450.9788 8.4943 C 450.9788 8.7282 450.936 8.9042 450.8498 9.0213 C 450.7639 9.1383 450.6231 9.1973 450.428 9.1973 C 450.2801 9.1973 450.1429 9.1582 450.017 9.0802 C 449.8909 9.0023 449.7999 8.8883 449.7429 8.7372 C 449.6868 8.5873 449.659 8.3701 449.659 8.0872 L 449.659 6.4732 Z Z M 454.1289 6.4732 L 454.1289 9.5873 L 454.6029 9.5873 L 454.6029 9.1471 C 454.6998 9.2993 454.83 9.4224 454.9921 9.5142 C 455.154 9.6072 455.3379 9.6534 455.5449 9.6534 C 455.775 9.6534 455.9641 9.6052 456.1109 9.5102 C 456.258 9.4141 456.3621 9.2812 456.4219 9.1091 C 456.6699 9.4723 456.9911 9.6534 457.3871 9.6534 C 457.6969 9.6534 457.9359 9.5683 458.102 9.3971 C 458.2689 9.2262 458.3531 8.9631 458.3531 8.6083 L 458.3531 6.4732 L 457.825 6.4732 L 457.825 8.4334 C 457.825 8.6431 457.8069 8.7953 457.7729 8.8883 C 457.7389 8.9813 457.6771 9.0553 457.5861 9.1123 C 457.4959 9.1692 457.3899 9.1973 457.2689 9.1973 C 457.0489 9.1973 456.8669 9.1242 456.7221 8.9793 C 456.5769 8.8333 456.5049 8.6003 456.5049 8.2803 L 456.5049 6.4732 L 455.9769 6.4732 L 455.9769 8.4943 C 455.9769 8.7282 455.934 8.9042 455.8479 9.0213 C 455.762 9.1383 455.6211 9.1973 455.4261 9.1973 C 455.2781 9.1973 455.1409 9.1582 455.0151 9.0802 C 454.8889 9.0023 454.7979 8.8883 454.7409 8.7372 C 454.6848 8.5873 454.657 8.3701 454.657 8.0872 L 454.657 6.4732 Z" fill="#0e2748" fill-opacity="1"></path><path d="M 19.9193 464.4995 L 76.6123 464.4995 L 76.6123 436.153 L 19.9193 436.153 Z" fill="#2c2e35" fill-rule="evenodd" fill-opacity="1"></path><path d="M 416.7697 464.4995 L 473.4626 464.4995 L 473.4626 436.153 L 416.7697 436.153 Z" fill="#2c2e35" fill-rule="evenodd" fill-opacity="1"></path><path d="M 19.9193 42.9877 L 76.6123 42.9877 L 76.6123 14.6412 L 19.9193 14.6412 Z" fill="#2c2e35" fill-rule="evenodd" fill-opacity="1"></path><path d="M 416.7697 42.9877 L 473.4626 42.9877 L 473.4626 14.6412 L 416.7697 14.6412 Z" fill="#2c2e35" fill-rule="evenodd" fill-opacity="1"></path></g></g></svg>