<?xml version="1.0"?><svg xmlns="http://www.w3.org/2000/svg" version="1.1" width="317.4803px" height="198.4252px" preserveAspectRatio="none" viewBox="0 0 317.4803 198.4252"><defs></defs><g transform="matrix(1 0 0 -1 0 198.4252)"><g transform=""><path d="M 154.05 186.2453 L 152.8869 186.2453 L 152.8869 193.6511 C 152.6071 193.3824 152.2392 193.1156 151.7854 192.8492 C 151.3315 192.5827 150.9219 192.3823 150.5608 192.2499 L 150.5608 193.3733 C 151.2105 193.6774 151.7788 194.0474 152.2655 194.4836 C 152.7523 194.9176 153.0984 195.3383 153.3008 195.7479 L 154.05 195.7479 Z Z M 164.3893 190.9151 C 164.3893 192.0319 164.5038 192.9351 164.7332 193.6179 C 164.9642 194.3031 165.3058 194.8294 165.7596 195.1974 C 166.2111 195.565 166.7815 195.7479 167.4689 195.7479 C 167.9754 195.7479 168.4205 195.6467 168.806 195.4417 C 169.1892 195.2371 169.5064 194.9417 169.753 194.5562 C 169.9999 194.1729 170.1935 193.7038 170.3347 193.1511 C 170.4779 192.598 170.5484 191.8514 170.5484 190.9151 C 170.5484 189.805 170.4336 188.9062 170.2069 188.2233 C 169.9801 187.5382 169.6385 187.0118 169.1847 186.6419 C 168.7331 186.2717 168.1605 186.0866 167.4689 186.0866 C 166.5592 186.0866 165.8432 186.4106 165.3233 187.0603 C 164.7 187.8534 164.3893 189.1375 164.3893 190.9151 Z M 165.579 190.9108 C 165.579 189.3535 165.7596 188.318 166.123 187.8072 C 166.4864 187.2938 166.9357 187.0384 167.4689 187.0384 C 168.0018 187.0384 168.4514 187.2961 168.8148 187.8092 C 169.1782 188.3248 169.3587 189.3577 169.3587 190.9108 C 169.3587 192.4682 169.1782 193.5034 168.8148 194.0145 C 168.4534 194.5276 167.9998 194.7832 167.4556 194.7832 C 166.9226 194.7832 166.4952 194.5562 166.1757 194.1046 C 165.7772 193.5298 165.579 192.4637 165.579 190.9108 Z M 175.8481 186.2453 L 175.8481 195.7085 L 177.7249 195.7085 L 179.9629 189.0096 C 180.1698 188.3863 180.3197 187.9194 180.4144 187.6088 C 180.5224 187.9523 180.6919 188.4591 180.921 189.1264 L 183.1986 195.7085 L 184.875 195.7085 L 184.875 186.2453 L 183.6723 186.2453 L 183.6723 194.1619 L 180.9099 186.2453 L 179.7823 186.2453 L 177.0508 194.3073 L 177.0508 186.2453 Z Z M 186.8576 186.2453 L 186.8576 195.7085 L 188.7344 195.7085 L 190.9723 189.0096 C 191.1793 188.3863 191.3292 187.9194 191.4239 187.6088 C 191.5319 187.9523 191.7014 188.4591 191.9305 189.1264 L 194.2081 195.7085 L 195.8845 195.7085 L 195.8845 186.2453 L 194.6818 186.2453 L 194.6818 194.1619 L 191.9194 186.2453 L 190.7918 186.2453 L 188.0603 194.3073 L 188.0603 186.2453 Z Z M 157.0388 190.9151 C 157.0388 192.0319 157.1533 192.9351 157.3826 193.6179 C 157.6137 194.3031 157.9552 194.8294 158.4091 195.1974 C 158.8606 195.565 159.431 195.7479 160.1184 195.7479 C 160.6249 195.7479 161.07 195.6467 161.4555 195.4417 C 161.8387 195.2371 162.1559 194.9417 162.4025 194.5562 C 162.6494 194.1729 162.843 193.7038 162.9842 193.1511 C 163.1273 192.598 163.1979 191.8514 163.1979 190.9151 C 163.1979 189.805 163.0831 188.9062 162.8563 188.2233 C 162.6296 187.5382 162.288 187.0118 161.8342 186.6419 C 161.3826 186.2717 160.81 186.0866 160.1184 186.0866 C 159.2087 186.0866 158.4927 186.4106 157.9728 187.0603 C 157.3495 187.8534 157.0388 189.1375 157.0388 190.9151 Z M 158.2285 190.9108 C 158.2285 189.3535 158.4091 188.318 158.7725 187.8072 C 159.1359 187.2938 159.5852 187.0384 160.1184 187.0384 C 160.6513 187.0384 161.1009 187.2961 161.4643 187.8092 C 161.8277 188.3248 162.0082 189.3577 162.0082 190.9108 C 162.0082 192.4682 161.8277 193.5034 161.4643 194.0145 C 161.1028 194.5276 160.6493 194.7832 160.105 194.7832 C 159.5721 194.7832 159.1447 194.5562 158.8252 194.1046 C 158.4266 193.5298 158.2285 192.4637 158.2285 190.9108" fill="#2c2e35" fill-opacity="1"></path><path d="M 18.4867 182.2623 L 25.5427 185.2863 L 25.5427 185.2863 L 25.4511 185.0973 L 25.3655 184.9085 L 25.2859 184.7194 L 25.2119 184.5303 L 25.1442 184.3413 L 25.0821 184.1525 L 25.026 183.9634 L 24.9758 183.7743 L 24.9313 183.5853 L 24.893 183.3965 L 24.8604 183.2074 L 24.834 183.0183 L 24.8134 182.8293 L 24.7986 182.6405 L 24.7895 182.4514 L 24.7867 182.2623 L 24.7895 182.0733 L 24.7986 181.8845 L 24.8134 181.6954 L 24.834 181.5063 L 24.8604 181.3173 L 24.893 181.1285 L 24.9313 180.9394 L 24.9758 180.7503 L 25.026 180.5613 L 25.0821 180.3725 L 25.1442 180.1834 L 25.2119 179.9943 L 25.2859 179.8053 L 25.3655 179.6165 L 25.4511 179.4274 L 25.5427 179.2383 Z Z M 311.0213 182.0222 L 22.0329 182.0222 L 22.0329 182.5024 L 311.0213 182.5024 Z Z M 314.5674 182.2623 L 307.5114 179.2383 L 307.603 179.4274 L 307.6886 179.6162 L 307.7683 179.8053 L 307.8422 179.9943 L 307.91 180.1834 L 307.9721 180.3722 L 308.0282 180.5613 L 308.0784 180.7503 L 308.1229 180.9394 L 308.1611 181.1282 L 308.1937 181.3173 L 308.2201 181.5063 L 308.2408 181.6954 L 308.2555 181.8842 L 308.2646 182.0733 L 308.2674 182.2623 L 308.2646 182.4514 L 308.2555 182.6405 L 308.2408 182.8293 L 308.2201 183.0183 L 308.1937 183.2074 L 308.1611 183.3965 L 308.1229 183.5853 L 308.0784 183.7743 L 308.0282 183.9634 L 307.9721 184.1525 L 307.91 184.3413 L 307.8422 184.5303 L 307.7683 184.7194 L 307.6886 184.9085 L 307.603 185.0973 L 307.5114 185.2863 L 307.5114 185.2863 Z" fill="#2c2e35" fill-opacity="1"></path></g><g transform=""><path d="M 6.0296 74.1722 L 5.9391 75.2165 C 6.137 75.2468 6.2943 75.3344 6.4106 75.4807 C 6.5262 75.6278 6.5837 75.7967 6.5837 75.9886 C 6.5837 76.2072 6.5092 76.3926 6.3592 76.5437 C 6.2096 76.695 5.9839 76.771 5.6829 76.771 C 5.3997 76.771 5.1883 76.6962 5.0468 76.5451 C 4.9054 76.3951 4.8351 76.1995 4.8351 75.9583 C 4.8351 75.6573 4.9459 75.3866 5.167 75.1479 L 5.0649 74.3017 L 2.6909 74.8352 L 2.6909 77.6018 L 3.5076 77.6018 L 3.5076 75.6292 L 4.2851 75.4639 C 4.1885 75.6964 4.1394 75.9353 4.1394 76.1791 C 4.1394 76.644 4.2809 77.038 4.5652 77.3606 C 4.8481 77.6843 5.216 77.8459 5.669 77.8459 C 6.0466 77.8459 6.3828 77.7149 6.6796 77.4544 C 7.0838 77.099 7.2859 76.606 7.2859 75.9759 C 7.2859 75.4716 7.1719 75.06 6.9454 74.7425 C 6.7178 74.4236 6.4137 74.2346 6.0296 74.1722 Z M 7.2028 82.8558 L 6.3283 82.8558 L 6.3283 83.8998 L 7.2028 83.8998 Z Z M 3.5014 84.7522 L 2.6909 84.7522 L 2.6909 88.3344 L 3.3293 88.3344 C 3.5728 88.0384 3.9217 87.7385 4.377 87.4327 C 4.8319 87.1277 5.3158 86.8941 5.8286 86.7339 C 6.3411 86.5738 6.7997 86.495 7.2028 86.4975 L 7.2028 85.4915 C 6.5701 85.5094 5.9244 85.6644 5.2659 85.9578 C 4.6086 86.2526 4.0192 86.6438 3.5014 87.1353 Z Z M 7.2028 91.3297 L 2.6334 91.3297 L 2.6334 92.9849 L 5.7501 93.9628 L 2.6334 94.9297 L 2.6334 96.5886 L 7.2028 96.5886 L 7.2028 95.5672 L 3.6057 95.5636 L 7.2028 94.4875 L 7.2028 93.4257 L 3.6057 92.3547 L 7.2028 92.3511 Z Z M 7.2028 97.6785 L 2.6334 97.6785 L 2.6334 99.3336 L 5.7501 100.3116 L 2.6334 101.2785 L 2.6334 102.9373 L 7.2028 102.9373 L 7.2028 101.916 L 3.6057 101.9123 L 7.2028 100.8363 L 7.2028 99.7744 L 3.6057 98.7035 L 7.2028 98.6998 Z Z M 3.5014 78.3958 L 2.6909 78.3958 L 2.6909 81.978 L 3.3293 81.978 C 3.5728 81.682 3.9217 81.3821 4.377 81.0763 C 4.8319 80.7712 5.3158 80.5377 5.8286 80.3775 C 6.3411 80.2174 6.7997 80.1386 7.2028 80.1411 L 7.2028 79.1351 C 6.5701 79.1529 5.9244 79.308 5.2659 79.6014 C 4.6086 79.8962 4.0192 80.2874 3.5014 80.7789 Z" fill="#2c2e35" fill-opacity="1"></path><path d="M 11.5792 2.3825 L 8.5552 9.4385 L 8.5552 9.4385 L 8.7443 9.347 L 8.9331 9.2614 L 9.1222 9.1817 L 9.3112 9.1077 L 9.5003 9.04 L 9.6891 8.9779 L 9.8782 8.9218 L 10.0672 8.8716 L 10.2563 8.8271 L 10.4451 8.7888 L 10.6342 8.7562 L 10.8232 8.7299 L 11.0123 8.7092 L 11.2011 8.6944 L 11.3902 8.6854 L 11.5792 8.6825 L 11.7683 8.6854 L 11.9571 8.6944 L 12.1462 8.7092 L 12.3352 8.7299 L 12.5243 8.7562 L 12.7131 8.7888 L 12.9022 8.8271 L 13.0912 8.8716 L 13.2803 8.9218 L 13.4691 8.9779 L 13.6582 9.04 L 13.8472 9.1077 L 14.0363 9.1817 L 14.2251 9.2614 L 14.4142 9.347 L 14.6032 9.4385 Z Z M 11.8193 168.855 L 11.8193 5.9287 L 11.3391 5.9287 L 11.3391 168.855 Z Z M 11.5792 172.4012 L 14.6032 165.3452 L 14.4142 165.4367 L 14.2251 165.5223 L 14.0363 165.602 L 13.8472 165.676 L 13.6582 165.7437 L 13.4691 165.8058 L 13.2803 165.8619 L 13.0912 165.9121 L 12.9022 165.9566 L 12.7131 165.9949 L 12.5243 166.0275 L 12.3352 166.0538 L 12.1462 166.0745 L 11.9571 166.0893 L 11.7683 166.0983 L 11.5792 166.1012 L 11.3902 166.0983 L 11.2011 166.0893 L 11.0123 166.0745 L 10.8232 166.0538 L 10.6342 166.0275 L 10.4451 165.9949 L 10.2563 165.9566 L 10.0672 165.9121 L 9.8782 165.8619 L 9.6891 165.8058 L 9.5003 165.7437 L 9.3112 165.676 L 9.1222 165.602 L 8.9331 165.5223 L 8.7443 165.4367 L 8.5552 165.3452 L 8.5552 165.3452 Z" fill="#2c2e35" fill-opacity="1"></path></g><g transform=""><path d="M 24.7949 168.7615 L 308.2592 168.7615 L 308.2592 5.2024 L 24.7949 5.2024 ZZ" fill="#ffffff" fill-rule="evenodd" stroke="#2c2e35" stroke-opacity="1" stroke-miterlimit="22.9255856261" stroke-linecap="butt" stroke-linejoin="miter" stroke-width="0.4799px" stroke-dasharray="" stroke-dashoffset="0px" fill-opacity="1"></path><path d="M 24.7949 168.7612 L 38.9682 168.7612 L 38.9682 154.588 L 24.7949 154.588 Z" fill="#2c2e35" fill-rule="evenodd" fill-opacity="1"></path><path d="M 294.0863 168.7612 L 308.2595 168.7612 L 308.2595 154.588 L 294.0863 154.588 Z" fill="#2c2e35" fill-rule="evenodd" fill-opacity="1"></path><path d="M 24.7949 19.3757 L 38.9682 19.3757 L 38.9682 5.2027 L 24.7949 5.2027 Z" fill="#2c2e35" fill-rule="evenodd" fill-opacity="1"></path><path d="M 152.3537 19.3757 L 180.6999 19.3757 L 180.6999 5.2027 L 152.3537 5.2027 Z" fill="#2c2e35" fill-rule="evenodd" fill-opacity="1"></path><path d="M 294.0863 19.3757 L 308.2595 19.3757 L 308.2595 5.2027 L 294.0863 5.2027 Z" fill="#2c2e35" fill-rule="evenodd" fill-opacity="1"></path><path d="M 152.354 168.7612 L 180.7002 168.7612 L 180.7002 154.588 L 152.354 154.588 Z" fill="#2c2e35" fill-rule="evenodd" fill-opacity="1"></path><path d="M 24.7949 168.7615 L 166.5269 168.7615 L 166.5269 5.2024 L 24.7949 5.2024 ZZ" fill="none" stroke="#2c2e35" stroke-opacity="1" stroke-miterlimit="22.9255856261" stroke-linecap="butt" stroke-linejoin="miter" stroke-width="0.4799px" stroke-dasharray="" stroke-dashoffset="0px"></path></g></g></svg>