<?xml version="1.0"?><svg xmlns="http://www.w3.org/2000/svg" version="1.1" width="362.8346px" height="629.2913px" preserveAspectRatio="none" viewBox="0 0 362.8346 629.2913"><defs></defs><g transform="matrix(1 0 0 -1 0 629.2913)"><g transform=""><path d="M 361.0502 607.3866 L 361.0502 628.5044" fill="none" stroke="#2173ab" stroke-opacity="1" stroke-miterlimit="22.9255856261" stroke-linecap="butt" stroke-linejoin="miter" stroke-width="0.216px" stroke-dasharray="" stroke-dashoffset="0px"></path><path d="M 219.318 607.3866 L 219.318 628.5044" fill="none" stroke="#2173ab" stroke-opacity="1" stroke-miterlimit="22.9255856261" stroke-linecap="butt" stroke-linejoin="miter" stroke-width="0.216px" stroke-dasharray="" stroke-dashoffset="0px"></path><path d="M 320.3963 621.4178 L 361.0502 621.4178" fill="none" stroke="#2173ab" stroke-opacity="1" stroke-miterlimit="22.9255856261" stroke-linecap="butt" stroke-linejoin="miter" stroke-width="0.216px" stroke-dasharray="" stroke-dashoffset="0px"></path><path d="M 350.4682 618.5823 L 361.0502 621.4178 L 350.4682 624.2533 Z" fill="#2173ab" fill-rule="evenodd" fill-opacity="1"></path></g><g transform=""><path d="M 219.318 621.4178 L 260.9802 621.4178" fill="none" stroke="#2173ab" stroke-opacity="1" stroke-miterlimit="22.9255856261" stroke-linecap="butt" stroke-linejoin="miter" stroke-width="0.216px" stroke-dasharray="" stroke-dashoffset="0px"></path><path d="M 229.9 618.5823 L 219.318 621.4178 L 229.9 624.2533 Z" fill="#2173ab" fill-rule="evenodd" fill-opacity="1"></path></g><g transform=""><path d="M 264.6405 619.3602 L 265.7446 619.4441 C 265.8266 618.906 266.0165 618.5021 266.3124 618.23 C 266.6086 617.9601 266.9706 617.8241 267.3964 617.8241 C 267.9106 617.8241 268.3406 618.016 268.6904 618.3981 C 269.0385 618.7822 269.2125 619.2901 269.2125 619.922 C 269.2125 620.5241 269.0464 620.998 268.7125 621.3461 C 268.3786 621.6939 267.9364 621.868 267.3865 621.868 C 267.0446 621.868 266.7385 621.79 266.4666 621.6341 C 266.1965 621.4779 265.9844 621.2761 265.8285 621.0281 L 264.8324 621.1721 L 265.6604 625.5879 L 269.9206 625.5879 L 269.9206 624.5799 L 266.5026 624.5799 L 266.0445 622.262 C 266.5585 622.624 267.0985 622.804 267.6626 622.804 C 268.4106 622.804 269.0425 622.544 269.5564 622.0242 C 270.0706 621.504 270.3285 620.8362 270.3285 620.0201 C 270.3285 619.242 270.1026 618.5701 269.6505 618.0041 C 269.1006 617.3082 268.3485 616.9601 267.3964 616.9601 C 266.6166 616.9601 265.9805 617.18 265.4864 617.618 C 264.9926 618.0559 264.7106 618.6362 264.6405 619.3602 Z M 271.3144 621.3441 C 271.3144 622.3581 271.4185 623.1781 271.6265 623.7981 C 271.8363 624.42 272.1464 624.8979 272.5586 625.2321 C 272.9684 625.566 273.4863 625.7319 274.1105 625.7319 C 274.5703 625.7319 274.9745 625.64 275.3243 625.4541 C 275.6724 625.2681 275.9604 625 276.1843 624.6499 C 276.4083 624.3021 276.5843 623.876 276.7124 623.374 C 276.8423 622.872 276.9063 622.194 276.9063 621.3441 C 276.9063 620.3361 276.8023 619.52 276.5965 618.9001 C 276.3904 618.2782 276.0803 617.8 275.6684 617.4641 C 275.2583 617.1282 274.7384 616.9601 274.1105 616.9601 C 273.2845 616.9601 272.6345 617.254 272.1626 617.8442 C 271.5965 618.5642 271.3144 619.7301 271.3144 621.3441 Z M 272.3944 621.3402 C 272.3944 619.926 272.5586 618.986 272.8885 618.522 C 273.2185 618.0559 273.6264 617.8241 274.1105 617.8241 C 274.5944 617.8241 275.0023 618.0579 275.3323 618.5239 C 275.6625 618.9919 275.8263 619.9299 275.8263 621.3402 C 275.8263 622.7541 275.6625 623.694 275.3323 624.1581 C 275.0043 624.6241 274.5924 624.856 274.0983 624.856 C 273.6145 624.856 273.2264 624.6499 272.9364 624.24 C 272.5744 623.7181 272.3944 622.7501 272.3944 621.3402 Z M 278.5762 617.1041 L 278.5762 618.304 L 279.7764 618.304 L 279.7764 617.1041 Z Z M 281.3224 621.3441 C 281.3224 622.3581 281.4265 623.1781 281.6345 623.7981 C 281.8443 624.42 282.1544 624.8979 282.5666 625.2321 C 282.9764 625.566 283.4943 625.7319 284.1185 625.7319 C 284.5783 625.7319 284.9825 625.64 285.3323 625.4541 C 285.6804 625.2681 285.9684 625 286.1923 624.6499 C 286.4163 624.3021 286.5923 623.876 286.7204 623.374 C 286.8503 622.872 286.9143 622.194 286.9143 621.3441 C 286.9143 620.3361 286.8103 619.52 286.6045 618.9001 C 286.3984 618.2782 286.0883 617.8 285.6764 617.4641 C 285.2663 617.1282 284.7464 616.9601 284.1185 616.9601 C 283.2925 616.9601 282.6425 617.254 282.1706 617.8442 C 281.6045 618.5642 281.3224 619.7301 281.3224 621.3441 Z M 282.4024 621.3402 C 282.4024 619.926 282.5666 618.986 282.8965 618.522 C 283.2265 618.0559 283.6344 617.8241 284.1185 617.8241 C 284.6024 617.8241 285.0103 618.0579 285.3403 618.5239 C 285.6705 618.9919 285.8343 619.9299 285.8343 621.3402 C 285.8343 622.7541 285.6705 623.694 285.3403 624.1581 C 285.0123 624.6241 284.6004 624.856 284.1063 624.856 C 283.6225 624.856 283.2344 624.6499 282.9444 624.24 C 282.5824 623.7181 282.4024 622.7501 282.4024 621.3402 Z M 287.9963 621.3441 C 287.9963 622.3581 288.1003 623.1781 288.3084 623.7981 C 288.5182 624.42 288.8283 624.8979 289.2404 625.2321 C 289.6503 625.566 290.1682 625.7319 290.7924 625.7319 C 291.2522 625.7319 291.6564 625.64 292.0062 625.4541 C 292.3543 625.2681 292.6423 625 292.8662 624.6499 C 293.0902 624.3021 293.2662 623.876 293.3943 623.374 C 293.5242 622.872 293.5882 622.194 293.5882 621.3441 C 293.5882 620.3361 293.4842 619.52 293.2784 618.9001 C 293.0723 618.2782 292.7622 617.8 292.3503 617.4641 C 291.9402 617.1282 291.4203 616.9601 290.7924 616.9601 C 289.9664 616.9601 289.3164 617.254 288.8444 617.8442 C 288.2784 618.5642 287.9963 619.7301 287.9963 621.3441 Z M 289.0763 621.3402 C 289.0763 619.926 289.2404 618.986 289.5704 618.522 C 289.9003 618.0559 290.3083 617.8241 290.7924 617.8241 C 291.2763 617.8241 291.6842 618.0579 292.0141 618.5239 C 292.3444 618.9919 292.5082 619.9299 292.5082 621.3402 C 292.5082 622.7541 292.3444 623.694 292.0141 624.1581 C 291.6862 624.6241 291.2743 624.856 290.7802 624.856 C 290.2963 624.856 289.9083 624.6499 289.6183 624.24 C 289.2563 623.7181 289.0763 622.7501 289.0763 621.3402 Z M 298.2923 617.1041 L 298.2923 623.3321 L 299.2402 623.3321 L 299.2402 622.4519 C 299.4344 622.7561 299.6943 623.0021 300.0183 623.1861 C 300.3423 623.372 300.7103 623.4639 301.1244 623.4639 C 301.5842 623.4639 301.9623 623.3681 302.2563 623.1781 C 302.5502 622.986 302.7583 622.7201 302.8782 622.3759 C 303.3743 623.1019 304.0163 623.4639 304.8083 623.4639 C 305.4283 623.4639 305.9062 623.2941 306.2381 622.9519 C 306.5723 622.6101 306.7401 622.084 306.7401 621.3739 L 306.7401 617.1041 L 305.6842 617.1041 L 305.6842 621.0241 C 305.6842 621.4439 305.6482 621.7481 305.5802 621.934 C 305.5122 622.12 305.3883 622.2679 305.2063 622.3819 C 305.0263 622.4961 304.8143 622.552 304.5722 622.552 C 304.1323 622.552 303.7683 622.406 303.4783 622.116 C 303.1883 621.824 303.0443 621.358 303.0443 620.718 L 303.0443 617.1041 L 301.9884 617.1041 L 301.9884 621.146 C 301.9884 621.614 301.9022 621.966 301.7302 622.1999 C 301.5584 622.434 301.2763 622.552 300.8863 622.552 C 300.5904 622.552 300.3163 622.474 300.0643 622.3181 C 299.8123 622.1619 299.6303 621.934 299.5163 621.6321 C 299.4043 621.3319 299.3482 620.898 299.3482 620.3322 L 299.3482 617.1041 Z Z M 308.2881 617.1041 L 308.2881 623.3321 L 309.236 623.3321 L 309.236 622.4519 C 309.4302 622.7561 309.6901 623.0021 310.0141 623.1861 C 310.3381 623.372 310.7061 623.4639 311.1202 623.4639 C 311.58 623.4639 311.9581 623.3681 312.2521 623.1781 C 312.546 622.986 312.7541 622.7201 312.874 622.3759 C 313.3701 623.1019 314.0121 623.4639 314.8041 623.4639 C 315.4241 623.4639 315.902 623.2941 316.2339 622.9519 C 316.5681 622.6101 316.7359 622.084 316.7359 621.3739 L 316.7359 617.1041 L 315.68 617.1041 L 315.68 621.0241 C 315.68 621.4439 315.644 621.7481 315.576 621.934 C 315.508 622.12 315.3841 622.2679 315.2021 622.3819 C 315.0221 622.4961 314.8101 622.552 314.568 622.552 C 314.1281 622.552 313.7641 622.406 313.4741 622.116 C 313.1841 621.824 313.0401 621.358 313.0401 620.718 L 313.0401 617.1041 L 311.9842 617.1041 L 311.9842 621.146 C 311.9842 621.614 311.898 621.966 311.726 622.1999 C 311.5542 622.434 311.2722 622.552 310.8821 622.552 C 310.5862 622.552 310.3121 622.474 310.0601 622.3181 C 309.8081 622.1619 309.6261 621.934 309.5121 621.6321 C 309.4002 621.3319 309.344 620.898 309.344 620.3322 L 309.344 617.1041 Z" fill="#2173ab" fill-opacity="1"></path><path d="M 212.2313 0.3189 L 165.5668 0.3189" fill="none" stroke="#2173ab" stroke-opacity="1" stroke-miterlimit="22.9255856261" stroke-linecap="butt" stroke-linejoin="miter" stroke-width="0.216px" stroke-dasharray="" stroke-dashoffset="0px"></path><path d="M 212.2313 600.3 L 165.5668 600.3" fill="none" stroke="#2173ab" stroke-opacity="1" stroke-miterlimit="22.9255856261" stroke-linecap="butt" stroke-linejoin="miter" stroke-width="0.216px" stroke-dasharray="" stroke-dashoffset="0px"></path><path d="M 172.6534 267.9778 L 172.6534 0.3189" fill="none" stroke="#2173ab" stroke-opacity="1" stroke-miterlimit="22.9255856261" stroke-linecap="butt" stroke-linejoin="miter" stroke-width="0.216px" stroke-dasharray="" stroke-dashoffset="0px"></path><path d="M 169.818 10.9009 L 172.6534 0.3189 L 175.4889 10.9009 Z" fill="#2173ab" fill-rule="evenodd" fill-opacity="1"></path></g><g transform=""><path d="M 172.6534 600.3 L 172.6534 333.3351" fill="none" stroke="#2173ab" stroke-opacity="1" stroke-miterlimit="22.9255856261" stroke-linecap="butt" stroke-linejoin="miter" stroke-width="0.216px" stroke-dasharray="" stroke-dashoffset="0px"></path><path d="M 169.818 589.718 L 172.6534 600.3 L 175.4889 589.718 Z" fill="#2173ab" fill-rule="evenodd" fill-opacity="1"></path></g><g transform=""><path d="M 175.9592 277.327 L 176.9672 277.327 L 176.9672 271.6393 C 176.7132 271.6311 176.4692 271.6733 176.2333 271.7631 C 175.8472 271.9091 175.4651 272.1433 175.0912 272.4653 C 174.7174 272.7873 174.2854 273.2471 173.7952 273.8452 C 173.0293 274.7752 172.4233 275.4071 171.9751 275.737 C 171.5272 276.0693 171.1032 276.2351 170.7032 276.2351 C 170.2854 276.2351 169.9333 276.0851 169.6453 275.7852 C 169.3593 275.485 169.2153 275.0933 169.2153 274.6111 C 169.2153 274.1012 169.3672 273.6933 169.6714 273.3871 C 169.9733 273.0813 170.3934 272.9271 170.9314 272.9231 L 170.8234 271.8431 C 170.0152 271.9171 169.3993 272.1971 168.9752 272.6813 C 168.5511 273.1671 168.3394 273.8171 168.3394 274.6352 C 168.3394 275.4592 168.5673 276.1132 169.0254 276.5931 C 169.4832 277.0753 170.0512 277.3151 170.7273 277.3151 C 171.0711 277.3151 171.4093 277.2451 171.7413 277.1031 C 172.0752 276.963 172.4253 276.7292 172.7932 276.4032 C 173.1591 276.0752 173.6651 275.5332 174.3052 274.7772 C 174.8373 274.1431 175.1973 273.7352 175.3872 273.5552 C 175.5771 273.3752 175.7673 273.2272 175.9592 273.109 Z Z M 176.9672 282.4291 L 176.9672 281.3732 L 170.2431 281.3732 C 170.4872 281.1192 170.7293 280.785 170.9714 280.3731 C 171.2132 279.9609 171.3951 279.589 171.5153 279.2611 L 170.4951 279.2611 C 170.2193 279.851 169.8831 280.3671 169.4871 280.8091 C 169.0931 281.251 168.7113 281.5651 168.3394 281.749 L 168.3394 282.4291 Z Z M 176.9672 288.2132 L 176.9672 287.1573 L 170.2431 287.1573 C 170.4872 286.9033 170.7293 286.5691 170.9714 286.1572 C 171.2132 285.745 171.3951 285.3731 171.5153 285.0452 L 170.4951 285.0452 C 170.2193 285.6351 169.8831 286.1512 169.4871 286.5932 C 169.0931 287.0351 168.7113 287.3492 168.3394 287.5331 L 168.3394 288.2132 Z Z M 176.9672 291.515 L 175.7673 291.515 L 175.7673 292.7151 L 176.9672 292.7151 Z Z M 170.4753 299.7451 L 170.5592 298.7011 C 170.1454 298.6072 169.8432 298.4732 169.6552 298.2991 C 169.3534 298.0131 169.2034 297.6591 169.2034 297.2392 C 169.2034 296.9011 169.2972 296.6012 169.4852 296.3432 C 169.7272 296.0113 170.0793 295.7511 170.5433 295.5572 C 171.0094 295.3653 171.6712 295.2652 172.5293 295.2573 C 172.1432 295.5112 171.8552 295.8231 171.6693 296.1913 C 171.4813 296.5592 171.3872 296.943 171.3872 297.3472 C 171.3872 298.0511 171.6471 298.6512 172.1653 299.1472 C 172.6832 299.641 173.3513 299.8891 174.1731 299.8891 C 174.7131 299.8891 175.2131 299.7731 175.6772 299.5413 C 176.1412 299.3071 176.4952 298.9891 176.7413 298.5812 C 176.9873 298.1752 177.1112 297.7132 177.1112 297.197 C 177.1112 296.3191 176.7872 295.6011 176.1412 295.0452 C 175.4952 294.4911 174.4294 294.2133 172.9451 294.2133 C 171.2852 294.2133 170.0773 294.5211 169.3233 295.1351 C 168.6674 295.6711 168.3394 296.3931 168.3394 297.303 C 168.3394 297.9791 168.5293 298.5352 168.9072 298.9672 C 169.2853 299.3992 169.8072 299.6592 170.4753 299.7451 Z M 174.1833 295.4251 C 174.5473 295.4251 174.8954 295.503 175.2273 295.6572 C 175.5592 295.8111 175.8112 296.0271 175.9853 296.3013 C 176.1593 296.5771 176.2472 296.869 176.2472 297.1791 C 176.2472 297.629 176.0672 298.0131 175.7072 298.3311 C 175.3472 298.6492 174.8594 298.8091 174.2411 298.8091 C 173.6473 298.8091 173.1793 298.6512 172.8371 298.3371 C 172.4953 298.023 172.3232 297.6231 172.3232 297.1372 C 172.3232 296.6613 172.4953 296.2551 172.8371 295.9231 C 173.1793 295.5912 173.6271 295.4251 174.1833 295.4251 Z M 170.4753 306.419 L 170.5592 305.375 C 170.1454 305.2811 169.8432 305.1471 169.6552 304.973 C 169.3534 304.687 169.2034 304.3329 169.2034 303.9131 C 169.2034 303.575 169.2972 303.2751 169.4852 303.0171 C 169.7272 302.6852 170.0793 302.4249 170.5433 302.2311 C 171.0094 302.0391 171.6712 301.9391 172.5293 301.9311 C 172.1432 302.1851 171.8552 302.4969 171.6693 302.8652 C 171.4813 303.2331 171.3872 303.6169 171.3872 304.0211 C 171.3872 304.725 171.6471 305.3251 172.1653 305.8211 C 172.6832 306.3149 173.3513 306.563 174.1731 306.563 C 174.7131 306.563 175.2131 306.447 175.6772 306.2151 C 176.1412 305.981 176.4952 305.663 176.7413 305.2551 C 176.9873 304.8491 177.1112 304.3871 177.1112 303.8709 C 177.1112 302.993 176.7872 302.275 176.1412 301.7191 C 175.4952 301.1649 174.4294 300.8871 172.9451 300.8871 C 171.2852 300.8871 170.0773 301.195 169.3233 301.809 C 168.6674 302.345 168.3394 303.067 168.3394 303.9769 C 168.3394 304.653 168.5293 305.2091 168.9072 305.6411 C 169.2853 306.0731 169.8072 306.3331 170.4753 306.419 Z M 174.1833 302.099 C 174.5473 302.099 174.8954 302.1769 175.2273 302.3311 C 175.5592 302.485 175.8112 302.701 175.9853 302.9751 C 176.1593 303.251 176.2472 303.5429 176.2472 303.853 C 176.2472 304.3029 176.0672 304.687 175.7072 305.005 C 175.3472 305.3231 174.8594 305.483 174.2411 305.483 C 173.6473 305.483 173.1793 305.3251 172.8371 305.011 C 172.4953 304.6969 172.3232 304.2969 172.3232 303.8111 C 172.3232 303.3351 172.4953 302.9289 172.8371 302.597 C 173.1793 302.2651 173.6271 302.099 174.1833 302.099 Z M 176.9672 311.2311 L 170.7392 311.2311 L 170.7392 312.179 L 171.6194 312.179 C 171.3152 312.3731 171.0692 312.6331 170.8852 312.9571 C 170.6992 313.2811 170.6074 313.649 170.6074 314.0631 C 170.6074 314.5229 170.7032 314.9011 170.8931 315.195 C 171.0853 315.489 171.3512 315.697 171.6953 315.8169 C 170.9694 316.313 170.6074 316.9551 170.6074 317.7471 C 170.6074 318.367 170.7772 318.8449 171.1193 319.1769 C 171.4612 319.5111 171.9873 319.6789 172.6974 319.6789 L 176.9672 319.6789 L 176.9672 318.623 L 173.0472 318.623 C 172.6274 318.623 172.3232 318.587 172.1373 318.5189 C 171.9513 318.4509 171.8033 318.327 171.6894 318.145 C 171.5751 317.965 171.5193 317.753 171.5193 317.5109 C 171.5193 317.071 171.6653 316.707 171.9553 316.417 C 172.2472 316.1271 172.7133 315.9831 173.3533 315.9831 L 176.9672 315.9831 L 176.9672 314.9271 L 172.9253 314.9271 C 172.4573 314.9271 172.1052 314.841 171.8714 314.6689 C 171.6372 314.4971 171.5193 314.2151 171.5193 313.825 C 171.5193 313.5291 171.5973 313.255 171.7532 313.003 C 171.9094 312.751 172.1373 312.569 172.4391 312.4551 C 172.7393 312.3431 173.1733 312.287 173.7391 312.287 L 176.9672 312.287 Z Z M 176.9672 321.2269 L 170.7392 321.2269 L 170.7392 322.1748 L 171.6194 322.1748 C 171.3152 322.3689 171.0692 322.6289 170.8852 322.9529 C 170.6992 323.2769 170.6074 323.6448 170.6074 324.059 C 170.6074 324.5187 170.7032 324.8969 170.8931 325.1908 C 171.0853 325.4848 171.3512 325.6929 171.6953 325.8128 C 170.9694 326.3088 170.6074 326.9509 170.6074 327.7429 C 170.6074 328.3628 170.7772 328.8407 171.1193 329.1727 C 171.4612 329.5069 171.9873 329.6747 172.6974 329.6747 L 176.9672 329.6747 L 176.9672 328.6188 L 173.0472 328.6188 C 172.6274 328.6188 172.3232 328.5828 172.1373 328.5147 C 171.9513 328.4467 171.8033 328.3228 171.6894 328.1409 C 171.5751 327.9609 171.5193 327.7488 171.5193 327.5067 C 171.5193 327.0668 171.6653 326.7028 171.9553 326.4129 C 172.2472 326.1229 172.7133 325.9789 173.3533 325.9789 L 176.9672 325.9789 L 176.9672 324.923 L 172.9253 324.923 C 172.4573 324.923 172.1052 324.8368 171.8714 324.6647 C 171.6372 324.4929 171.5193 324.2109 171.5193 323.8209 C 171.5193 323.5249 171.5973 323.2508 171.7532 322.9988 C 171.9094 322.7468 172.1373 322.5648 172.4391 322.4509 C 172.7393 322.3389 173.1733 322.2828 173.7391 322.2828 L 176.9672 322.2828 Z" fill="#2173ab" fill-opacity="1"></path><path d="M 219.318 600.3 L 361.0502 600.3 L 361.0502 0.3189 L 219.318 0.3189 ZZ" fill="#ffffff" fill-rule="evenodd" stroke="#2c2e35" stroke-opacity="1" stroke-miterlimit="22.9255856261" stroke-linecap="butt" stroke-linejoin="miter" stroke-width="0.5669px" stroke-dasharray="" stroke-dashoffset="0px" fill-opacity="1"></path><path d="M 33.7808 511.4163 L 147.1663 511.4163 L 147.1663 61.4163 L 33.7808 61.4163 ZZ" fill="#ffffff" fill-rule="evenodd" stroke="#2c2e35" stroke-opacity="1" stroke-miterlimit="22.9255856261" stroke-linecap="butt" stroke-linejoin="miter" stroke-width="0.5669px" stroke-dasharray="" stroke-dashoffset="0px" fill-opacity="1"></path><path d="M 147.1663 518.5029 L 147.1663 528.1004" fill="none" stroke="#2173ab" stroke-opacity="1" stroke-miterlimit="22.9255856261" stroke-linecap="butt" stroke-linejoin="miter" stroke-width="0.216px" stroke-dasharray="" stroke-dashoffset="0px"></path><path d="M 33.7808 518.5029 L 33.7808 528.1004" fill="none" stroke="#2173ab" stroke-opacity="1" stroke-miterlimit="22.9255856261" stroke-linecap="butt" stroke-linejoin="miter" stroke-width="0.216px" stroke-dasharray="" stroke-dashoffset="0px"></path><path d="M 120.5059 521.0138 L 147.1663 521.0138" fill="none" stroke="#2173ab" stroke-opacity="1" stroke-miterlimit="22.9255856261" stroke-linecap="butt" stroke-linejoin="miter" stroke-width="0.216px" stroke-dasharray="" stroke-dashoffset="0px"></path><path d="M 136.5843 518.1783 L 147.1663 521.0138 L 136.5843 523.8493 Z" fill="#2173ab" fill-rule="evenodd" fill-opacity="1"></path></g><g transform=""><path d="M 33.7808 521.0138 L 60.7297 521.0138" fill="none" stroke="#2173ab" stroke-opacity="1" stroke-miterlimit="22.9255856261" stroke-linecap="butt" stroke-linejoin="miter" stroke-width="0.216px" stroke-dasharray="" stroke-dashoffset="0px"></path><path d="M 44.3628 518.1783 L 33.7808 521.0138 L 44.3628 523.8493 Z" fill="#2173ab" fill-rule="evenodd" fill-opacity="1"></path></g><g transform=""><path d="M 68.1222 516.7001 L 68.1222 518.7521 L 64.3901 518.7521 L 64.3901 519.7241 L 68.3141 525.2919 L 69.1781 525.2919 L 69.1781 519.7241 L 70.342 519.7241 L 70.342 518.7521 L 69.1781 518.7521 L 69.1781 516.7001 Z Z M 68.1222 519.7241 L 68.1222 523.588 L 65.4282 519.7241 Z Z M 71.424 520.9401 C 71.424 521.9541 71.528 522.7741 71.7361 523.3941 C 71.9459 524.016 72.256 524.4939 72.6681 524.8281 C 73.078 525.162 73.5959 525.3279 74.2201 525.3279 C 74.6799 525.3279 75.0841 525.236 75.4339 525.0501 C 75.782 524.8641 76.07 524.596 76.2939 524.2459 C 76.5179 523.8981 76.6939 523.472 76.822 522.97 C 76.9518 522.468 77.0159 521.79 77.0159 520.9401 C 77.0159 519.9321 76.9119 519.116 76.7061 518.4961 C 76.5 517.8742 76.1899 517.396 75.778 517.0601 C 75.3678 516.7242 74.848 516.5561 74.2201 516.5561 C 73.3941 516.5561 72.7441 516.85 72.2721 517.4402 C 71.706 518.1602 71.424 519.3261 71.424 520.9401 Z M 72.504 520.9362 C 72.504 519.522 72.6681 518.582 72.9981 518.118 C 73.328 517.6519 73.7359 517.4201 74.2201 517.4201 C 74.704 517.4201 75.1119 517.6539 75.4418 518.1199 C 75.7721 518.5879 75.9359 519.5259 75.9359 520.9362 C 75.9359 522.3501 75.7721 523.29 75.4418 523.7541 C 75.1139 524.2201 74.702 524.452 74.2079 524.452 C 73.724 524.452 73.336 524.2459 73.046 523.836 C 72.684 523.3141 72.504 522.3461 72.504 520.9362 Z M 78.6858 516.7001 L 78.6858 517.9 L 79.886 517.9 L 79.886 516.7001 Z Z M 81.432 520.9401 C 81.432 521.9541 81.536 522.7741 81.7441 523.3941 C 81.9539 524.016 82.264 524.4939 82.6761 524.8281 C 83.086 525.162 83.6039 525.3279 84.2281 525.3279 C 84.6879 525.3279 85.0921 525.236 85.4419 525.0501 C 85.79 524.8641 86.078 524.596 86.3019 524.2459 C 86.5259 523.8981 86.7019 523.472 86.83 522.97 C 86.9598 522.468 87.0239 521.79 87.0239 520.9401 C 87.0239 519.9321 86.9199 519.116 86.7141 518.4961 C 86.508 517.8742 86.1979 517.396 85.786 517.0601 C 85.3758 516.7242 84.856 516.5561 84.2281 516.5561 C 83.4021 516.5561 82.7521 516.85 82.2801 517.4402 C 81.714 518.1602 81.432 519.3261 81.432 520.9401 Z M 82.512 520.9362 C 82.512 519.522 82.6761 518.582 83.0061 518.118 C 83.336 517.6519 83.7439 517.4201 84.2281 517.4201 C 84.712 517.4201 85.1199 517.6539 85.4498 518.1199 C 85.7801 518.5879 85.9439 519.5259 85.9439 520.9362 C 85.9439 522.3501 85.7801 523.29 85.4498 523.7541 C 85.1219 524.2201 84.71 524.452 84.2159 524.452 C 83.732 524.452 83.344 524.2459 83.054 523.836 C 82.692 523.3141 82.512 522.3461 82.512 520.9362 Z M 88.1059 520.9401 C 88.1059 521.9541 88.2099 522.7741 88.418 523.3941 C 88.6277 524.016 88.9379 524.4939 89.35 524.8281 C 89.7599 525.162 90.2778 525.3279 90.902 525.3279 C 91.3618 525.3279 91.766 525.236 92.1158 525.0501 C 92.4639 524.8641 92.7519 524.596 92.9758 524.2459 C 93.1997 523.8981 93.3758 523.472 93.5039 522.97 C 93.6337 522.468 93.6978 521.79 93.6978 520.9401 C 93.6978 519.9321 93.5938 519.116 93.388 518.4961 C 93.1819 517.8742 92.8718 517.396 92.4599 517.0601 C 92.0497 516.7242 91.5299 516.5561 90.902 516.5561 C 90.076 516.5561 89.426 516.85 88.954 517.4402 C 88.3879 518.1602 88.1059 519.3261 88.1059 520.9401 Z M 89.1859 520.9362 C 89.1859 519.522 89.35 518.582 89.68 518.118 C 90.0099 517.6519 90.4178 517.4201 90.902 517.4201 C 91.3859 517.4201 91.7938 517.6539 92.1237 518.1199 C 92.454 518.5879 92.6178 519.5259 92.6178 520.9362 C 92.6178 522.3501 92.454 523.29 92.1237 523.7541 C 91.7957 524.2201 91.3839 524.452 90.8898 524.452 C 90.4059 524.452 90.0179 524.2459 89.7279 523.836 C 89.3659 523.3141 89.1859 522.3461 89.1859 520.9362 Z M 98.4019 516.7001 L 98.4019 522.9281 L 99.3498 522.9281 L 99.3498 522.0479 C 99.544 522.3521 99.8039 522.5981 100.1279 522.7821 C 100.4519 522.968 100.8198 523.0599 101.234 523.0599 C 101.6938 523.0599 102.0719 522.9641 102.3659 522.7741 C 102.6598 522.582 102.8679 522.3161 102.9878 521.9719 C 103.4838 522.6979 104.1259 523.0599 104.9179 523.0599 C 105.5378 523.0599 106.0157 522.8901 106.3477 522.5479 C 106.6819 522.2061 106.8497 521.68 106.8497 520.9699 L 106.8497 516.7001 L 105.7938 516.7001 L 105.7938 520.6201 C 105.7938 521.0399 105.7578 521.3441 105.6898 521.53 C 105.6217 521.716 105.4979 521.8639 105.3159 521.9779 C 105.1359 522.0921 104.9238 522.148 104.6818 522.148 C 104.2418 522.148 103.8779 522.002 103.5879 521.712 C 103.2979 521.42 103.1539 520.954 103.1539 520.314 L 103.1539 516.7001 L 102.098 516.7001 L 102.098 520.742 C 102.098 521.21 102.0118 521.562 101.8397 521.7959 C 101.668 522.03 101.3859 522.148 100.9959 522.148 C 100.6999 522.148 100.4258 522.07 100.1738 521.9141 C 99.9218 521.7579 99.7398 521.53 99.6259 521.2281 C 99.5139 520.9279 99.4578 520.494 99.4578 519.9282 L 99.4578 516.7001 Z Z M 108.3977 516.7001 L 108.3977 522.9281 L 109.3456 522.9281 L 109.3456 522.0479 C 109.5398 522.3521 109.7997 522.5981 110.1237 522.7821 C 110.4477 522.968 110.8157 523.0599 111.2298 523.0599 C 111.6896 523.0599 112.0677 522.9641 112.3617 522.7741 C 112.6556 522.582 112.8637 522.3161 112.9836 521.9719 C 113.4797 522.6979 114.1217 523.0599 114.9137 523.0599 C 115.5336 523.0599 116.0116 522.8901 116.3435 522.5479 C 116.6777 522.2061 116.8455 521.68 116.8455 520.9699 L 116.8455 516.7001 L 115.7896 516.7001 L 115.7896 520.6201 C 115.7896 521.0399 115.7536 521.3441 115.6856 521.53 C 115.6175 521.716 115.4937 521.8639 115.3117 521.9779 C 115.1317 522.0921 114.9197 522.148 114.6776 522.148 C 114.2376 522.148 113.8737 522.002 113.5837 521.712 C 113.2937 521.42 113.1497 520.954 113.1497 520.314 L 113.1497 516.7001 L 112.0938 516.7001 L 112.0938 520.742 C 112.0938 521.21 112.0076 521.562 111.8356 521.7959 C 111.6638 522.03 111.3817 522.148 110.9917 522.148 C 110.6957 522.148 110.4216 522.07 110.1696 521.9141 C 109.9176 521.7579 109.7357 521.53 109.6217 521.2281 C 109.5097 520.9279 109.4536 520.494 109.4536 519.9282 L 109.4536 516.7001 Z" fill="#2173ab" fill-opacity="1"></path><path d="M 26.6941 61.4163 L 1.7382 61.4163" fill="none" stroke="#2173ab" stroke-opacity="1" stroke-miterlimit="22.9255856261" stroke-linecap="butt" stroke-linejoin="miter" stroke-width="0.216px" stroke-dasharray="" stroke-dashoffset="0px"></path><path d="M 26.6941 511.4163 L 1.7382 511.4163" fill="none" stroke="#2173ab" stroke-opacity="1" stroke-miterlimit="22.9255856261" stroke-linecap="butt" stroke-linejoin="miter" stroke-width="0.216px" stroke-dasharray="" stroke-dashoffset="0px"></path><path d="M 8.8248 255.0634 L 8.8248 61.4163" fill="none" stroke="#2173ab" stroke-opacity="1" stroke-miterlimit="22.9255856261" stroke-linecap="butt" stroke-linejoin="miter" stroke-width="0.216px" stroke-dasharray="" stroke-dashoffset="0px"></path><path d="M 5.9893 71.9983 L 8.8248 61.4163 L 11.6603 71.9983 Z" fill="#2173ab" fill-rule="evenodd" fill-opacity="1"></path></g><g transform=""><path d="M 8.8248 511.4163 L 8.8248 320.3614" fill="none" stroke="#2173ab" stroke-opacity="1" stroke-miterlimit="22.9255856261" stroke-linecap="butt" stroke-linejoin="miter" stroke-width="0.216px" stroke-dasharray="" stroke-dashoffset="0px"></path><path d="M 5.9893 500.8343 L 8.8248 511.4163 L 11.6603 500.8343 Z" fill="#2173ab" fill-rule="evenodd" fill-opacity="1"></path></g><g transform=""><path d="M 13.1386 261.8918 L 13.1386 260.8359 L 6.4145 260.8359 C 6.6586 260.5819 6.9007 260.2477 7.1427 259.8358 C 7.3845 259.4237 7.5665 259.0517 7.6867 258.7238 L 6.6665 258.7238 C 6.3907 259.3137 6.0545 259.8299 5.6585 260.2718 C 5.2645 260.7137 4.8827 261.0278 4.5108 261.2117 L 4.5108 261.8918 Z Z M 10.8825 264.6057 L 10.7986 265.7098 C 11.3366 265.7917 11.7405 265.9816 12.0127 266.2775 C 12.2825 266.5738 12.4186 266.9357 12.4186 267.3615 C 12.4186 267.8757 12.2267 268.3057 11.8446 268.6555 C 11.4605 269.0036 10.9525 269.1777 10.3207 269.1777 C 9.7186 269.1777 9.2446 269.0116 8.8965 268.6776 C 8.5487 268.3437 8.3747 267.9015 8.3747 267.3516 C 8.3747 267.0097 8.4526 266.7036 8.6085 266.4317 C 8.7647 266.1616 8.9666 265.9496 9.2146 265.7937 L 9.0706 264.7976 L 4.6548 265.6256 L 4.6548 269.8858 L 5.6628 269.8858 L 5.6628 266.4677 L 7.9807 266.0097 C 7.6187 266.5236 7.4387 267.0636 7.4387 267.6277 C 7.4387 268.3757 7.6986 269.0076 8.2185 269.5215 C 8.7386 270.0357 9.4065 270.2937 10.2226 270.2937 C 11.0007 270.2937 11.6725 270.0677 12.2386 269.6156 C 12.9345 269.0657 13.2826 268.3137 13.2826 267.3615 C 13.2826 266.5817 13.0626 265.9456 12.6247 265.4515 C 12.1867 264.9577 11.6065 264.6757 10.8825 264.6057 Z M 8.4807 272.9055 C 8.3205 272.4676 8.0906 272.1436 7.7947 271.9315 C 7.4965 271.7215 7.1408 271.6155 6.7266 271.6155 C 6.1007 271.6155 5.5766 271.8397 5.1506 272.2876 C 4.7248 272.7374 4.5108 273.3335 4.5108 274.0796 C 4.5108 274.8274 4.7288 275.4315 5.1647 275.8876 C 5.6007 276.3437 6.1308 276.5716 6.7567 276.5716 C 7.1546 276.5716 7.5027 276.4675 7.7967 276.2595 C 8.0926 276.0514 8.3205 275.7356 8.4807 275.3096 C 8.6528 275.8354 8.9286 276.2334 9.3127 276.5075 C 9.6945 276.7816 10.1506 276.9194 10.6826 276.9194 C 11.4165 276.9194 12.0325 276.6594 12.5325 276.1415 C 13.0326 275.6214 13.2826 274.9397 13.2826 274.0935 C 13.2826 273.2477 13.0326 272.5656 12.5306 272.0455 C 12.0285 271.5276 11.4026 271.2677 10.6526 271.2677 C 10.0947 271.2677 9.6267 271.4097 9.2506 271.6934 C 8.8727 271.9774 8.6168 272.3817 8.4807 272.9055 Z M 6.6886 272.6955 C 7.0965 272.6955 7.4288 272.8256 7.6867 273.0835 C 7.9447 273.3435 8.0745 273.6836 8.0745 274.1054 C 8.0745 274.5156 7.9466 274.8475 7.6907 275.1055 C 7.4347 275.3634 7.1206 275.4916 6.7487 275.4916 C 6.3607 275.4916 6.0347 275.3595 5.7708 275.0936 C 5.5066 274.8294 5.3748 274.4955 5.3748 274.0935 C 5.3748 273.6876 5.5046 273.3537 5.7626 273.0895 C 6.0205 272.8276 6.3286 272.6955 6.6886 272.6955 Z M 10.6605 272.3477 C 10.9627 272.3477 11.2527 272.4177 11.5345 272.5574 C 11.8145 272.6974 12.0325 272.9095 12.1867 273.1935 C 12.3406 273.4756 12.4186 273.7794 12.4186 274.1014 C 12.4186 274.6094 12.2567 275.0255 11.9327 275.3515 C 11.6087 275.6775 11.1966 275.8397 10.6965 275.8397 C 10.1886 275.8397 9.7685 275.6716 9.4365 275.3376 C 9.1046 275.0014 8.9385 274.5777 8.9385 274.0674 C 8.9385 273.5674 9.1026 273.1575 9.4306 272.8335 C 9.7586 272.5095 10.1687 272.3477 10.6605 272.3477 Z M 13.1386 278.5414 L 11.9387 278.5414 L 11.9387 279.7415 L 13.1386 279.7415 Z Z M 5.6628 281.3477 L 4.6548 281.3477 L 4.6548 286.9036 L 5.4706 286.9036 C 6.0525 286.3576 6.8267 285.8136 7.7927 285.2776 C 8.7585 284.7396 9.7526 284.3254 10.7745 284.0315 C 11.4925 283.8214 12.2825 283.6857 13.1386 283.6276 L 13.1386 282.5476 C 12.4625 282.5595 11.6447 282.6916 10.6866 282.9455 C 9.7265 283.1995 8.8027 283.5615 7.9126 284.0355 C 7.0226 284.5094 6.2725 285.0134 5.6628 285.5475 Z Z M 10.8825 287.9614 L 10.7986 289.0655 C 11.3366 289.1475 11.7405 289.3374 12.0127 289.6333 C 12.2825 289.9295 12.4186 290.2915 12.4186 290.7173 C 12.4186 291.2315 12.2267 291.6615 11.8446 292.0113 C 11.4605 292.3594 10.9525 292.5334 10.3207 292.5334 C 9.7186 292.5334 9.2446 292.3673 8.8965 292.0334 C 8.5487 291.6995 8.3747 291.2573 8.3747 290.7074 C 8.3747 290.3655 8.4526 290.0594 8.6085 289.7875 C 8.7647 289.5174 8.9666 289.3054 9.2146 289.1494 L 9.0706 288.1534 L 4.6548 288.9814 L 4.6548 293.2415 L 5.6628 293.2415 L 5.6628 289.8235 L 7.9807 289.3654 C 7.6187 289.8794 7.4387 290.4194 7.4387 290.9835 C 7.4387 291.7315 7.6986 292.3634 8.2185 292.8773 C 8.7386 293.3915 9.4065 293.6494 10.2226 293.6494 C 11.0007 293.6494 11.6725 293.4235 12.2386 292.9714 C 12.9345 292.4215 13.2826 291.6694 13.2826 290.7173 C 13.2826 289.9375 13.0626 289.3014 12.6247 288.8073 C 12.1867 288.3135 11.6065 288.0315 10.8825 287.9614 Z M 13.1386 298.2574 L 6.9106 298.2574 L 6.9106 299.2054 L 7.7907 299.2054 C 7.4866 299.3995 7.2405 299.6595 7.0566 299.9835 C 6.8706 300.3075 6.7788 300.6754 6.7788 301.0895 C 6.7788 301.5493 6.8746 301.9275 7.0645 302.2214 C 7.2567 302.5154 7.5226 302.7234 7.8667 302.8433 C 7.1408 303.3394 6.7788 303.9814 6.7788 304.7734 C 6.7788 305.3934 6.9486 305.8713 7.2907 306.2032 C 7.6326 306.5374 8.1587 306.7053 8.8688 306.7053 L 13.1386 306.7053 L 13.1386 305.6494 L 9.2186 305.6494 C 8.7987 305.6494 8.4946 305.6134 8.3086 305.5453 C 8.1227 305.4773 7.9747 305.3534 7.8608 305.1714 C 7.7465 304.9914 7.6907 304.7794 7.6907 304.5373 C 7.6907 304.0974 7.8367 303.7334 8.1266 303.4434 C 8.4186 303.1534 8.8846 303.0094 9.5247 303.0094 L 13.1386 303.0094 L 13.1386 301.9535 L 9.0967 301.9535 C 8.6287 301.9535 8.2766 301.8674 8.0427 301.6953 C 7.8086 301.5235 7.6907 301.2415 7.6907 300.8514 C 7.6907 300.5555 7.7686 300.2814 7.9245 300.0294 C 8.0807 299.7774 8.3086 299.5954 8.6105 299.4814 C 8.9107 299.3695 9.3447 299.3134 9.9105 299.3134 L 13.1386 299.3134 Z Z M 13.1386 308.2533 L 6.9106 308.2533 L 6.9106 309.2012 L 7.7907 309.2012 C 7.4866 309.3953 7.2405 309.6553 7.0566 309.9793 C 6.8706 310.3033 6.7788 310.6712 6.7788 311.0854 C 6.7788 311.5451 6.8746 311.9233 7.0645 312.2172 C 7.2567 312.5112 7.5226 312.7192 7.8667 312.8391 C 7.1408 313.3352 6.7788 313.9773 6.7788 314.7693 C 6.7788 315.3892 6.9486 315.8671 7.2907 316.1991 C 7.6326 316.5333 8.1587 316.7011 8.8688 316.7011 L 13.1386 316.7011 L 13.1386 315.6452 L 9.2186 315.6452 C 8.7987 315.6452 8.4946 315.6092 8.3086 315.5411 C 8.1227 315.4731 7.9747 315.3492 7.8608 315.1672 C 7.7465 314.9872 7.6907 314.7752 7.6907 314.5331 C 7.6907 314.0932 7.8367 313.7292 8.1266 313.4392 C 8.4186 313.1493 8.8846 313.0053 9.5247 313.0053 L 13.1386 313.0053 L 13.1386 311.9494 L 9.0967 311.9494 C 8.6287 311.9494 8.2766 311.8632 8.0427 311.6911 C 7.8086 311.5193 7.6907 311.2373 7.6907 310.8472 C 7.6907 310.5513 7.7686 310.2772 7.9245 310.0252 C 8.0807 309.7732 8.3086 309.5912 8.6105 309.4773 C 8.9107 309.3653 9.3447 309.3092 9.9105 309.3092 L 13.1386 309.3092 Z" fill="#2173ab" fill-opacity="1"></path></g></g></svg>