<?xml version="1.0"?><svg xmlns="http://www.w3.org/2000/svg" version="1.1" width="487.5591px" height="391.1811px" preserveAspectRatio="none" viewBox="0 0 487.5591 391.1811"><defs></defs><g transform="matrix(1 0 0 -1 0 391.1811)"><g transform=""><path d="M 31.4884 343.459 L 485.0317 343.459 L 485.0317 3.3015 L 31.4884 3.3015 ZZ" fill="#ffffff" stroke="#2c2e35" stroke-opacity="1" stroke-miterlimit="22.9255856261" stroke-linecap="butt" stroke-linejoin="miter" stroke-width="0.5669px" stroke-dasharray="" stroke-dashoffset="0px" fill-opacity="1"></path><path d="M 59.5386 343.4587 L 59.5386 3.3015" fill="none" stroke="#2c2e35" stroke-opacity="1" stroke-miterlimit="22.9255856261" stroke-linecap="butt" stroke-linejoin="miter" stroke-width="0.5669px" stroke-dasharray="2.4 2.4" stroke-dashoffset="0px"></path><path d="M 158.4984 343.4587 L 158.4984 3.3015" fill="none" stroke="#2c2e35" stroke-opacity="1" stroke-miterlimit="22.9255856261" stroke-linecap="butt" stroke-linejoin="miter" stroke-width="0.5669px" stroke-dasharray="2.4 2.4" stroke-dashoffset="0px"></path><path d="M 357.1373 343.4587 L 357.1373 3.3015" fill="none" stroke="#2c2e35" stroke-opacity="1" stroke-miterlimit="22.9255856261" stroke-linecap="butt" stroke-linejoin="miter" stroke-width="0.5669px" stroke-dasharray="2.4 2.4" stroke-dashoffset="0px"></path><path d="M 456.0094 343.4587 L 456.0094 3.3015" fill="none" stroke="#2c2e35" stroke-opacity="1" stroke-miterlimit="22.9255856261" stroke-linecap="butt" stroke-linejoin="miter" stroke-width="0.5669px" stroke-dasharray="2.4 2.4" stroke-dashoffset="0px"></path><path d="M 31.4881 31.8577 L 485.0314 31.8577" fill="none" stroke="#ffffff" stroke-opacity="1" stroke-miterlimit="22.9255856261" stroke-linecap="butt" stroke-linejoin="miter" stroke-width="0.5669px" stroke-dasharray="2.4 2.4" stroke-dashoffset="0px"></path><path d="M 31.4881 314.6632 L 485.0314 314.6632" fill="none" stroke="#ffffff" stroke-opacity="1" stroke-miterlimit="22.9255856261" stroke-linecap="butt" stroke-linejoin="miter" stroke-width="0.5669px" stroke-dasharray="2.4 2.4" stroke-dashoffset="0px"></path><path d="M 31.4884 343.0213 L 59.8348 343.0213 L 59.8348 326.0134 L 31.4884 326.0134 ZZ" fill="#2c2e35" fill-rule="evenodd" stroke="#2c2e35" stroke-opacity="1" stroke-miterlimit="22.9255856261" stroke-linecap="butt" stroke-linejoin="miter" stroke-width="0.5669px" stroke-dasharray="" stroke-dashoffset="0px" fill-opacity="1"></path><path d="M 456.1183 343.0213 L 484.4648 343.0213 L 484.4648 326.0134 L 456.1183 326.0134 ZZ" fill="#2c2e35" fill-rule="evenodd" stroke="#2c2e35" stroke-opacity="1" stroke-miterlimit="22.9255856261" stroke-linecap="butt" stroke-linejoin="miter" stroke-width="0.5669px" stroke-dasharray="" stroke-dashoffset="0px" fill-opacity="1"></path><path d="M 31.4884 379.4414 L 38.5537 382.4433 L 38.5537 382.4433 L 38.4616 382.2545 L 38.3754 382.066 L 38.2952 381.8772 L 38.2207 381.6887 L 38.1521 381.4999 L 38.0897 381.3106 L 38.033 381.1218 L 37.982 380.933 L 37.9372 380.7442 L 37.8981 380.5557 L 37.8652 380.3666 L 37.838 380.1779 L 37.8167 379.9885 L 37.8014 379.7997 L 37.7918 379.6109 L 37.7884 379.4219 L 37.7906 379.2325 L 37.7989 379.0437 L 37.813 378.8549 L 37.8332 378.6659 L 37.8592 378.4765 L 37.891 378.2877 L 37.929 378.0981 L 37.9726 377.909 L 38.0222 377.7202 L 38.0778 377.5311 L 38.139 377.3415 L 38.2065 377.1527 L 38.2796 376.9631 L 38.359 376.774 L 38.444 376.5849 L 38.5347 376.3953 Z Z M 481.485 377.7466 L 35.0334 379.1469 L 35.0351 379.7138 L 481.4867 378.3135 Z Z M 485.0317 378.019 L 477.9663 375.0171 L 478.0585 375.2059 L 478.1446 375.395 L 478.2249 375.5832 L 478.2994 375.7723 L 478.368 375.961 L 478.4304 376.1498 L 478.4871 376.3386 L 478.5381 376.5274 L 478.5829 376.7162 L 478.622 376.9053 L 478.6549 377.0943 L 478.6821 377.2831 L 478.7033 377.4719 L 478.7186 377.6607 L 478.7283 377.85 L 478.7317 378.0391 L 478.7294 378.2276 L 478.7212 378.4167 L 478.707 378.606 L 478.6869 378.7951 L 478.6608 378.9839 L 478.6291 379.1733 L 478.5911 379.3626 L 478.5474 379.5514 L 478.4978 379.7408 L 478.4423 379.9298 L 478.381 380.1189 L 478.3136 380.3083 L 478.2404 380.4973 L 478.1611 380.687 L 478.076 380.876 L 477.9853 381.0651 L 477.9853 381.0651 Z" fill="#2c2e35" fill-opacity="1"></path><path d="M 31.4884 344.1552 L 31.4884 355.8396" fill="none" stroke="#00b9f2" stroke-opacity="1" stroke-miterlimit="22.9255856261" stroke-linecap="butt" stroke-linejoin="miter" stroke-width="0.5669px" stroke-dasharray="" stroke-dashoffset="0px"></path><path d="M 59.5386 344.1552 L 59.5386 355.8396" fill="none" stroke="#2c2e35" stroke-opacity="1" stroke-miterlimit="22.9255856261" stroke-linecap="butt" stroke-linejoin="miter" stroke-width="0.5669px" stroke-dasharray="" stroke-dashoffset="0px"></path><path d="M 158.4984 344.1552 L 158.4984 355.8396" fill="none" stroke="#2c2e35" stroke-opacity="1" stroke-miterlimit="22.9255856261" stroke-linecap="butt" stroke-linejoin="miter" stroke-width="0.5669px" stroke-dasharray="" stroke-dashoffset="0px"></path><path d="M 357.1373 344.1552 L 357.1373 355.8396" fill="none" stroke="#2c2e35" stroke-opacity="1" stroke-miterlimit="22.9255856261" stroke-linecap="butt" stroke-linejoin="miter" stroke-width="0.5669px" stroke-dasharray="" stroke-dashoffset="0px"></path><path d="M 456.0094 344.1552 L 456.0094 355.8396" fill="none" stroke="#2c2e35" stroke-opacity="1" stroke-miterlimit="22.9255856261" stroke-linecap="butt" stroke-linejoin="miter" stroke-width="0.5669px" stroke-dasharray="" stroke-dashoffset="0px"></path><path d="M 485.0311 344.1552 L 485.0311 355.8396" fill="none" stroke="#00b9f2" stroke-opacity="1" stroke-miterlimit="22.9255856261" stroke-linecap="butt" stroke-linejoin="miter" stroke-width="0.5669px" stroke-dasharray="" stroke-dashoffset="0px"></path><path d="M 36.8521 347.3541 L 36.195 347.3541 L 36.195 351.5423 C 36.0366 351.3912 35.8291 351.2404 35.5723 351.0893 C 35.3157 350.9385 35.085 350.8254 34.8806 350.75 L 34.8806 351.3852 C 35.2483 351.5579 35.5694 351.7673 35.8444 352.0131 C 36.1196 352.2589 36.3144 352.4975 36.4286 352.7289 L 36.8521 352.7289 Z Z M 38.5356 349.994 C 38.5356 350.627 38.6008 351.1363 38.7309 351.5221 C 38.861 351.9079 39.0546 352.2056 39.3114 352.4148 C 39.5683 352.6243 39.8914 352.7289 40.2809 352.7289 C 40.568 352.7289 40.82 352.671 41.0366 352.5554 C 41.2534 352.4397 41.4323 352.273 41.5735 352.0551 C 41.7146 351.8374 41.8255 351.572 41.9057 351.2591 C 41.9859 350.9464 42.0262 350.5246 42.0262 349.994 C 42.0262 349.3661 41.9615 348.859 41.8326 348.4732 C 41.7036 348.0874 41.5108 347.7892 41.254 347.5786 C 40.9972 347.368 40.6729 347.2628 40.2809 347.2628 C 39.7647 347.2628 39.3596 347.4479 39.0651 347.8178 C 38.7122 348.2631 38.5356 348.9885 38.5356 349.994 Z M 39.2111 349.994 C 39.2111 349.1152 39.314 348.5305 39.5195 348.2393 C 39.7253 347.9485 39.979 347.8031 40.2809 347.8031 C 40.5828 347.8031 40.8365 347.9491 41.042 348.2413 C 41.2478 348.5336 41.3507 349.1178 41.3507 349.994 C 41.3507 350.8753 41.2478 351.4606 41.042 351.7503 C 40.8365 352.04 40.5802 352.1849 40.2735 352.1849 C 39.9716 352.1849 39.7307 352.057 39.5507 351.8014 C 39.3242 351.4751 39.2111 350.8727 39.2111 349.994 Z M 44.9546 347.3541 L 44.9546 351.2319 L 45.5426 351.2319 L 45.5426 350.6879 C 45.6642 350.8775 45.826 351.0303 46.0281 351.146 C 46.2302 351.2616 46.4601 351.3195 46.7184 351.3195 C 47.0055 351.3195 47.2411 351.2599 47.4248 351.1406 C 47.6087 351.0213 47.7383 350.8546 47.8137 350.6403 C 48.1204 351.093 48.5195 351.3195 49.0113 351.3195 C 49.396 351.3195 49.6916 351.2129 49.8986 351 C 50.1055 350.7871 50.2089 350.4589 50.2089 350.0158 L 50.2089 347.3541 L 49.5553 347.3541 L 49.5553 349.797 C 49.5553 350.0597 49.534 350.2491 49.4912 350.3645 C 49.4487 350.4801 49.3713 350.5734 49.2593 350.644 C 49.1474 350.7146 49.0161 350.75 48.8653 350.75 C 48.5926 350.75 48.3661 350.6593 48.1861 350.4779 C 48.0061 350.2964 47.916 350.0062 47.916 349.6071 L 47.916 347.3541 L 47.2586 347.3541 L 47.2586 349.8735 C 47.2586 350.1658 47.2051 350.3849 47.0979 350.5309 C 46.9908 350.6769 46.8156 350.75 46.5721 350.75 C 46.387 350.75 46.2161 350.7012 46.059 350.6037 C 45.9023 350.5065 45.7883 350.3639 45.7177 350.1765 C 45.6471 349.9892 45.612 349.719 45.612 349.3661 L 45.612 347.3541 Z Z M 51.1838 347.3541 L 51.1838 351.2319 L 51.7717 351.2319 L 51.7717 350.6879 C 51.8933 350.8775 52.0551 351.0303 52.2573 351.146 C 52.4594 351.2616 52.6893 351.3195 52.9475 351.3195 C 53.2346 351.3195 53.4702 351.2599 53.6539 351.1406 C 53.8379 351.0213 53.9674 350.8546 54.0428 350.6403 C 54.3495 351.093 54.7486 351.3195 55.2404 351.3195 C 55.6251 351.3195 55.9208 351.2129 56.1277 351 C 56.3346 350.7871 56.4381 350.4589 56.4381 350.0158 L 56.4381 347.3541 L 55.7844 347.3541 L 55.7844 349.797 C 55.7844 350.0597 55.7631 350.2491 55.7203 350.3645 C 55.6778 350.4801 55.6004 350.5734 55.4885 350.644 C 55.3765 350.7146 55.2453 350.75 55.0945 350.75 C 54.8218 350.75 54.5953 350.6593 54.4153 350.4779 C 54.2353 350.2964 54.1451 350.0062 54.1451 349.6071 L 54.1451 347.3541 L 53.4878 347.3541 L 53.4878 349.8735 C 53.4878 350.1658 53.4342 350.3849 53.3271 350.5309 C 53.2199 350.6769 53.0447 350.75 52.8012 350.75 C 52.6161 350.75 52.4452 350.7012 52.2882 350.6037 C 52.1314 350.5065 52.0174 350.3639 51.9469 350.1765 C 51.8763 349.9892 51.8411 349.719 51.8411 349.3661 L 51.8411 347.3541 Z" fill="#2c2e35" fill-opacity="1"></path><path d="M 96.1923 348.7671 L 96.8494 348.8547 C 96.925 348.4823 97.0534 348.2138 97.2346 348.0494 C 97.416 347.8853 97.6368 347.8031 97.8973 347.8031 C 98.2066 347.8031 98.4677 347.9102 98.6805 348.1243 C 98.8934 348.3386 99 348.6039 99 348.9205 C 99 349.2224 98.9014 349.4713 98.7043 349.6671 C 98.5073 349.863 98.2565 349.9611 97.9523 349.9611 C 97.8282 349.9611 97.6737 349.9367 97.4886 349.8883 L 97.5614 350.4651 C 97.6054 350.4603 97.6405 350.4577 97.6674 350.4577 C 97.9472 350.4577 98.1992 350.5309 98.4231 350.6769 C 98.6471 350.8228 98.7591 351.0482 98.7591 351.3523 C 98.7591 351.5933 98.6774 351.7929 98.5144 351.951 C 98.3514 352.1095 98.1408 352.1886 97.8829 352.1886 C 97.6272 352.1886 97.414 352.1081 97.2437 351.9473 C 97.0733 351.7866 96.9639 351.5457 96.9151 351.2245 L 96.258 351.3413 C 96.3383 351.7821 96.5208 352.1234 96.8057 352.3654 C 97.0906 352.6078 97.4446 352.7289 97.8681 352.7289 C 98.1604 352.7289 98.4294 352.6662 98.6751 352.5406 C 98.9209 352.4153 99.1091 352.2444 99.2392 352.0278 C 99.3694 351.8113 99.4346 351.5811 99.4346 351.3376 C 99.4346 351.1066 99.3725 350.896 99.2483 350.706 C 99.1242 350.5161 98.9405 350.3653 98.697 350.2534 C 99.0136 350.1802 99.2594 350.0286 99.4346 349.7987 C 99.61 349.5688 99.6976 349.2808 99.6976 348.9352 C 99.6976 348.4678 99.5272 348.0715 99.1862 347.7464 C 98.8455 347.4215 98.4146 347.2591 97.8936 347.2591 C 97.4239 347.2591 97.0339 347.3991 96.7235 347.6789 C 96.4131 347.959 96.2362 348.3218 96.1923 348.7671 Z M 100.3476 348.7561 L 101.0375 348.8145 C 101.0889 348.4786 101.2073 348.226 101.3936 348.0568 C 101.5798 347.8876 101.8046 347.8031 102.0674 347.8031 C 102.384 347.8031 102.6516 347.9224 102.8707 348.1608 C 103.0898 348.3995 103.1992 348.7161 103.1992 349.1104 C 103.1992 349.4854 103.0941 349.7811 102.8835 349.9977 C 102.6729 350.2142 102.3973 350.3225 102.0563 350.3225 C 101.8446 350.3225 101.6535 350.2743 101.4831 350.1782 C 101.3128 350.0821 101.1787 349.9574 101.0815 349.8041 L 100.4644 349.8846 L 100.9828 352.6339 L 103.6449 352.6339 L 103.6449 352.006 L 101.5087 352.006 L 101.2204 350.5671 C 101.5415 350.7914 101.8789 350.9033 102.2318 350.9033 C 102.6992 350.9033 103.0935 350.7415 103.4147 350.4175 C 103.7358 350.0938 103.8966 349.6776 103.8966 349.1688 C 103.8966 348.6844 103.7554 348.2657 103.4731 347.9128 C 103.1298 347.4794 102.6612 347.2628 102.0674 347.2628 C 101.5807 347.2628 101.1832 347.3991 100.8751 347.6716 C 100.5673 347.9443 100.3915 348.3057 100.3476 348.7561 Z M 106.7666 347.3541 L 106.7666 351.2319 L 107.3546 351.2319 L 107.3546 350.6879 C 107.4762 350.8775 107.638 351.0303 107.8401 351.146 C 108.0422 351.2616 108.2721 351.3195 108.5304 351.3195 C 108.8175 351.3195 109.0531 351.2599 109.2368 351.1406 C 109.4207 351.0213 109.5503 350.8546 109.6257 350.6403 C 109.9324 351.093 110.3315 351.3195 110.8233 351.3195 C 111.208 351.3195 111.5036 351.2129 111.7106 351 C 111.9175 350.7871 112.0209 350.4589 112.0209 350.0158 L 112.0209 347.3541 L 111.3673 347.3541 L 111.3673 349.797 C 111.3673 350.0597 111.346 350.2491 111.3032 350.3645 C 111.2607 350.4801 111.1833 350.5734 111.0713 350.644 C 110.9594 350.7146 110.8281 350.75 110.6773 350.75 C 110.4046 350.75 110.1781 350.6593 109.9981 350.4779 C 109.8181 350.2964 109.728 350.0062 109.728 349.6071 L 109.728 347.3541 L 109.0706 347.3541 L 109.0706 349.8735 C 109.0706 350.1658 109.0171 350.3849 108.9099 350.5309 C 108.8028 350.6769 108.6276 350.75 108.3841 350.75 C 108.199 350.75 108.0281 350.7012 107.871 350.6037 C 107.7143 350.5065 107.6003 350.3639 107.5297 350.1765 C 107.4591 349.9892 107.424 349.719 107.424 349.3661 L 107.424 347.3541 Z Z M 112.9958 347.3541 L 112.9958 351.2319 L 113.5837 351.2319 L 113.5837 350.6879 C 113.7053 350.8775 113.8671 351.0303 114.0693 351.146 C 114.2714 351.2616 114.5013 351.3195 114.7595 351.3195 C 115.0466 351.3195 115.2822 351.2599 115.4659 351.1406 C 115.6499 351.0213 115.7794 350.8546 115.8548 350.6403 C 116.1615 351.093 116.5606 351.3195 117.0524 351.3195 C 117.4371 351.3195 117.7328 351.2129 117.9397 351 C 118.1466 350.7871 118.2501 350.4589 118.2501 350.0158 L 118.2501 347.3541 L 117.5964 347.3541 L 117.5964 349.797 C 117.5964 350.0597 117.5751 350.2491 117.5323 350.3645 C 117.4898 350.4801 117.4124 350.5734 117.3005 350.644 C 117.1885 350.7146 117.0573 350.75 116.9065 350.75 C 116.6338 350.75 116.4073 350.6593 116.2273 350.4779 C 116.0473 350.2964 115.9571 350.0062 115.9571 349.6071 L 115.9571 347.3541 L 115.2998 347.3541 L 115.2998 349.8735 C 115.2998 350.1658 115.2462 350.3849 115.1391 350.5309 C 115.0319 350.6769 114.8567 350.75 114.6132 350.75 C 114.4281 350.75 114.2572 350.7012 114.1002 350.6037 C 113.9434 350.5065 113.8294 350.3639 113.7589 350.1765 C 113.6883 349.9892 113.6531 349.719 113.6531 349.3661 L 113.6531 347.3541 Z" fill="#2c2e35" fill-opacity="1"></path><path d="M 245.2346 352.006 L 245.2346 352.6376 L 248.6999 352.6376 L 248.6999 352.1265 C 248.3589 351.7637 248.0213 351.2815 247.6865 350.6803 C 247.3517 350.079 247.0932 349.4608 246.9107 348.8255 C 246.7791 348.3777 246.6952 347.8873 246.6587 347.3541 L 245.9832 347.3541 C 245.9906 347.775 246.0733 348.2838 246.2315 348.8803 C 246.3897 349.4767 246.6167 350.0518 246.9124 350.6054 C 247.208 351.1593 247.5227 351.6262 247.8563 352.006 Z Z M 249.3499 349.994 C 249.3499 350.627 249.4151 351.1363 249.5452 351.5221 C 249.6753 351.9079 249.8689 352.2056 250.1257 352.4148 C 250.3826 352.6243 250.7057 352.7289 251.0952 352.7289 C 251.3823 352.7289 251.6343 352.671 251.8509 352.5554 C 252.0677 352.4397 252.2466 352.273 252.3878 352.0551 C 252.5289 351.8374 252.6398 351.572 252.72 351.2591 C 252.8002 350.9464 252.8405 350.5246 252.8405 349.994 C 252.8405 349.3661 252.7758 348.859 252.6469 348.4732 C 252.5179 348.0874 252.3251 347.7892 252.0683 347.5786 C 251.8115 347.368 251.4872 347.2628 251.0952 347.2628 C 250.579 347.2628 250.1739 347.4479 249.8794 347.8178 C 249.5265 348.2631 249.3499 348.9885 249.3499 349.994 Z M 250.0254 349.994 C 250.0254 349.1152 250.1283 348.5305 250.3338 348.2393 C 250.5396 347.9485 250.7933 347.8031 251.0952 347.8031 C 251.3971 347.8031 251.6508 347.9491 251.8563 348.2413 C 252.0621 348.5336 252.165 349.1178 252.165 349.994 C 252.165 350.8753 252.0621 351.4606 251.8563 351.7503 C 251.6508 352.04 251.3945 352.1849 251.0878 352.1849 C 250.7859 352.1849 250.545 352.057 250.365 351.8014 C 250.1385 351.4751 250.0254 350.8727 250.0254 349.994 Z M 255.7689 347.3541 L 255.7689 351.2319 L 256.3569 351.2319 L 256.3569 350.6879 C 256.4785 350.8775 256.6403 351.0303 256.8424 351.146 C 257.0445 351.2616 257.2744 351.3195 257.5327 351.3195 C 257.8198 351.3195 258.0554 351.2599 258.2391 351.1406 C 258.423 351.0213 258.5526 350.8546 258.628 350.6403 C 258.9347 351.093 259.3338 351.3195 259.8256 351.3195 C 260.2103 351.3195 260.5059 351.2129 260.7129 351 C 260.9198 350.7871 261.0232 350.4589 261.0232 350.0158 L 261.0232 347.3541 L 260.3696 347.3541 L 260.3696 349.797 C 260.3696 350.0597 260.3483 350.2491 260.3055 350.3645 C 260.263 350.4801 260.1856 350.5734 260.0736 350.644 C 259.9617 350.7146 259.8304 350.75 259.6796 350.75 C 259.4069 350.75 259.1804 350.6593 259.0004 350.4779 C 258.8204 350.2964 258.7303 350.0062 258.7303 349.6071 L 258.7303 347.3541 L 258.0729 347.3541 L 258.0729 349.8735 C 258.0729 350.1658 258.0194 350.3849 257.9122 350.5309 C 257.8051 350.6769 257.6299 350.75 257.3864 350.75 C 257.2013 350.75 257.0304 350.7012 256.8733 350.6037 C 256.7166 350.5065 256.6026 350.3639 256.532 350.1765 C 256.4614 349.9892 256.4263 349.719 256.4263 349.3661 L 256.4263 347.3541 Z Z M 261.9981 347.3541 L 261.9981 351.2319 L 262.586 351.2319 L 262.586 350.6879 C 262.7076 350.8775 262.8694 351.0303 263.0716 351.146 C 263.2737 351.2616 263.5036 351.3195 263.7618 351.3195 C 264.0489 351.3195 264.2845 351.2599 264.4682 351.1406 C 264.6522 351.0213 264.7817 350.8546 264.8571 350.6403 C 265.1638 351.093 265.5629 351.3195 266.0547 351.3195 C 266.4394 351.3195 266.7351 351.2129 266.942 351 C 267.1489 350.7871 267.2524 350.4589 267.2524 350.0158 L 267.2524 347.3541 L 266.5987 347.3541 L 266.5987 349.797 C 266.5987 350.0597 266.5774 350.2491 266.5346 350.3645 C 266.4921 350.4801 266.4147 350.5734 266.3028 350.644 C 266.1908 350.7146 266.0596 350.75 265.9088 350.75 C 265.6361 350.75 265.4096 350.6593 265.2296 350.4779 C 265.0496 350.2964 264.9594 350.0062 264.9594 349.6071 L 264.9594 347.3541 L 264.3021 347.3541 L 264.3021 349.8735 C 264.3021 350.1658 264.2485 350.3849 264.1414 350.5309 C 264.0342 350.6769 263.859 350.75 263.6155 350.75 C 263.4304 350.75 263.2595 350.7012 263.1025 350.6037 C 262.9457 350.5065 262.8317 350.3639 262.7612 350.1765 C 262.6906 349.9892 262.6554 349.719 262.6554 349.3661 L 262.6554 347.3541 Z" fill="#2c2e35" fill-opacity="1"></path><path d="M 397.4009 348.7666 L 398.058 348.8542 C 398.1336 348.4817 398.262 348.2133 398.4432 348.0489 C 398.6246 347.8847 398.8454 347.8025 399.1059 347.8025 C 399.4152 347.8025 399.6763 347.9097 399.8891 348.1237 C 400.102 348.338 400.2086 348.6033 400.2086 348.9199 C 400.2086 349.2218 400.11 349.4707 399.9129 349.6666 C 399.7159 349.8625 399.4651 349.9605 399.1609 349.9605 C 399.0368 349.9605 398.8823 349.9362 398.6972 349.8877 L 398.77 350.4645 C 398.814 350.4597 398.8491 350.4572 398.876 350.4572 C 399.1558 350.4572 399.4078 350.5303 399.6317 350.6763 C 399.8557 350.8223 399.9677 351.0476 399.9677 351.3518 C 399.9677 351.5927 399.886 351.7923 399.723 351.9505 C 399.56 352.1089 399.3494 352.188 399.0915 352.188 C 398.8358 352.188 398.6226 352.1075 398.4523 351.9468 C 398.2819 351.786 398.1725 351.5451 398.1237 351.2239 L 397.4666 351.3407 C 397.5469 351.7815 397.7294 352.1228 398.0143 352.3649 C 398.2992 352.6072 398.6532 352.7283 399.0767 352.7283 C 399.369 352.7283 399.638 352.6656 399.8837 352.5401 C 400.1295 352.4148 400.3177 352.2438 400.4478 352.0273 C 400.578 351.8107 400.6431 351.5805 400.6431 351.337 C 400.6431 351.106 400.5811 350.8954 400.4569 350.7055 C 400.3328 350.5156 400.1491 350.3648 399.9056 350.2528 C 400.2222 350.1797 400.468 350.028 400.6431 349.7981 C 400.8186 349.5682 400.9062 349.2802 400.9062 348.9347 C 400.9062 348.4672 400.7358 348.071 400.3948 347.7458 C 400.0541 347.421 399.6232 347.2586 399.1022 347.2586 C 398.6325 347.2586 398.2425 347.3986 397.9321 347.6784 C 397.6217 347.9584 397.4448 348.3213 397.4009 348.7666 Z M 401.5562 348.7555 L 402.2461 348.8139 C 402.2974 348.478 402.4159 348.2254 402.6022 348.0562 C 402.7884 347.887 403.0132 347.8025 403.276 347.8025 C 403.5926 347.8025 403.8602 347.9219 404.0793 348.1603 C 404.2984 348.3989 404.4078 348.7156 404.4078 349.1099 C 404.4078 349.4849 404.3027 349.7805 404.0921 349.9971 C 403.8814 350.2137 403.6059 350.322 403.2649 350.322 C 403.0532 350.322 402.8621 350.2738 402.6917 350.1777 C 402.5214 350.0816 402.3873 349.9569 402.2901 349.8035 L 401.673 349.884 L 402.1914 352.6333 L 404.8534 352.6333 L 404.8534 352.0054 L 402.7173 352.0054 L 402.429 350.5666 C 402.7501 350.7908 403.0875 350.9028 403.4404 350.9028 C 403.9078 350.9028 404.3021 350.7409 404.6233 350.4169 C 404.9444 350.0932 405.1052 349.6771 405.1052 349.1683 C 405.1052 348.6838 404.964 348.2651 404.6817 347.9122 C 404.3384 347.4788 403.8698 347.2622 403.276 347.2622 C 402.7893 347.2622 402.3918 347.3986 402.0837 347.671 C 401.7759 347.9437 401.6001 348.3051 401.5562 348.7555 Z M 407.9752 347.3535 L 407.9752 351.2313 L 408.5631 351.2313 L 408.5631 350.6873 C 408.6848 350.877 408.8466 351.0298 409.0487 351.1454 C 409.2508 351.2611 409.4807 351.3189 409.739 351.3189 C 410.0261 351.3189 410.2617 351.2594 410.4454 351.14 C 410.6293 351.0207 410.7589 350.854 410.8343 350.6397 C 411.141 351.0924 411.5401 351.3189 412.0319 351.3189 C 412.4166 351.3189 412.7122 351.2123 412.9191 350.9994 C 413.1261 350.7866 413.2295 350.4583 413.2295 350.0152 L 413.2295 347.3535 L 412.5759 347.3535 L 412.5759 349.7964 C 412.5759 350.0592 412.5546 350.2485 412.5118 350.3639 C 412.4693 350.4796 412.3919 350.5728 412.2799 350.6434 C 412.168 350.714 412.0367 350.7494 411.8859 350.7494 C 411.6132 350.7494 411.3867 350.6587 411.2067 350.4773 C 411.0267 350.2959 410.9366 350.0056 410.9366 349.6065 L 410.9366 347.3535 L 410.2792 347.3535 L 410.2792 349.8729 C 410.2792 350.1652 410.2257 350.3843 410.1185 350.5303 C 410.0114 350.6763 409.8362 350.7494 409.5927 350.7494 C 409.4076 350.7494 409.2367 350.7007 409.0796 350.6031 C 408.9229 350.5059 408.8089 350.3633 408.7383 350.176 C 408.6677 349.9886 408.6326 349.7185 408.6326 349.3655 L 408.6326 347.3535 Z Z M 414.2044 347.3535 L 414.2044 351.2313 L 414.7923 351.2313 L 414.7923 350.6873 C 414.9139 350.877 415.0757 351.0298 415.2779 351.1454 C 415.48 351.2611 415.7099 351.3189 415.9681 351.3189 C 416.2552 351.3189 416.4908 351.2594 416.6745 351.14 C 416.8585 351.0207 416.988 350.854 417.0634 350.6397 C 417.3701 351.0924 417.7692 351.3189 418.261 351.3189 C 418.6457 351.3189 418.9414 351.2123 419.1483 350.9994 C 419.3552 350.7866 419.4587 350.4583 419.4587 350.0152 L 419.4587 347.3535 L 418.805 347.3535 L 418.805 349.7964 C 418.805 350.0592 418.7837 350.2485 418.7409 350.3639 C 418.6984 350.4796 418.621 350.5728 418.5091 350.6434 C 418.3971 350.714 418.2659 350.7494 418.1151 350.7494 C 417.8424 350.7494 417.6159 350.6587 417.4359 350.4773 C 417.2559 350.2959 417.1657 350.0056 417.1657 349.6065 L 417.1657 347.3535 L 416.5084 347.3535 L 416.5084 349.8729 C 416.5084 350.1652 416.4548 350.3843 416.3477 350.5303 C 416.2405 350.6763 416.0653 350.7494 415.8218 350.7494 C 415.6367 350.7494 415.4658 350.7007 415.3088 350.6031 C 415.152 350.5059 415.038 350.3633 414.9675 350.176 C 414.8969 349.9886 414.8617 349.7185 414.8617 349.3655 L 414.8617 347.3535 Z" fill="#2c2e35" fill-opacity="1"></path><path d="M 461.7111 347.3541 L 461.054 347.3541 L 461.054 351.5423 C 460.8955 351.3912 460.688 351.2404 460.4312 351.0893 C 460.1747 350.9385 459.9439 350.8254 459.7396 350.75 L 459.7396 351.3852 C 460.1072 351.5579 460.4284 351.7673 460.7033 352.0131 C 460.9786 352.2589 461.1733 352.4975 461.2876 352.7289 L 461.7111 352.7289 Z Z M 463.3946 349.994 C 463.3946 350.627 463.4597 351.1363 463.5899 351.5221 C 463.72 351.9079 463.9136 352.2056 464.1704 352.4148 C 464.4272 352.6243 464.7504 352.7289 465.1398 352.7289 C 465.427 352.7289 465.679 352.671 465.8956 352.5554 C 466.1124 352.4397 466.2913 352.273 466.4324 352.0551 C 466.5736 351.8374 466.6844 351.572 466.7647 351.2591 C 466.8449 350.9464 466.8851 350.5246 466.8851 349.994 C 466.8851 349.3661 466.8205 348.859 466.6915 348.4732 C 466.5626 348.0874 466.3698 347.7892 466.113 347.5786 C 465.8562 347.368 465.5319 347.2628 465.1398 347.2628 C 464.6237 347.2628 464.2186 347.4479 463.9241 347.8178 C 463.5711 348.2631 463.3946 348.9885 463.3946 349.994 Z M 464.07 349.994 C 464.07 349.1152 464.1729 348.5305 464.3785 348.2393 C 464.5843 347.9485 464.838 347.8031 465.1398 347.8031 C 465.4417 347.8031 465.6954 347.9491 465.9009 348.2413 C 466.1067 348.5336 466.2096 349.1178 466.2096 349.994 C 466.2096 350.8753 466.1067 351.4606 465.9009 351.7503 C 465.6954 352.04 465.4392 352.1849 465.1325 352.1849 C 464.8306 352.1849 464.5896 352.057 464.4096 351.8014 C 464.1831 351.4751 464.07 350.8727 464.07 349.994 Z M 469.8136 347.3541 L 469.8136 351.2319 L 470.4015 351.2319 L 470.4015 350.6879 C 470.5231 350.8775 470.685 351.0303 470.8871 351.146 C 471.0892 351.2616 471.3191 351.3195 471.5773 351.3195 C 471.8645 351.3195 472.1 351.2599 472.2837 351.1406 C 472.4677 351.0213 472.5972 350.8546 472.6726 350.6403 C 472.9793 351.093 473.3785 351.3195 473.8703 351.3195 C 474.2549 351.3195 474.5506 351.2129 474.7575 351 C 474.9644 350.7871 475.0679 350.4589 475.0679 350.0158 L 475.0679 347.3541 L 474.4142 347.3541 L 474.4142 349.797 C 474.4142 350.0597 474.393 350.2491 474.3502 350.3645 C 474.3077 350.4801 474.2303 350.5734 474.1183 350.644 C 474.0063 350.7146 473.8751 350.75 473.7243 350.75 C 473.4516 350.75 473.2251 350.6593 473.0451 350.4779 C 472.8651 350.2964 472.775 350.0062 472.775 349.6071 L 472.775 347.3541 L 472.1176 347.3541 L 472.1176 349.8735 C 472.1176 350.1658 472.064 350.3849 471.9569 350.5309 C 471.8497 350.6769 471.6746 350.75 471.4311 350.75 C 471.246 350.75 471.075 350.7012 470.918 350.6037 C 470.7612 350.5065 470.6473 350.3639 470.5767 350.1765 C 470.5061 349.9892 470.471 349.719 470.471 349.3661 L 470.471 347.3541 Z Z M 476.0427 347.3541 L 476.0427 351.2319 L 476.6306 351.2319 L 476.6306 350.6879 C 476.7523 350.8775 476.9141 351.0303 477.1162 351.146 C 477.3183 351.2616 477.5482 351.3195 477.8065 351.3195 C 478.0936 351.3195 478.3292 351.2599 478.5129 351.1406 C 478.6968 351.0213 478.8264 350.8546 478.9018 350.6403 C 479.2085 351.093 479.6076 351.3195 480.0994 351.3195 C 480.4841 351.3195 480.7797 351.2129 480.9866 351 C 481.1936 350.7871 481.297 350.4589 481.297 350.0158 L 481.297 347.3541 L 480.6434 347.3541 L 480.6434 349.797 C 480.6434 350.0597 480.6221 350.2491 480.5793 350.3645 C 480.5368 350.4801 480.4594 350.5734 480.3474 350.644 C 480.2355 350.7146 480.1042 350.75 479.9534 350.75 C 479.6807 350.75 479.4542 350.6593 479.2742 350.4779 C 479.0942 350.2964 479.0041 350.0062 479.0041 349.6071 L 479.0041 347.3541 L 478.3467 347.3541 L 478.3467 349.8735 C 478.3467 350.1658 478.2932 350.3849 478.186 350.5309 C 478.0789 350.6769 477.9037 350.75 477.6602 350.75 C 477.4751 350.75 477.3042 350.7012 477.1471 350.6037 C 476.9904 350.5065 476.8764 350.3639 476.8058 350.1765 C 476.7352 349.9892 476.7001 349.719 476.7001 349.3661 L 476.7001 347.3541 Z" fill="#2c2e35" fill-opacity="1"></path><path d="M 238.083 379.5911 L 236.9866 379.5911 L 236.9866 386.5779 C 236.7227 386.3259 236.3763 386.0742 235.948 385.8225 C 235.5197 385.5708 235.1347 385.382 234.7937 385.2561 L 234.7937 386.316 C 235.4068 386.6043 235.9429 386.9532 236.4018 387.3634 C 236.8607 387.7736 237.1856 388.1716 237.3763 388.5574 L 238.083 388.5574 Z Z M 246.5804 386.3341 L 245.4902 386.2488 C 245.3927 386.6794 245.2547 386.9921 245.0758 387.1871 C 244.7796 387.4997 244.4139 387.6559 243.9794 387.6559 C 243.6301 387.6559 243.3237 387.5584 243.0598 387.3637 C 242.7146 387.1117 242.4424 386.7443 242.2434 386.261 C 242.0444 385.7777 241.941 385.0894 241.9328 384.1963 C 242.1967 384.5982 242.5195 384.8967 242.9014 385.0914 C 243.2832 385.2865 243.6831 385.384 244.1013 385.384 C 244.8323 385.384 245.4545 385.115 245.9682 384.5767 C 246.4821 384.0386 246.7389 383.3433 246.7389 382.4906 C 246.7389 381.9302 246.6181 381.4092 246.3763 380.9279 C 246.1348 380.4469 245.8029 380.0784 245.3805 379.8224 C 244.9582 379.5667 244.4788 379.4389 243.9428 379.4389 C 243.0292 379.4389 242.284 379.7748 241.7074 380.4469 C 241.1308 381.119 240.8426 382.2267 240.8426 383.7696 C 240.8426 385.4957 241.1612 386.7503 241.7987 387.534 C 242.3551 388.2163 243.1043 388.5574 244.0466 388.5574 C 244.749 388.5574 245.3244 388.3603 245.7731 387.9666 C 246.2219 387.5729 246.4911 387.0286 246.5804 386.3341 Z M 242.1034 382.4844 C 242.1034 382.1068 242.1836 381.7454 242.3438 381.4002 C 242.5042 381.0552 242.7287 380.7921 243.017 380.6113 C 243.3053 380.4307 243.608 380.3403 243.9247 380.3403 C 244.3876 380.3403 244.7855 380.5271 245.1186 380.9007 C 245.4517 381.2743 245.6181 381.782 245.6181 382.4235 C 245.6181 383.0409 245.4537 383.5273 245.1246 383.8825 C 244.7957 384.2376 244.3816 384.4154 243.8821 384.4154 C 243.3866 384.4154 242.9663 384.2376 242.621 383.8825 C 242.276 383.5273 242.1034 383.0613 242.1034 382.4844 Z M 247.8294 383.995 C 247.8294 385.0509 247.938 385.9004 248.1551 386.5442 C 248.3725 387.1879 248.6954 387.6843 249.1237 388.0335 C 249.552 388.3827 250.0911 388.5574 250.7409 388.5574 C 251.2202 388.5574 251.6403 388.461 252.0017 388.2679 C 252.3631 388.0752 252.6616 387.7971 252.8972 387.4337 C 253.1327 387.0703 253.3175 386.6275 253.4516 386.1057 C 253.5857 385.5838 253.6526 384.8803 253.6526 383.995 C 253.6526 382.9473 253.5449 382.1017 253.3297 381.458 C 253.1146 380.8142 252.7926 380.3168 252.3643 379.9655 C 251.9359 379.6143 251.3948 379.4389 250.7409 379.4389 C 249.88 379.4389 249.2039 379.7476 248.7124 380.3647 C 248.1236 381.1079 247.8294 382.318 247.8294 383.995 Z M 248.9562 383.995 C 248.9562 382.5292 249.1277 381.5535 249.4709 381.0682 C 249.8142 380.5829 250.2374 380.3403 250.7409 380.3403 C 251.2446 380.3403 251.6678 380.5838 252.0108 381.0711 C 252.354 381.5583 252.5255 382.5332 252.5255 383.995 C 252.5255 385.465 252.354 386.4416 252.0108 386.9249 C 251.6678 387.4082 251.2403 387.65 250.7287 387.65 C 250.2252 387.65 249.8233 387.4368 249.5225 387.0102 C 249.1449 386.4662 248.9562 385.4611 248.9562 383.995 Z M 258.5378 379.5911 L 258.5378 386.06 L 259.5186 386.06 L 259.5186 385.1524 C 259.7216 385.469 259.9914 385.7238 260.3285 385.9169 C 260.6655 386.1099 261.0493 386.2063 261.4799 386.2063 C 261.9592 386.2063 262.3521 386.1068 262.6586 385.9078 C 262.9653 385.7088 263.1815 385.4307 263.3074 385.0733 C 263.8191 385.8287 264.4849 386.2063 265.3053 386.2063 C 265.9467 386.2063 266.4403 386.0286 266.7852 385.6731 C 267.1305 385.3179 267.3031 384.7706 267.3031 384.0316 L 267.3031 379.5911 L 266.2129 379.5911 L 266.2129 383.6662 C 266.2129 384.1047 266.1775 384.4205 266.1063 384.6132 C 266.0352 384.8063 265.9062 384.9616 265.7194 385.0792 C 265.5326 385.1972 265.3135 385.2561 265.0615 385.2561 C 264.6068 385.2561 264.2292 385.1048 263.9285 384.8023 C 263.628 384.4998 263.4778 384.0154 263.4778 383.3495 L 263.4778 379.5911 L 262.3813 379.5911 L 262.3813 383.794 C 262.3813 384.2813 262.292 384.647 262.1132 384.8905 C 261.9346 385.1342 261.6423 385.2561 261.2364 385.2561 C 260.9277 385.2561 260.6423 385.1748 260.3803 385.0123 C 260.1184 384.8499 259.9285 384.6121 259.8109 384.2994 C 259.6932 383.9868 259.6343 383.5361 259.6343 382.9473 L 259.6343 379.5911 Z Z M 268.9296 379.5911 L 268.9296 386.06 L 269.9104 386.06 L 269.9104 385.1524 C 270.1134 385.469 270.3832 385.7238 270.7203 385.9169 C 271.0573 386.1099 271.4411 386.2063 271.8717 386.2063 C 272.3511 386.2063 272.7439 386.1068 273.0504 385.9078 C 273.3571 385.7088 273.5734 385.4307 273.6992 385.0733 C 274.2109 385.8287 274.8767 386.2063 275.6971 386.2063 C 276.3386 386.2063 276.8321 386.0286 277.177 385.6731 C 277.5223 385.3179 277.6949 384.7706 277.6949 384.0316 L 277.6949 379.5911 L 276.6047 379.5911 L 276.6047 383.6662 C 276.6047 384.1047 276.5693 384.4205 276.4981 384.6132 C 276.427 384.8063 276.298 384.9616 276.1112 385.0792 C 275.9244 385.1972 275.7053 385.2561 275.4533 385.2561 C 274.9986 385.2561 274.621 385.1048 274.3203 384.8023 C 274.0198 384.4998 273.8696 384.0154 273.8696 383.3495 L 273.8696 379.5911 L 272.7731 379.5911 L 272.7731 383.794 C 272.7731 384.2813 272.6838 384.647 272.505 384.8905 C 272.3264 385.1342 272.0341 385.2561 271.6282 385.2561 C 271.3195 385.2561 271.0341 385.1748 270.7722 385.0123 C 270.5102 384.8499 270.3203 384.6121 270.2027 384.2994 C 270.085 383.9868 270.0261 383.5361 270.0261 382.9473 L 270.0261 379.5911 Z" fill="#2c2e35" fill-opacity="1"></path><path d="M 94.127 349.9974 L 59.538 349.9974" fill="none" stroke="#2c2e35" stroke-opacity="1" stroke-miterlimit="22.9255856261" stroke-linecap="butt" stroke-linejoin="miter" stroke-width="0.5669px" stroke-dasharray="" stroke-dashoffset="0px"></path><path d="M 158.4989 349.9974 L 120.9934 349.9974" fill="none" stroke="#2c2e35" stroke-opacity="1" stroke-miterlimit="22.9255856261" stroke-linecap="butt" stroke-linejoin="miter" stroke-width="0.5669px" stroke-dasharray="" stroke-dashoffset="0px"></path><path d="M 158.4989 349.9965 L 238.9723 349.9965" fill="none" stroke="#2c2e35" stroke-opacity="1" stroke-miterlimit="22.9255856261" stroke-linecap="butt" stroke-linejoin="miter" stroke-width="0.5669px" stroke-dasharray="" stroke-dashoffset="0px"></path><path d="M 276.6645 349.9965 L 357.1379 349.9965" fill="none" stroke="#2c2e35" stroke-opacity="1" stroke-miterlimit="22.9255856261" stroke-linecap="butt" stroke-linejoin="miter" stroke-width="0.5669px" stroke-dasharray="" stroke-dashoffset="0px"></path><path d="M 394.8718 349.9965 L 357.1379 349.9965" fill="none" stroke="#2c2e35" stroke-opacity="1" stroke-miterlimit="22.9255856261" stroke-linecap="butt" stroke-linejoin="miter" stroke-width="0.5669px" stroke-dasharray="" stroke-dashoffset="0px"></path><path d="M 456.01 349.9965 L 419.9409 349.9965" fill="none" stroke="#2c2e35" stroke-opacity="1" stroke-miterlimit="22.9255856261" stroke-linecap="butt" stroke-linejoin="miter" stroke-width="0.5669px" stroke-dasharray="" stroke-dashoffset="0px"></path><path d="M 11.5223 2.6053 L 8.5277 9.6735 L 8.5277 9.6735 L 8.7163 9.5811 L 8.905 9.4952 L 9.0935 9.4144 L 9.2823 9.3396 L 9.4711 9.271 L 9.6596 9.2083 L 9.8484 9.1517 L 10.0372 9.1006 L 10.226 9.0556 L 10.4151 9.0164 L 10.6038 8.9827 L 10.7926 8.9555 L 10.9817 8.9342 L 11.1705 8.9186 L 11.3596 8.9087 L 11.5486 8.9053 L 11.7374 8.907 L 11.9265 8.9155 L 12.1156 8.9294 L 12.3046 8.9493 L 12.4937 8.9751 L 12.6831 9.0065 L 12.8721 9.0442 L 13.0612 9.0876 L 13.2506 9.1372 L 13.4396 9.1928 L 13.629 9.2537 L 13.8183 9.3209 L 14.0077 9.394 L 14.1968 9.4728 L 14.3861 9.5579 L 14.5757 9.6483 Z Z M 13.2134 340.6082 L 11.8205 6.15 L 11.2535 6.1523 L 12.6465 340.6107 Z Z M 12.9447 344.1552 L 15.9392 337.0867 L 15.7507 337.1791 L 15.5619 337.2653 L 15.3734 337.3458 L 15.1846 337.4209 L 14.9958 337.4895 L 14.8073 337.5524 L 14.6186 337.6091 L 14.4298 337.6602 L 14.241 337.7052 L 14.0519 337.7443 L 13.8631 337.7775 L 13.6743 337.8047 L 13.4853 337.8266 L 13.2965 337.8421 L 13.1074 337.8515 L 12.9183 337.8552 L 12.7295 337.8532 L 12.5405 337.8453 L 12.3514 337.8311 L 12.1623 337.8115 L 11.9733 337.7857 L 11.7839 337.7537 L 11.5948 337.716 L 11.4058 337.6729 L 11.2164 337.623 L 11.0273 337.568 L 10.838 337.5065 L 10.6486 337.4396 L 10.4593 337.3665 L 10.2702 337.2874 L 10.0809 337.2029 L 9.8912 337.1122 L 9.8912 337.1122 Z" fill="#2c2e35" fill-opacity="1"></path><path d="M 11.3726 155.2158 L 11.3726 154.1194 L 4.3858 154.1194 C 4.6378 153.8555 4.8895 153.5091 5.1412 153.0808 C 5.3929 152.6525 5.5817 152.2675 5.7076 151.9265 L 4.6477 151.9265 C 4.3594 152.5397 4.0105 153.0757 3.6003 153.5346 C 3.1901 153.9935 2.7921 154.3184 2.4063 154.5092 L 2.4063 155.2158 Z Z M 10.3187 163.7864 L 11.3726 163.7864 L 11.3726 157.8838 C 11.1087 157.8756 10.8547 157.9184 10.6112 158.0119 C 10.2093 158.1622 9.8133 158.4028 9.4235 158.7336 C 9.0337 159.0644 8.5827 159.5426 8.0711 160.1683 C 7.2751 161.1386 6.6447 161.7945 6.1798 162.1355 C 5.7146 162.4768 5.275 162.6474 4.8609 162.6474 C 4.4263 162.6474 4.0601 162.4921 3.7616 162.1814 C 3.4631 161.8707 3.3137 161.4657 3.3137 160.9662 C 3.3137 160.4381 3.4722 160.0157 3.7891 159.6991 C 4.1057 159.3825 4.5442 159.222 5.1046 159.2178 L 4.989 158.091 C 4.1485 158.1681 3.5079 158.4584 3.0674 158.9618 C 2.6266 159.4655 2.4063 160.1416 2.4063 160.9906 C 2.4063 161.8475 2.6439 162.5255 3.119 163.025 C 3.594 163.5245 4.1828 163.7742 4.8852 163.7742 C 5.2427 163.7742 5.5939 163.7011 5.9391 163.5548 C 6.2844 163.4088 6.6478 163.1662 7.0296 162.8269 C 7.4112 162.4878 7.935 161.9243 8.6012 161.1366 C 9.1534 160.4786 9.5278 160.0563 9.7248 159.8695 C 9.9218 159.6827 10.1197 159.5285 10.3187 159.4069 Z Z M 6.9687 164.9622 C 5.9128 164.9622 5.0632 165.0708 4.4195 165.2879 C 3.7757 165.5053 3.2794 165.8282 2.9302 166.2565 C 2.5809 166.6848 2.4063 167.224 2.4063 167.8737 C 2.4063 168.353 2.5027 168.7731 2.6957 169.1345 C 2.8885 169.4959 3.1666 169.7944 3.53 170.03 C 3.8934 170.2655 4.3362 170.4504 4.858 170.5844 C 5.3799 170.7185 6.0834 170.7854 6.9687 170.7854 C 8.0164 170.7854 8.862 170.6777 9.5057 170.4626 C 10.1494 170.2474 10.6469 169.9254 10.9981 169.4971 C 11.3494 169.0688 11.5248 168.5276 11.5248 167.8737 C 11.5248 167.0128 11.2161 166.3367 10.599 165.8452 C 9.8558 165.2564 8.6457 164.9622 6.9687 164.9622 Z M 6.9687 166.089 C 8.4345 166.089 9.4102 166.2605 9.8955 166.6037 C 10.3808 166.947 10.6234 167.3702 10.6234 167.8737 C 10.6234 168.3774 10.3799 168.8006 9.8926 169.1436 C 9.4054 169.4869 8.4305 169.6584 6.9687 169.6584 C 5.4986 169.6584 4.5221 169.4869 4.0388 169.1436 C 3.5555 168.8006 3.3137 168.3731 3.3137 167.8615 C 3.3137 167.358 3.5269 166.9561 3.9535 166.6553 C 4.4974 166.2778 5.5026 166.089 6.9687 166.089 Z M 11.3726 175.6706 L 4.9037 175.6706 L 4.9037 176.6514 L 5.8113 176.6514 C 5.4947 176.8544 5.2398 177.1243 5.0468 177.4613 C 4.8538 177.7983 4.7574 178.1821 4.7574 178.6127 C 4.7574 179.0921 4.8569 179.4849 5.0559 179.7914 C 5.2549 180.0981 5.5329 180.3144 5.8904 180.4402 C 5.135 180.9519 4.7574 181.6177 4.7574 182.4381 C 4.7574 183.0796 4.9351 183.5731 5.2906 183.918 C 5.6458 184.2633 6.1931 184.4359 6.9321 184.4359 L 11.3726 184.4359 L 11.3726 183.3457 L 7.2975 183.3457 C 6.859 183.3457 6.5432 183.3103 6.3505 183.2391 C 6.1574 183.168 6.0021 183.039 5.8844 182.8522 C 5.7665 182.6654 5.7076 182.4463 5.7076 182.1943 C 5.7076 181.7396 5.8589 181.362 6.1614 181.0613 C 6.4638 180.7608 6.9483 180.6106 7.6141 180.6106 L 11.3726 180.6106 L 11.3726 179.5141 L 7.1697 179.5141 C 6.6824 179.5141 6.3167 179.4249 6.0732 179.246 C 5.8294 179.0674 5.7076 178.7751 5.7076 178.3692 C 5.7076 178.0605 5.7889 177.7751 5.9513 177.5132 C 6.1138 177.2512 6.3516 177.0613 6.6643 176.9437 C 6.9769 176.826 7.4276 176.7671 8.0164 176.7671 L 11.3726 176.7671 Z Z M 11.3726 186.0625 L 4.9037 186.0625 L 4.9037 187.0432 L 5.8113 187.0432 C 5.4947 187.2462 5.2398 187.5161 5.0468 187.8531 C 4.8538 188.1901 4.7574 188.574 4.7574 189.0045 C 4.7574 189.4839 4.8569 189.8768 5.0559 190.1832 C 5.2549 190.4899 5.5329 190.7062 5.8904 190.832 C 5.135 191.3437 4.7574 192.0095 4.7574 192.8299 C 4.7574 193.4714 4.9351 193.9649 5.2906 194.3099 C 5.6458 194.6551 6.1931 194.8277 6.9321 194.8277 L 11.3726 194.8277 L 11.3726 193.7375 L 7.2975 193.7375 C 6.859 193.7375 6.5432 193.7021 6.3505 193.631 C 6.1574 193.5598 6.0021 193.4308 5.8844 193.244 C 5.7665 193.0572 5.7076 192.8381 5.7076 192.5861 C 5.7076 192.1314 5.8589 191.7539 6.1614 191.4531 C 6.4638 191.1526 6.9483 191.0024 7.6141 191.0024 L 11.3726 191.0024 L 11.3726 189.906 L 7.1697 189.906 C 6.6824 189.906 6.3167 189.8167 6.0732 189.6378 C 5.8294 189.4592 5.7076 189.167 5.7076 188.761 C 5.7076 188.4523 5.7889 188.1669 5.9513 187.905 C 6.1138 187.6431 6.3516 187.4531 6.6643 187.3355 C 6.9769 187.2179 7.4276 187.1589 8.0164 187.1589 L 11.3726 187.1589 Z" fill="#2c2e35" fill-opacity="1"></path><path d="M 31.4884 344.1546 L 19.804 344.1546" fill="none" stroke="#00b9f2" stroke-opacity="1" stroke-miterlimit="22.9255856261" stroke-linecap="butt" stroke-linejoin="miter" stroke-width="0.5669px" stroke-dasharray="" stroke-dashoffset="0px"></path><path d="M 31.4884 314.6632 L 19.804 314.6632" fill="none" stroke="#00b9f2" stroke-opacity="1" stroke-miterlimit="22.9255856261" stroke-linecap="butt" stroke-linejoin="miter" stroke-width="0.5669px" stroke-dasharray="" stroke-dashoffset="0px"></path><path d="M 31.4884 32.0975 L 19.804 32.0975" fill="none" stroke="#00b9f2" stroke-opacity="1" stroke-miterlimit="22.9255856261" stroke-linecap="butt" stroke-linejoin="miter" stroke-width="0.5669px" stroke-dasharray="" stroke-dashoffset="0px"></path><path d="M 31.4884 2.6056 L 19.804 2.6056" fill="none" stroke="#00b9f2" stroke-opacity="1" stroke-miterlimit="22.9255856261" stroke-linecap="butt" stroke-linejoin="miter" stroke-width="0.5669px" stroke-dasharray="" stroke-dashoffset="0px"></path><path d="M 28.2895 320.5998 L 28.2895 319.9428 L 24.1013 319.9428 C 24.2524 319.7843 24.4032 319.5768 24.5543 319.32 C 24.7051 319.0635 24.8182 318.8327 24.8936 318.6283 L 24.2583 318.6283 C 24.0857 318.996 23.8762 319.3172 23.6305 319.5921 C 23.3847 319.8674 23.146 320.0621 22.9147 320.1763 L 22.9147 320.5998 Z Z M 25.6496 322.2833 C 25.0166 322.2833 24.5072 322.3485 24.1214 322.4786 C 23.7356 322.6088 23.438 322.8024 23.2288 323.0592 C 23.0193 323.316 22.9147 323.6391 22.9147 324.0286 C 22.9147 324.3158 22.9725 324.5678 23.0882 324.7843 C 23.2038 325.0012 23.3705 325.1801 23.5885 325.3212 C 23.8062 325.4624 24.0715 325.5732 24.3845 325.6534 C 24.6971 325.7337 25.1189 325.7739 25.6496 325.7739 C 26.2774 325.7739 26.7846 325.7093 27.1704 325.5803 C 27.5562 325.4513 27.8544 325.2586 28.065 325.0018 C 28.2756 324.7449 28.3808 324.4207 28.3808 324.0286 C 28.3808 323.5124 28.1957 323.1074 27.8257 322.8129 C 27.3804 322.4599 26.655 322.2833 25.6496 322.2833 Z M 25.6496 322.9588 C 26.5283 322.9588 27.1131 323.0617 27.4042 323.2672 C 27.6951 323.473 27.8405 323.7267 27.8405 324.0286 C 27.8405 324.3305 27.6945 324.5842 27.4022 324.7897 C 27.11 324.9955 26.5258 325.0984 25.6496 325.0984 C 24.7683 325.0984 24.1829 324.9955 23.8932 324.7897 C 23.6035 324.5842 23.4587 324.328 23.4587 324.0213 C 23.4587 323.7194 23.5865 323.4784 23.8422 323.2984 C 24.1685 323.0719 24.7708 322.9588 25.6496 322.9588 Z M 28.2895 328.7024 L 24.4117 328.7024 L 24.4117 329.2903 L 24.9557 329.2903 C 24.766 329.4119 24.6132 329.5738 24.4976 329.7759 C 24.3819 329.978 24.3241 330.2079 24.3241 330.4661 C 24.3241 330.7533 24.3836 330.9888 24.503 331.1725 C 24.6223 331.3565 24.789 331.486 25.0033 331.5614 C 24.5506 331.8681 24.3241 332.2672 24.3241 332.7591 C 24.3241 333.1437 24.4307 333.4394 24.6436 333.6463 C 24.8564 333.8532 25.1847 333.9567 25.6277 333.9567 L 28.2895 333.9567 L 28.2895 333.303 L 25.8466 333.303 C 25.5838 333.303 25.3945 333.2818 25.2791 333.239 C 25.1634 333.1964 25.0702 333.1191 24.9996 333.0071 C 24.929 332.8951 24.8936 332.7639 24.8936 332.6131 C 24.8936 332.3404 24.9843 332.1139 25.1657 331.9339 C 25.3471 331.7539 25.6374 331.6637 26.0365 331.6637 L 28.2895 331.6637 L 28.2895 331.0064 L 25.77 331.0064 C 25.4778 331.0064 25.2587 330.9528 25.1127 330.8457 C 24.9667 330.7385 24.8936 330.5633 24.8936 330.3198 C 24.8936 330.1347 24.9423 329.9638 25.0398 329.8068 C 25.1371 329.65 25.2797 329.5361 25.467 329.4655 C 25.6544 329.3949 25.9245 329.3597 26.2774 329.3597 L 28.2895 329.3597 Z Z M 28.2895 334.9315 L 24.4117 334.9315 L 24.4117 335.5194 L 24.9557 335.5194 C 24.766 335.641 24.6132 335.8029 24.4976 336.005 C 24.3819 336.2071 24.3241 336.437 24.3241 336.6952 C 24.3241 336.9824 24.3836 337.218 24.503 337.4016 C 24.6223 337.5856 24.789 337.7151 25.0033 337.7906 C 24.5506 338.0973 24.3241 338.4964 24.3241 338.9882 C 24.3241 339.3729 24.4307 339.6685 24.6436 339.8754 C 24.8564 340.0824 25.1847 340.1858 25.6277 340.1858 L 28.2895 340.1858 L 28.2895 339.5322 L 25.8466 339.5322 C 25.5838 339.5322 25.3945 339.5109 25.2791 339.4681 C 25.1634 339.4256 25.0702 339.3482 24.9996 339.2362 C 24.929 339.1243 24.8936 338.993 24.8936 338.8422 C 24.8936 338.5695 24.9843 338.343 25.1657 338.163 C 25.3471 337.983 25.6374 337.8929 26.0365 337.8929 L 28.2895 337.8929 L 28.2895 337.2355 L 25.77 337.2355 C 25.4778 337.2355 25.2587 337.182 25.1127 337.0748 C 24.9667 336.9677 24.8936 336.7925 24.8936 336.549 C 24.8936 336.3639 24.9423 336.1929 25.0398 336.0359 C 25.1371 335.8791 25.2797 335.7652 25.467 335.6946 C 25.6544 335.624 25.9245 335.5889 26.2774 335.5889 L 28.2895 335.5889 Z" fill="#2c2e35" fill-opacity="1"></path><path d="M 28.2895 8.5422 L 28.2895 7.8851 L 24.1013 7.8851 C 24.2524 7.7267 24.4032 7.5192 24.5543 7.2624 C 24.7051 7.0058 24.8182 6.7751 24.8936 6.5707 L 24.2583 6.5707 C 24.0857 6.9384 23.8762 7.2595 23.6305 7.5345 C 23.3847 7.8097 23.146 8.0045 22.9147 8.1187 L 22.9147 8.5422 Z Z M 25.6496 10.2257 C 25.0166 10.2257 24.5072 10.2909 24.1214 10.421 C 23.7356 10.5511 23.438 10.7447 23.2288 11.0015 C 23.0193 11.2584 22.9147 11.5815 22.9147 11.971 C 22.9147 12.2581 22.9725 12.5101 23.0882 12.7267 C 23.2038 12.9436 23.3705 13.1224 23.5885 13.2636 C 23.8062 13.4048 24.0715 13.5156 24.3845 13.5958 C 24.6971 13.676 25.1189 13.7163 25.6496 13.7163 C 26.2774 13.7163 26.7846 13.6517 27.1704 13.5227 C 27.5562 13.3937 27.8544 13.2009 28.065 12.9441 C 28.2756 12.6873 28.3808 12.363 28.3808 11.971 C 28.3808 11.4548 28.1957 11.0497 27.8257 10.7552 C 27.3804 10.4023 26.655 10.2257 25.6496 10.2257 Z M 25.6496 10.9012 C 26.5283 10.9012 27.1131 11.0041 27.4042 11.2096 C 27.6951 11.4154 27.8405 11.6691 27.8405 11.971 C 27.8405 12.2729 27.6945 12.5266 27.4022 12.7321 C 27.11 12.9379 26.5258 13.0408 25.6496 13.0408 C 24.7683 13.0408 24.1829 12.9379 23.8932 12.7321 C 23.6035 12.5266 23.4587 12.2703 23.4587 11.9636 C 23.4587 11.6617 23.5865 11.4208 23.8422 11.2408 C 24.1685 11.0143 24.7708 10.9012 25.6496 10.9012 Z M 28.2895 16.6448 L 24.4117 16.6448 L 24.4117 17.2327 L 24.9557 17.2327 C 24.766 17.3543 24.6132 17.5161 24.4976 17.7182 C 24.3819 17.9203 24.3241 18.1502 24.3241 18.4085 C 24.3241 18.6956 24.3836 18.9312 24.503 19.1149 C 24.6223 19.2988 24.789 19.4284 25.0033 19.5038 C 24.5506 19.8105 24.3241 20.2096 24.3241 20.7014 C 24.3241 21.0861 24.4307 21.3817 24.6436 21.5887 C 24.8564 21.7956 25.1847 21.8991 25.6277 21.8991 L 28.2895 21.8991 L 28.2895 21.2454 L 25.8466 21.2454 C 25.5838 21.2454 25.3945 21.2241 25.2791 21.1813 C 25.1634 21.1388 25.0702 21.0614 24.9996 20.9494 C 24.929 20.8375 24.8936 20.7062 24.8936 20.5554 C 24.8936 20.2827 24.9843 20.0563 25.1657 19.8763 C 25.3471 19.6963 25.6374 19.6061 26.0365 19.6061 L 28.2895 19.6061 L 28.2895 18.9488 L 25.77 18.9488 C 25.4778 18.9488 25.2587 18.8952 25.1127 18.788 C 24.9667 18.6809 24.8936 18.5057 24.8936 18.2622 C 24.8936 18.0771 24.9423 17.9062 25.0398 17.7491 C 25.1371 17.5924 25.2797 17.4784 25.467 17.4078 C 25.6544 17.3373 25.9245 17.3021 26.2774 17.3021 L 28.2895 17.3021 Z Z M 28.2895 22.8739 L 24.4117 22.8739 L 24.4117 23.4618 L 24.9557 23.4618 C 24.766 23.5834 24.6132 23.7453 24.4976 23.9474 C 24.3819 24.1495 24.3241 24.3794 24.3241 24.6376 C 24.3241 24.9248 24.3836 25.1603 24.503 25.344 C 24.6223 25.528 24.789 25.6575 25.0033 25.7329 C 24.5506 26.0396 24.3241 26.4387 24.3241 26.9306 C 24.3241 27.3152 24.4307 27.6109 24.6436 27.8178 C 24.8564 28.0247 25.1847 28.1282 25.6277 28.1282 L 28.2895 28.1282 L 28.2895 27.4745 L 25.8466 27.4745 C 25.5838 27.4745 25.3945 27.4533 25.2791 27.4105 C 25.1634 27.3679 25.0702 27.2906 24.9996 27.1786 C 24.929 27.0666 24.8936 26.9354 24.8936 26.7846 C 24.8936 26.5119 24.9843 26.2854 25.1657 26.1054 C 25.3471 25.9254 25.6374 25.8352 26.0365 25.8352 L 28.2895 25.8352 L 28.2895 25.1779 L 25.77 25.1779 C 25.4778 25.1779 25.2587 25.1243 25.1127 25.0172 C 24.9667 24.91 24.8936 24.7348 24.8936 24.4913 C 24.8936 24.3062 24.9423 24.1353 25.0398 23.9783 C 25.1371 23.8215 25.2797 23.7076 25.467 23.637 C 25.6544 23.5664 25.9245 23.5312 26.2774 23.5312 L 28.2895 23.5312 Z" fill="#2c2e35" fill-opacity="1"></path></g></g></svg>